<svg xmlns="http://www.w3.org/2000/svg" xmlns:xlink="http://www.w3.org/1999/xlink" viewBox="0 0 353.48 107.2"><defs><style>.cls-1{fill:#1d3a5e;}.cls-2{fill:#35849c;}.cls-3{fill:url(#Naamloos_verloop_33);}</style><linearGradient id="Naamloos_verloop_33" y1="53.6" x2="165.25" y2="53.6" gradientUnits="userSpaceOnUse"><stop offset="0" stop-color="#1d3a5e"/><stop offset="0.25" stop-color="#35849c"/><stop offset="0.59" stop-color="#604b7a"/><stop offset="0.76" stop-color="#839d4f"/><stop offset="1" stop-color="#1d3a5e"/></linearGradient></defs><g id="Laag_2" data-name="Laag 2"><g id="Laag_1-2" data-name="Laag 1"><path class="cls-1" d="M193.07,15.56V27.37h15.35v4.21H193.07v13h17.71v4.19H188.86V11.42h21.92v4.14Z"/><path class="cls-1" d="M217.07,34.24V11.42h4.24v22.8c0,6.27,4.07,10.83,9.58,10.83s9.59-4.58,9.59-10.83V11.42h4.23V34.24c0,8.7-5.88,15.07-13.82,15.07S217.07,42.94,217.07,34.24Z"/><path class="cls-1" d="M250.22,30.1a19.34,19.34,0,0,1,19.17-19.21,18.63,18.63,0,0,1,12.82,5.64l-2.45,3.31a14.93,14.93,0,0,0-10.54-4.67A15.12,15.12,0,0,0,254.48,30.1a14.62,14.62,0,0,0,25.3,10.25l2.43,3.38a17.77,17.77,0,0,1-12.8,5.49A19.29,19.29,0,0,1,250.22,30.1Z"/><path class="cls-1" d="M311.65,42.6H291.28l-2.73,6.13H284l17.25-37.89h.46L319,48.73h-4.59ZM310,38.94l-8.54-19.19-8.56,19.19Z"/><path class="cls-1" d="M353.48,11.33v38h-.21l-25.58-28.4V48.78h-4.21V10.84h.23l25.55,28.38V11.33Z"/><path class="cls-2" d="M188.76,58.42H195V95.73h-6.27Z"/><path class="cls-2" d="M241.81,57.61V95.73h-6.27V75L222.3,95.11h-.05L209,75V95.73h-6.26V57.61h.47l19.09,27.13,19.07-27.13Z"/><path class="cls-2" d="M274.63,90.06h-18.9L253,95.73h-6.79L265,57.65h.37l18.78,38.08h-6.79Zm-2.43-5-7-14.59-7,14.59Z"/><path class="cls-2" d="M322.77,78.28c0,11.09-8.62,18.08-19,18.08C292.16,96.36,283,87.7,283,77.12s9.26-19.33,20.6-19.33a23.1,23.1,0,0,1,14.54,5.72l-3.49,4.86a17.22,17.22,0,0,0-11.12-4.67c-7.28,0-14.17,5.69-14.17,13.42,0,7.32,6.22,13.33,14.74,13.33,6.86,0,12-3.91,12-9.6v-.12H303.7V75.36h18.9A25.83,25.83,0,0,1,322.77,78.28Z"/><path class="cls-2" d="M334.81,64.18v9.56h15.11v5.83H334.81V89.9h17.51v5.83H328.55V58.42h23.77v5.76Z"/><path class="cls-3" d="M111.65,0,97.14,14.51,82.63,0,76.15,6.47,122.84,53.6,97.14,79.3l-7.82-7.82L107.19,53.6,53.6,0,0,53.6l53.6,53.6L68.11,92.68,82.62,107.2l6.65-6.65L42.41,53.6l25.7-25.7,7.82,7.82L58.05,53.6l53.6,53.6,53.6-53.6ZM29,53.6,61.42,86,53.6,93.81,13.39,53.6,53.6,13.39l7.82,7.82Zm42.41,0L82.62,42.41,93.81,53.6,82.62,64.78ZM103.83,86,136.22,53.6,103.83,21.21l7.82-7.82L151.86,53.6,111.65,93.81Z"/></g></g></svg>