<svg
	version="1.1"
	xmlns="http://www.w3.org/2000/svg"
	xmlns:xlink="http://www.w3.org/1999/xlink"
	x="0px"
	y="0px"
	viewBox="0 0 512 512"
	style="enable-background: new 0 0 512 512"
	xml:space="preserve"
	fill="currentColor"
>
	<g>
		<path
			d="M380.2,388.4h-2.9V234.5c0-4.4-3.5-7.9-7.9-7.9H337c-4.4,0-7.9,3.5-7.9,7.9v153.9h-16.6v-89.2c0-4.4-3.5-7.9-7.9-7.9h-32.4
	c-4.4,0-7.9,3.5-7.9,7.9v89.2h-16.6V277.6c0-4.4-3.5-7.9-7.9-7.9h-32.4c-4.4,0-7.9,3.5-7.9,7.9v110.8h-16.6v-56.8
	c0-4.4-3.5-7.9-7.9-7.9h-32.4c-4.4,0-7.9,3.5-7.9,7.9v56.8h-2.9c-4.4,0-7.9,3.5-7.9,7.9s3.5,7.9,7.9,7.9h10.8H175h32.3l0,0h32.4
	l0,0H272l0,0h32.7l0,0H337l0,0h32.4l0,0h10.8c4.4,0,7.9-3.5,7.9-7.9C388.1,391.9,384.5,388.4,380.2,388.4z M167.3,388.4h-16.6
	v-48.9h16.6V388.4z M232.1,388.4h-16.6V285.5h16.6V388.4z M296.8,388.4h-16.6v-81.3h16.6V388.4z M361.5,388.4h-16.6v-146h16.6
	V388.4z"
		/>
		<path
			d="M289.6,217.5c14,0,25.3-11.3,25.3-25.3c0-3.9-0.9-7.5-2.4-10.8l33.5-33.5c3.2,1.6,6.9,2.4,10.8,2.4
	c14,0,25.3-11.3,25.3-25.3s-11.3-25.3-25.3-25.3s-25.3,11.3-25.3,25.3c0,3.9,0.9,7.5,2.4,10.8l-33.5,33.5
	c-3.2-1.6-6.9-2.4-10.8-2.4c-7.3,0-13.7,3.1-18.3,8l-23.5-6.7c-0.8-13.2-11.8-23.7-25.2-23.7c-14,0-25.3,11.3-25.3,25.3
	c0,2.9,0.5,5.7,1.4,8.2l-31.8,25.3c-3.5-1.7-7.4-2.8-11.5-2.8c-14,0-25.3,11.3-25.3,25.3s11.3,25.3,25.3,25.3s25.3-11.3,25.3-25.3
	c0-3.6-0.7-6.9-2.1-10l30.7-24.5c3.8,2.4,8.4,3.8,13.3,3.8c8.4,0,15.9-4.2,20.5-10.6l21.3,6.1c0,0.6,0,1,0,1.6
	C264.3,206.1,275.6,217.5,289.6,217.5z M356.6,116.8c4.6,0,8.3,3.7,8.3,8.3s-3.7,8.3-8.3,8.3c-2.2,0-4.3-0.9-5.8-2.3l-0.1-0.1l0,0
	l-0.1-0.1c-1.5-1.5-2.3-3.6-2.3-5.8C348.3,120.5,352,116.8,356.6,116.8z M289.6,183.9c4.6,0,8.3,3.7,8.3,8.3s-3.7,8.3-8.3,8.3
	c-4.6,0-8.3-3.7-8.3-8.3S285,183.9,289.6,183.9z M155.3,234.1c-4.6,0-8.3-3.7-8.3-8.3s3.7-8.3,8.3-8.3c2.3,0,4.3,0.9,5.8,2.4
	l0.1,0.1c1.5,1.5,2.4,3.6,2.4,5.8C163.6,230.4,159.9,234.1,155.3,234.1z M222.4,178.1c-2.5,0-4.8-1.2-6.3-3L216,175l-0.1-0.1
	c-1-1.4-1.7-3.1-1.7-5.1c0-4.6,3.7-8.3,8.3-8.3s8.3,3.7,8.3,8.3S227,178.1,222.4,178.1z"
		/>
	</g>
</svg>
