<svg
	version="1.1"
	xmlns="http://www.w3.org/2000/svg"
	xmlns:xlink="http://www.w3.org/1999/xlink"
	x="0px"
	y="0px"
	viewBox="0 0 512 512"
	style="enable-background: new 0 0 512 512"
	xml:space="preserve"
	fill="currentColor"
>
	<g>
		<path
			d="M316.4,286.6c-9.6,0-17.4,7.6-17.4,17c0,9.4,7.8,17,17.4,17c9.6,0,17.4-7.6,17.4-17C333.8,294.2,326,286.6,316.4,286.6z"
		/>
		<path
			d="M324.3,212.6v-23.3c5-1.5,9.8-3.9,13.9-7.2c10.6-8.3,16.7-21,16.5-34.5c-0.5-23.5-19.9-42.2-43.5-41.7
	c-23.5,0.5-42.2,19.9-41.7,43.5c0.4,18.8,12.9,34.4,29.8,39.8v24.7c-24.4,4.4-45.4,18-59.2,37l-31.4-16.2
	c1.5-4.9,2.2-10.1,2.3-15.2c0.1-30.1-24.2-54.6-54.2-54.7c-30.1-0.1-54.6,24.2-54.7,54.2c-0.1,30.1,24.2,54.6,54.2,54.7
	c14,0.1,27.2-5.3,37.3-14.5l33.6,17.3c-2.7,8.5-4.1,17.4-4.1,26.7c0,9.8,1.6,19.3,4.6,28.2l-19.8,10c-5.3-4.5-11.7-7.5-18.7-8.5
	c-20.1-2.9-38.7,11.1-41.6,31.2c-2.9,20.1,11.1,38.7,31.2,41.6c20.1,2.9,38.8-11,41.7-31c0.8-5,0.4-10.1-0.9-15l17.4-8.8
	c16.4,26,45.9,43.3,79.6,43.3c51.6,0,93.4-40.7,93.4-91C409.9,255.6,372.3,216.5,324.3,212.6z M156.4,251.9
	c-18.1-0.1-32.6-14.8-32.5-32.8s14.8-32.6,32.8-32.5s32.6,14.8,32.5,32.8S174.4,252,156.4,251.9z M204.2,372.3
	c-1.6,11.2-12,18.9-23.2,17.2c-11.2-1.6-18.9-12-17.2-23.2c1.6-11.2,12-18.9,23.2-17.2c5.8,0.8,10.9,4.1,14,9
	C203.8,362.3,205,367.4,204.2,372.3z M293.4,163.1c-8.1-10.3-6.3-25.2,4-33.3c10.3-8,25.2-6.2,33.3,4.1s6.2,25.2-4.1,33.3
	c-4,3.1-8.9,4.9-14,5C305.2,172.3,298,168.9,293.4,163.1z M370.5,309.1c0,0.8-14.8,6.5-14.8,6.5l-2.7,6.5c0,0,6.7,14.1,6.1,14.6
	l-8.4,8.2c-0.6,0.6-15.2-5.7-15.2-5.7l-6.6,2.7c0,0-5.4,14.6-6.2,14.6h-11.9c-0.8,0-6.6-14.5-6.6-14.5l-6.6-2.7
	c0,0-14.3,6.5-14.9,6l-8.4-8.2c-0.6-0.5,5.8-14.9,5.8-14.9l-2.7-6.5c0,0-14.9-5.3-14.9-6.1v-11.7c0-0.8,14.9-6.5,14.9-6.5l2.7-6.5
	c0,0-6.7-14.1-6.1-14.6l8.4-8.2c0.6-0.6,15.2,5.7,15.2,5.7l6.6-2.7c0,0,5.4-14.6,6.2-14.6h11.9c0.8,0,6.7,14.5,6.7,14.5l6.6,2.7
	c0,0,14.3-6.5,14.9-6l8.4,8.2c0.6,0.6-5.8,14.9-5.8,14.9l2.7,6.5c0,0,14.9,5.3,14.9,6.1V309.1z"
		/>
	</g>
</svg>
