<?xml version="1.0" encoding="UTF-8" standalone="no"?>
<!-- Created with Inkscape (http://www.inkscape.org/) -->

<svg
   xmlns:dc="http://purl.org/dc/elements/1.1/"
   xmlns:cc="http://creativecommons.org/ns#"
   xmlns:rdf="http://www.w3.org/1999/02/22-rdf-syntax-ns#"
   xmlns:svg="http://www.w3.org/2000/svg"
   xmlns="http://www.w3.org/2000/svg"
   xmlns:sodipodi="http://sodipodi.sourceforge.net/DTD/sodipodi-0.dtd"
   xmlns:inkscape="http://www.inkscape.org/namespaces/inkscape"
   width="164.80299mm"
   height="158.3226mm"
   viewBox="0 0 164.80299 158.3226"
   version="1.1"
   id="svg1154"
   inkscape:version="0.92.3 (2405546, 2018-03-11)"
   sodipodi:docname="bioconda-logo.svg">
  <defs
     id="defs1148" />
  <sodipodi:namedview
     id="base"
     pagecolor="#ffffff"
     bordercolor="#666666"
     borderopacity="1.0"
     inkscape:pageopacity="0.0"
     inkscape:pageshadow="2"
     inkscape:zoom="0.35"
     inkscape:cx="-402.84696"
     inkscape:cy="147.76373"
     inkscape:document-units="mm"
     inkscape:current-layer="layer1"
     showgrid="false"
     inkscape:window-width="1366"
     inkscape:window-height="704"
     inkscape:window-x="0"
     inkscape:window-y="27"
     inkscape:window-maximized="1" />
  <metadata
     id="metadata1151">
    <rdf:RDF>
      <cc:Work
         rdf:about="">
        <dc:format>image/svg+xml</dc:format>
        <dc:type
           rdf:resource="http://purl.org/dc/dcmitype/StillImage" />
        <dc:title />
      </cc:Work>
    </rdf:RDF>
  </metadata>
  <g
     inkscape:label="Layer 1"
     inkscape:groupmode="layer"
     id="layer1"
     transform="translate(-23.431829,-0.88037046)">
    <path
       style="fill:#fff;fill-opacity:100%;stroke-width:0.26458335"
       d="m 95.306687,131.75052 c -3.289759,-0.44705 -4.607033,-0.74131 -7.885765,-1.76155 -2.12253,-0.66048 -2.5619,-0.88481 -2.41696,-1.23403 0.0974,-0.23475 1.052,-3.04619 2.12127,-6.24765 1.06927,-3.20146 2.37657,-7.03195 2.90512,-8.5122 l 0.961002,-2.69137 1.099341,0.39357 c 0.604627,0.21647 2.170898,0.61897 3.480582,0.89445 10.771423,2.26563 21.938583,-0.89962 29.862963,-8.46446 9.89013,-9.441398 13.00127,-23.597888 7.99088,-36.360508 -0.89467,-2.27893 -3.23178,-6.29844 -4.86236,-8.36261 -1.48778,-1.8834 -5.20858,-5.4172 -6.79927,-6.45756 -0.79953,-0.52293 -2.11381,-1.38257 -2.92062,-1.91032 -1.88821,-1.23511 -5.93866,-2.82146 -9.12464,-3.57363 -2.05833,-0.48595 -3.31274,-0.59457 -7.03083,-0.60884 l -4.525508,-0.0174 0.664867,-1.05833 c 0.365667,-0.58208 1.273401,-1.89177 2.017181,-2.91042 2.95466,-4.04655 2.9525,-3.94308 0.14643,-7.01676 -2.311571,-2.53202 -4.822726,-4.66816 -7.216334,-6.13863 l -1.532651,-0.94156 1.797241,-0.3145 c 4.796043,-0.83927 12.258314,-0.78415 17.712764,0.13083 5.41681,0.90867 13.47074,3.99719 18.14656,6.95886 10.76208,6.81669 18.09499,16.10733 22.04151,27.92609 1.36296,4.08168 1.87544,6.33964 2.37956,10.48422 0.65997,5.42579 0.36289,12.06414 -0.77761,17.37615 -0.96474,4.49342 -3.92785,12.084338 -5.91923,15.163958 -2.95463,4.56925 -3.93286,5.92325 -5.87356,8.12973 -8.15975,9.27726 -19.89995,15.50789 -32.30373,17.14386 -3.65185,0.48165 -10.520231,0.47221 -14.138203,-0.0194 z M 82.562932,128.341 c -0.75168,-0.34354 -1.5647,-0.92684 -1.806717,-1.2962 -0.427654,-0.65269 -0.390051,-0.79668 1.336587,-5.11809 0.97714,-2.44557 1.86739,-4.56556 1.97834,-4.71109 0.11094,-0.14552 0.76437,-1.69333 1.45207,-3.43958 0.68769,-1.74625 1.38437,-3.26247 1.54816,-3.36939 0.4829,-0.31519 1.10574,-0.23431 2.37044,0.3078 l 1.190462,0.51029 -0.644292,1.93711 c -3.56837,10.72857 -5.36463,15.70234 -5.68791,15.74961 -0.20375,0.0298 -0.98547,-0.22691 -1.73714,-0.57046 z m -4.704293,-2.16239 c -3.832013,-2.03994 -9.770068,-6.48501 -12.369747,-9.25966 l -0.71363,-0.76166 3.227172,-0.0355 c 2.279025,-0.025 3.848714,-0.19381 5.342691,-0.57441 1.163535,-0.29642 2.148873,-0.5056 2.189638,-0.46483 0.04077,0.0408 0.254947,1.19214 0.475957,2.55861 0.616378,3.81097 1.66017,6.89644 2.921627,8.6364 0.541586,0.74703 0.510085,0.74413 -1.073708,-0.099 z m 1.264375,-1.76055 c -0.449115,-0.91075 -0.966894,-2.32762 -1.15062,-3.1486 l -0.334047,-1.49268 1.642089,-2.6035 c 0.903149,-1.43192 1.978886,-3.15366 2.390526,-3.82609 0.65116,-1.06368 0.99297,-1.31854 2.62967,-1.96068 1.03468,-0.40594 1.92679,-0.68921 1.98248,-0.62948 0.11019,0.11819 -1.38147,3.95964 -2.1997,5.66484 -0.2793,0.58209 -1.24443,2.90381 -2.14472,5.15938 -0.90028,2.25557 -1.718388,4.18917 -1.817998,4.29689 -0.09961,0.10771 -0.548566,-0.54932 -0.99768,-1.46008 z m -1.815521,-6.97522 c -0.348856,-3.36555 -0.509,-3.02295 1.859614,-3.9784 1.164166,-0.4696 2.210985,-0.85949 2.326255,-0.86642 0.29417,-0.0177 -2.914882,5.414 -3.800223,6.43232 -0.108648,0.12497 -0.282189,-0.58941 -0.385646,-1.5875 z m -11.604147,-3.0197 c -0.711109,-0.11918 -1.38845,-0.31354 -1.505201,-0.4319 -0.116752,-0.11836 1.358034,-1.6668 3.277301,-3.44098 1.919267,-1.77419 4.608115,-4.27115 5.975218,-5.54881 l 2.485642,-2.32302 -0.195857,2.76258 c -0.226669,3.19717 -0.02571,2.86241 -4.019578,6.69582 -2.94232,2.82411 -2.901447,2.80858 -6.017525,2.28631 z m 4.600218,-0.22866 c 0,-0.13365 1.101328,-1.26479 2.447396,-2.51362 l 2.447396,-2.27061 0.164436,1.91831 c 0.09044,1.05507 0.09044,1.9903 0,2.07827 -0.227917,0.22171 -3.735884,1.03221 -4.463915,1.03136 -0.327422,-2.6e-4 -0.595313,-0.11005 -0.595313,-0.24371 z m -9.112661,-2.11813 c -0.663349,-0.86208 -1.202348,-1.66575 -1.197775,-1.78594 0.01111,-0.29186 1.650685,-1.43963 12.267597,-8.58778 3.386296,-2.279918 3.587234,-2.305878 3.595038,-0.46436 0.0035,0.81663 -0.198426,1.14255 -1.385011,2.2359 -0.763984,0.70396 -2.996406,2.78336 -4.960938,4.62089 -5.53198,5.17434 -5.974727,5.54869 -6.562562,5.54869 -0.359639,0 -0.968073,-0.54298 -1.756349,-1.5674 z m 15.732407,-0.88 c 0.0028,-0.9095 0.180242,-3.20146 0.394232,-5.09323 0.213987,-1.89177 0.39026,-3.52416 0.391713,-3.62754 0.0013,-0.10338 0.508659,0.31295 1.127122,0.92517 2.069965,2.04908 3.753555,3.38784 5.985245,4.75934 l 2.21492,1.36121 -1.55347,0.50454 c -0.8544,0.2775 -3.01007,1.02645 -4.79037,1.66435 -1.780299,0.63789 -3.357878,1.15981 -3.505729,1.15981 -0.153919,0 -0.266618,-0.70683 -0.263663,-1.65365 z m -18.342075,-2.9395 c -0.898549,-1.53605 -1.281334,-3.07977 -0.763669,-3.07977 0.117701,0 0.921373,-0.43241 1.785938,-0.96092 0.864564,-0.5285 2.822091,-1.67367 4.35006,-2.54481 1.527969,-0.87114 3.936377,-2.284188 5.352019,-3.140118 1.415641,-0.85593 2.762922,-1.55623 2.993957,-1.55623 0.891094,0 2.766525,1.3668 2.766525,2.01622 0,0.18507 -1.220391,1.152708 -2.71198,2.150318 -6.783052,4.53665 -12.006911,8.08968 -12.383787,8.42289 -0.360936,0.31911 -0.531299,0.15874 -1.389063,-1.30758 z m -0.971945,-3.52121 c 0.02116,-0.81284 1.119352,-5.044978 1.433557,-5.524518 0.215086,-0.32826 1.296417,-0.96365 2.449463,-1.43931 1.135408,-0.46838 2.854841,-1.19497 3.820961,-1.61464 l 1.756583,-0.76304 2.058437,0.52646 c 1.989109,0.50873 2.444722,0.68991 2.211558,0.87943 -0.301606,0.24517 -6.240008,3.722738 -8.444619,4.945228 -1.382448,0.76659 -2.692135,1.53507 -2.910416,1.70773 -0.828173,0.65507 -2.381012,1.49353 -2.375524,1.28266 z m -2.730411,-3.29967 c -1.506157,-3.558768 -2.882644,-8.043688 -3.744474,-12.200398 -0.109636,-0.52879 -0.254409,-0.60147 2.580402,1.29536 1.135402,0.75971 2.885655,1.69513 3.88945,2.07871 l 1.825082,0.6974 -1.32317,2.47639 c -0.848144,1.58735 -1.537117,3.34859 -1.919119,4.905888 l -0.59595,2.42949 z m 5.365594,-4.923988 c 1.423934,-2.6423 1.176676,-2.52189 3.732263,-1.8176 l 2.225786,0.61339 -1.058333,0.4544 c -2.484016,1.06653 -5.440954,2.27116 -5.574864,2.27116 -0.07959,0 0.224227,-0.68461 0.675148,-1.52135 z m 7.737035,-2.96433 c -2.368537,-0.69347 -4.38392,-1.33835 -4.478628,-1.43306 -0.09471,-0.0947 0.124891,-0.49838 0.487998,-0.89704 0.363107,-0.39867 1.716781,-1.91547 3.008166,-3.37068 1.291384,-1.45521 2.444132,-2.68552 2.561663,-2.73403 0.11753,-0.0485 0.213991,0.18962 0.214358,0.52917 0.0011,0.97258 1.25325,5.396 2.093957,7.39695 0.420431,1.00065 0.686682,1.80816 0.591669,1.79447 -0.09501,-0.0137 -2.110646,-0.5923 -4.479183,-1.28578 z m -9.319611,-2.92003 c -1.915718,-0.83856 -1.968247,-0.78547 1.322917,-1.33719 0.945885,-0.15857 2.002564,-0.35652 2.348174,-0.43989 0.582283,-0.14047 0.553167,-0.0529 -0.396875,1.19324 -0.563891,0.73966 -1.14432,1.34299 -1.289841,1.34073 -0.145521,-0.002 -1.03849,-0.34285 -1.984375,-0.75689 z m -3.464259,-1.79031 c -0.377373,-0.2537 -1.376198,-1.07993 -2.21961,-1.83606 -1.438708,-1.28982 -1.494412,-1.38315 -0.901367,-1.51007 0.800351,-0.17129 14.631289,-1.46041 14.719742,-1.37196 0.03611,0.0361 -0.691267,0.94913 -1.616386,2.02894 l -1.682036,1.96329 -3.542521,0.6004 c -4.1952,0.71102 -3.898462,0.7032 -4.757822,0.12546 z m -4.472868,-4.29703 c -0.22475,-0.41995 -0.395081,-3.38952 -0.198811,-3.46609 0.206916,-0.0807 18.073546,-0.6979 18.149137,-0.62694 0.225406,0.21162 -0.293573,1.65533 -0.826574,2.29939 -0.582764,0.7042 -0.648366,0.71572 -7.863708,1.38103 -4.001824,0.369 -7.662827,0.72419 -8.135564,0.7893 -0.647903,0.0892 -0.924756,-0.004 -1.12448,-0.37669 z m -0.256595,-6.21841 c 0.01364,-3.41081 -0.691796,-3.24349 8.992652,-2.13293 4.53988,0.52061 8.357188,1.01014 8.482906,1.08783 0.301695,0.18646 0.899084,2.19717 0.709201,2.38705 -0.08135,0.0814 -4.208108,0.28894 -9.170569,0.46131 l -9.022657,0.31341 z m 9.144401,-2.68813 c -4.206553,-0.48321 -7.707195,-0.93748 -7.779202,-1.00949 -0.156727,-0.15673 3.420438,-3.56218 3.751852,-3.57176 0.126842,-0.004 1.828164,0.35053 3.780716,0.78709 1.952552,0.43656 3.786199,0.79375 4.07477,0.79375 0.766172,0 4.345275,3.48006 3.915153,3.80681 -0.05226,0.0397 -3.536735,-0.32318 -7.743289,-0.8064 z m 9.921802,-1.02375 c -0.01351,-0.14976 -0.420102,-0.68555 -0.903538,-1.19063 -0.83215,-0.8694 -3.893122,-4.39628 -4.615848,-5.31841 -0.29667,-0.37853 -0.12845,-0.48126 1.455208,-0.88872 3.577345,-0.9204 6.950003,-1.64134 6.948813,-1.48538 -6.61e-4,0.0878 -0.368434,1.10368 -0.817254,2.25755 -0.44882,1.15387 -1.092062,3.17793 -1.429427,4.49791 -0.337364,1.31999 -0.624444,2.27744 -0.637954,2.12768 z m -9.61571,-3.25971 c -1.855391,-0.36989 -3.373438,-0.75068 -3.373438,-0.8462 0,-0.1946 3.466597,-1.8395 3.876722,-1.8395 0.144453,0 0.946318,0.7739 1.781921,1.71979 0.835603,0.94588 1.422293,1.70149 1.303756,1.67911 -0.118538,-0.0224 -1.73357,-0.34331 -3.588961,-0.7132 z m -8.661194,-0.88415 c 0.01244,-1.10162 2.038468,-7.83948 3.226808,-10.73124 0.576333,-1.40247 1.002615,-1.78992 1.002615,-0.91127 0,0.96124 1.128909,3.78269 2.138524,5.34477 0.570062,0.88199 1.036193,1.68891 1.035847,1.79314 -3.44e-4,0.10423 -0.684163,0.54669 -1.519595,0.98326 -0.835431,0.43656 -2.364495,1.40039 -3.39792,2.14183 -2.469586,1.77185 -2.490842,1.78364 -2.486279,1.37951 z m 9.659247,-6.39081 c -0.353905,-0.59348 -0.593825,-1.12869 -0.533156,-1.18936 0.154308,-0.1543 3.569999,1.31951 3.569999,1.5404 0,0.0992 -0.538511,0.30354 -1.19669,0.45416 l -1.19669,0.27384 z m 1.581634,-1.18773 -2.910416,-1.25881 -0.570282,-1.59351 c -0.59079,-1.65082 -1.081709,-4.59986 -0.765727,-4.59986 0.247934,0 1.306194,0.56791 1.4683,0.78796 0.07276,0.0988 1.676754,1.11247 3.564431,2.25266 3.901585,2.35664 7.018903,4.34913 7.018903,4.48627 0,0.0511 -0.922734,0.2917 -2.050521,0.53466 -1.127786,0.24296 -2.229114,0.48848 -2.447396,0.54559 -0.218281,0.0571 -1.706562,-0.46262 -3.307292,-1.15496 z m 7.84098,-0.87254 c -1.22778,-0.83718 -5.019879,-3.17894 -7.576396,-4.67871 -0.873125,-0.51222 -1.647032,-1.00578 -1.719792,-1.0968 -0.07276,-0.091 -0.697626,-0.51754 -1.388589,-0.94783 -0.748965,-0.46641 -1.256489,-0.97623 -1.256771,-1.26246 -4.98e-4,-0.50529 1.038073,-3.09176 1.241468,-3.09176 0.178406,0 3.225614,2.17825 7.224726,5.16448 1.964531,1.46696 4.377369,3.25109 5.36186,3.96474 0.984493,0.71365 1.753034,1.40839 1.707871,1.54388 -0.04516,0.1355 -0.616629,0.45631 -1.269922,0.71292 l -1.187806,0.46658 z m 1.135815,-3.39481 c -6.82604,-5.00384 -9.820054,-7.21859 -10.561857,-7.81288 l -0.791312,-0.63396 0.756272,-0.78938 c 0.41595,-0.43416 1.340632,-1.04076 2.054848,-1.34801 1.086133,-0.46724 1.37519,-0.50285 1.766894,-0.21764 1.323417,0.96362 10.95676,9.58617 11.085901,9.92271 0.177217,0.46182 -0.724352,2.76724 -1.135746,2.90424 -0.155993,0.052 -1.584743,-0.85934 -3.175,-2.02508 z m 2.958495,-3.26514 c -0.711633,-0.61067 -2.440654,-2.12235 -3.842268,-3.35927 -1.401614,-1.23693 -3.184292,-2.78474 -3.961506,-3.43959 l -1.413118,-1.19062 1.022051,-0.17861 c 0.562129,-0.0982 1.880397,-0.11094 2.929486,-0.0282 l 1.907435,0.15037 1.816852,1.88553 c 0.999269,1.03704 2.006164,2.18084 2.237544,2.54178 0.357973,0.55841 0.976848,4.78424 0.694633,4.74312 -0.05348,-0.008 -0.679476,-0.5138 -1.391109,-1.12448 z m 4.60117,-0.0105 c 0,-0.66336 -0.111205,-1.77751 -0.247118,-2.4759 -0.394891,-2.0291 -0.502561,-3.78333 -0.232207,-3.78333 0.327375,0 3.787022,1.69372 5.004992,2.45026 l 0.95379,0.59245 -1.17691,0.76442 c -0.6473,0.42043 -1.88018,1.41552 -2.739733,2.21131 l -1.562814,1.44689 z m -5.260557,-6.16302 c -0.783254,-0.79049 -1.377053,-1.4843 -1.319553,-1.5418 0.0575,-0.0575 0.653826,0.0126 1.32517,0.15579 1.210726,0.25822 1.221768,0.27041 1.361661,1.50267 0.07757,0.68329 0.122088,1.25994 0.09893,1.28146 -0.02316,0.0215 -0.682952,-0.60763 -1.466206,-1.39812 z m 13.721284,-0.16236 c -0.14255,-0.32742 -0.98493,-2.38125 -1.87196,-4.56406 -0.88702,-2.18281 -2.13706,-5.24732 -2.77785,-6.81001 -0.6408,-1.56269 -1.16508,-3.01514 -1.16508,-3.22768 0,-0.46974 1.40828,-1.57784 2.68126,-2.10972 l 0.93299,-0.38983 1.25675,4.28424 c 0.69121,2.35634 1.84254,6.11278 2.5585,8.34765 0.71596,2.23488 1.30175,4.15799 1.30175,4.2736 0,0.25341 -1.46936,0.79113 -2.16182,0.79113 -0.27245,0 -0.61199,-0.2679 -0.75454,-0.59532 z m -3.26239,-1.13262 -2.07771,-1.11837 -1.460351,-2.74403 c -0.803193,-1.50922 -1.640829,-2.95017 -1.861412,-3.2021 -0.270159,-0.30855 -0.317905,-0.56762 -0.146289,-0.79375 0.140129,-0.18463 0.406305,-0.87147 0.591506,-1.52632 0.346141,-1.2239 1.323872,-3.175 1.59105,-3.175 0.08261,0 0.620166,1.2204 1.194576,2.71198 0.57441,1.49159 1.4296,3.55881 1.90043,4.59383 1.07622,2.36584 2.56049,6.19975 2.4382,6.29798 -0.0508,0.0408 -1.02726,-0.42912 -2.17,-1.04422 z m 6.444762,-1.24655 c -0.303262,-1.05617 -0.832822,-2.75374 -1.176802,-3.77239 -0.90861,-2.6907 -3.32255,-10.78818 -3.32255,-11.14542 0,-0.18286 3.87127,-0.0213 4.05955,0.16945 0.0695,0.0704 0.875219,3.55378 1.790436,7.74077 1.646338,7.5317 1.658558,7.61795 1.148171,8.10382 -0.283717,0.27011 -0.837964,0.56602 -1.231651,0.65759 -0.694257,0.16147 -0.732357,0.10873 -1.267154,-1.75382 z m -10.945739,-0.8636 c -0.416817,-0.21739 -0.922833,-0.39525 -1.12448,-0.39525 -0.276047,0 -0.36663,-0.43891 -0.36663,-1.77649 0,-1.51725 0.05297,-1.71995 0.362979,-1.38906 0.569206,0.60754 2.353888,3.95949 2.107189,3.95767 -0.121666,-9e-4 -0.562242,-0.17949 -0.979058,-0.39687 z m 14.526558,0.0678 c -0.347897,-1.09254 -2.812062,-12.96005 -2.737482,-13.18379 0.111257,-0.33378 3.805676,2.22284 4.140916,2.8656 0.132657,0.25435 0.444937,1.90689 0.693954,3.6723 l 0.45277,3.20984 -1.123384,1.88339 c -0.617867,1.03586 -1.167954,1.88339 -1.222424,1.88339 -0.0545,0 -0.14643,-0.14883 -0.20435,-0.33073 z m -22.632252,-1.83171 c -0.800365,-0.13667 -2.670966,-0.21205 -4.156893,-0.16751 l -2.701684,0.081 0.981892,-1.01677 c 2.379916,-2.46444 6.876553,-5.89546 11.095227,-8.46586 0.178061,-0.1085 -0.02442,0.62093 -0.449969,1.62094 -0.851491,2.00098 -1.323919,4.39953 -1.326991,6.73721 l -0.002,1.52136 -0.992188,-0.0309 c -0.545703,-0.017 -1.647031,-0.14275 -2.447396,-0.27942 z m 25.810414,-3.45996 c -0.0709,-0.32743 -0.235767,-1.36079 -0.366467,-2.29637 l -0.23765,-1.70106 1.163374,1.23132 1.163384,1.23131 -0.704817,1.06505 c -0.387647,0.58578 -0.746254,1.06506 -0.796904,1.06506 -0.0507,0 -0.15007,-0.26789 -0.22092,-0.59531 z"
       id="path1731"
       inkscape:connector-curvature="0" />
    <g
       id="g828"
       transform="matrix(1.5099099,0,0,1.5099099,-28.952152,-143.72133)"
       style="fill:#fff;stroke:none">
      <ellipse
         style="fill:none;fill-opacity:100%;stroke:none;stroke-width:0.13248219;stroke-linecap:round;stroke-linejoin:round;stroke-miterlimit:4;stroke-dasharray:none;stroke-opacity:100%"
         id="path992"
         cx="89.267235"
         cy="148.19626"
         rx="54.507545"
         ry="52.361588" />
    </g>
  </g>
</svg>
