<?xml version="1.0" encoding="UTF-8" standalone="no"?>
<!-- Created with Inkscape (http://www.inkscape.org/) -->

<svg
   xmlns:dc="http://purl.org/dc/elements/1.1/"
   xmlns:cc="http://creativecommons.org/ns#"
   xmlns:rdf="http://www.w3.org/1999/02/22-rdf-syntax-ns#"
   xmlns:svg="http://www.w3.org/2000/svg"
   xmlns="http://www.w3.org/2000/svg"
   xmlns:sodipodi="http://sodipodi.sourceforge.net/DTD/sodipodi-0.dtd"
   xmlns:inkscape="http://www.inkscape.org/namespaces/inkscape"
   width="164.80299mm"
   height="158.3226mm"
   viewBox="0 0 164.803 158.32261"
   version="1.1"
   id="svg8"
   sodipodi:docname="elixir-logo-black.svg"
   inkscape:version="0.92.3 (2405546, 2018-03-11)">
  <defs
     id="defs2" />
  <sodipodi:namedview
     id="base"
     pagecolor="#ffffff"
     bordercolor="#666666"
     borderopacity="1.0"
     inkscape:pageopacity="0.0"
     inkscape:pageshadow="2"
     inkscape:zoom="0.49497475"
     inkscape:cx="-196.86596"
     inkscape:cy="230.36753"
     inkscape:document-units="mm"
     inkscape:current-layer="g828"
     showgrid="false"
     inkscape:window-width="2560"
     inkscape:window-height="1376"
     inkscape:window-x="2560"
     inkscape:window-y="27"
     inkscape:window-maximized="1" />
  <metadata
     id="metadata5">
    <rdf:RDF>
      <cc:Work
         rdf:about="">
        <dc:format>image/svg+xml</dc:format>
        <dc:type
           rdf:resource="http://purl.org/dc/dcmitype/StillImage" />
        <dc:title></dc:title>
      </cc:Work>
    </rdf:RDF>
  </metadata>
  <g
     inkscape:label="Layer 1"
     inkscape:groupmode="layer"
     id="layer1"
     transform="translate(-20.764521,-25.90615)">
    <g
       id="g828"
       transform="matrix(1.5099099,0,0,1.5099099,-31.61946,-118.69555)"
       style="fill:#fff">
      <path
         style="fill:#000;stroke-width:1.45704058;stroke-miterlimit:4;stroke-dasharray:none;stroke:#000;stroke-opacity:100%;fill-opacity:100%"
         d="m 66.615879,180.33896 c -0.108742,-0.0113 -0.134911,-0.0249 -0.09512,-0.0501 0.04281,-0.0271 0.03649,-0.0349 -0.02875,-0.0353 -0.194145,-0.001 -0.743334,-0.21796 -1.454472,-0.57364 -3.19444,-1.59773 -4.971799,-3.98796 -5.387902,-7.24577 -0.08307,-0.65035 -0.08352,-2.04567 -9.06e-4,-2.77749 0.533254,-4.72373 3.371167,-10.45552 8.154305,-16.46943 2.366,-2.9748 5.355301,-6.11701 8.03726,-8.44836 0.282504,-0.24558 0.535868,-0.47765 0.563035,-0.51572 0.0542,-0.076 -0.08234,-0.4595 -0.799651,-2.24642 -3.445609,-8.58351 -7.745693,-15.97362 -12.151651,-20.88376 -0.909425,-1.01349 -0.957722,-1.07674 -1.023403,-1.34033 -0.03549,-0.1424 0.06718,-0.23595 0.223301,-0.20347 0.237444,0.0495 0.473334,0.23151 1.102184,0.85093 5.510927,5.42831 10.56336,12.87655 14.391083,21.21518 0.192119,0.41853 0.373535,0.76582 0.403143,0.77176 0.02961,0.006 0.292771,-0.18868 0.584799,-0.43249 2.146835,-1.79231 4.891022,-3.806 8.144531,-5.97649 l 1.449824,-0.96719 -0.01843,-0.44744 c -0.01449,-0.35178 -0.0044,-0.49583 0.04694,-0.67382 0.20157,-0.69817 0.735464,-1.23753 1.42572,-1.44028 0.123321,-0.0362 0.348012,-0.0607 0.557199,-0.0607 0.42419,0 0.725731,0.0839 1.089031,0.30303 0.140028,0.0845 0.271534,0.15355 0.292219,0.15355 0.03082,0 1.619363,-0.95206 2.534787,-1.5192 0.261336,-0.16191 0.261777,-0.16395 0.11809,-0.55946 -0.47576,-1.30957 0.105456,-2.80465 1.341888,-3.45156 0.45739,-0.23932 0.757996,-0.31008 1.317511,-0.31011 0.578286,-5e-5 0.824019,0.0549 1.312639,0.29346 0.275947,0.13472 0.383661,0.21861 0.733946,0.57162 l 0.410545,0.41371 1.276456,-0.71169 c 0.70205,-0.39143 1.28571,-0.73583 1.29704,-0.76534 0.0113,-0.0295 -0.0321,-0.16155 -0.0963,-0.29342 -0.28553,-0.58562 -0.36648,-1.00276 -0.33919,-1.74804 0.023,-0.63018 0.0964,-0.93288 0.35165,-1.451 0.46268,-0.93928 1.33511,-1.64377 2.35648,-1.90286 0.52546,-0.1333 1.26007,-0.13496 1.77621,-0.005 0.95852,0.24315 1.78196,0.86158 2.24895,1.68904 0.0638,0.11299 0.14196,0.21542 0.17375,0.22762 0.0655,0.0252 3.26581,-1.58107 3.29526,-1.65383 0.0102,-0.0253 -0.0387,-0.17085 -0.10873,-0.3234 -0.17036,-0.37089 -0.31397,-0.8383 -0.38759,-1.26145 -0.0828,-0.47583 -0.0536,-1.47428 0.0557,-1.90757 0.47411,-1.87913 1.82614,-3.22977 3.67788,-3.67414 0.16741,-0.0402 0.35575,-0.0744 0.41853,-0.076 0.0957,-0.002 0.10195,-0.008 0.038,-0.0329 -0.12325,-0.0484 0.61244,-0.089 1.01325,-0.0558 0.19606,0.0163 0.32222,0.0374 0.28037,0.0471 -0.0419,0.009 0.0536,0.04 0.21224,0.0674 1.99335,0.34463 3.65166,2.00603 3.96033,3.96766 0.0279,0.17729 0.0589,0.28218 0.0723,0.24419 0.0399,-0.11378 0.0765,0.60174 0.0491,0.95877 -0.0143,0.18638 -0.0365,0.30907 -0.0492,0.27264 -0.0131,-0.0375 -0.0445,0.0689 -0.0721,0.24457 -0.27305,1.73528 -1.61889,3.27148 -3.34006,3.8125 -0.91399,0.28731 -2.04531,0.289 -2.94615,0.005 -0.92477,-0.29214 -1.77652,-0.87424 -2.35635,-1.61037 -0.13349,-0.16949 -0.26387,-0.30815 -0.28971,-0.30815 -0.0561,0 -3.20773,1.73415 -3.28135,1.80552 -0.0427,0.0413 -0.0404,0.1015 0.0135,0.36604 0.0865,0.42427 0.0626,1.26637 -0.047,1.65227 -0.18786,0.66156 -0.50053,1.18729 -0.98687,1.65937 -0.47588,0.46191 -0.98642,0.75265 -1.63396,0.93049 -0.30532,0.0839 -1.12108,0.11482 -1.48364,0.0563 -0.66976,-0.10805 -1.32049,-0.42223 -1.82976,-0.88343 -0.11167,-0.10105 -0.22507,-0.18379 -0.25212,-0.18379 -0.0439,0 -1.61653,0.93765 -2.40411,1.43344 l -0.30437,0.19161 0.0122,0.58574 c 0.0144,0.69011 -0.0465,0.993 -0.295898,1.47176 -0.483133,0.92739 -1.33246,1.4689 -2.383604,1.51973 -0.647064,0.0313 -1.23283,-0.13107 -1.7455,-0.48379 -0.09687,-0.0666 -0.200084,-0.112 -0.229327,-0.10083 -0.09925,0.038 -2.396685,1.59278 -2.686271,1.81781 l -0.137355,0.1067 -9.82e-4,0.41005 c -7.23e-4,0.30974 -0.02055,0.47121 -0.08084,0.6601 -0.295584,0.92505 -1.252241,1.53921 -2.200342,1.41257 -0.171623,-0.0229 -0.421228,-0.0854 -0.554676,-0.13875 -0.13345,-0.0534 -0.260758,-0.0971 -0.282906,-0.0971 -0.04637,0 -1.636374,1.19587 -2.673413,2.01071 -0.985997,0.77474 -2.362639,1.90242 -3.215804,2.63425 -1.99503,1.71127 -4.204283,3.77805 -4.204283,3.93313 0,0.0475 0.05276,0.21288 0.117234,0.36747 0.514033,1.23245 1.397381,3.62494 1.937032,5.24635 1.513389,4.54702 2.543899,9.06661 2.650319,11.62367 0.0368,0.88408 -0.08807,1.57934 -0.427057,2.378 -0.737019,1.73641 -2.068464,2.62216 -3.522735,2.34354 -0.569903,-0.10918 -0.792841,-0.26992 -0.792841,-0.57159 0,-0.23696 0.120524,-0.38684 0.495242,-0.61587 0.564493,-0.34503 0.937266,-0.84551 1.107598,-1.48708 0.511933,-1.92822 -0.86682,-8.73499 -3.162118,-15.61112 -0.342694,-1.02661 -0.493374,-1.42994 -0.537232,-1.43802 -0.135652,-0.0249 -3.74635,4.13236 -3.717867,4.28073 0.01207,0.0629 0.09582,0.0694 1.115953,0.0869 1.045006,0.0181 1.111144,0.0234 1.259823,0.10298 0.316623,0.16937 0.470873,0.44203 0.470873,0.83235 0,0.39702 -0.203195,0.69845 -0.589741,0.87486 -0.04185,0.0191 -0.932172,0.0434 -1.978486,0.054 l -1.90239,0.0192 -0.375227,0.49463 c -0.949691,1.2519 -2.154933,2.97113 -2.154933,3.07394 0,0.0313 0.02709,0.0673 0.06018,0.0799 0.0331,0.0128 1.439359,0.0231 3.125019,0.0231 2.215866,0 3.105659,0.0122 3.212216,0.0441 0.19692,0.0591 0.445319,0.27738 0.531615,0.46737 0.09681,0.21314 0.09631,0.62338 -9.89e-4,0.81216 -0.04001,0.0777 -0.129907,0.19594 -0.199751,0.26288 -0.264497,0.25355 -0.02616,0.23969 -4.130298,0.24026 -2.046217,3.7e-4 -3.759576,0.0113 -3.807465,0.0238 -0.139528,0.0374 -0.972284,1.48106 -1.724675,2.98995 -0.318766,0.63928 -0.384,0.79771 -0.344652,0.83706 0.03864,0.0386 1.031575,0.0524 4.869198,0.0675 4.403901,0.0174 4.830534,0.0245 4.934808,0.0823 0.14801,0.0821 0.335548,0.28268 0.419021,0.44811 0.08596,0.17034 0.08562,0.54076 -6.86e-4,0.75427 -0.07975,0.19726 -0.341269,0.43604 -0.544136,0.49682 -0.111293,0.0333 -1.467702,0.0447 -5.323049,0.0447 -4.880028,0 -5.176972,0.003 -5.231301,0.0666 -0.03168,0.0366 -0.136639,0.28916 -0.233244,0.56121 -0.599164,1.68727 -0.950537,3.22455 -1.093962,4.78613 -0.05692,0.6197 -0.0242,2.18412 0.05691,2.72085 0.393675,2.60541 1.661582,4.75296 3.541907,5.99915 0.410218,0.27188 0.482472,0.35564 0.504502,0.58491 0.02329,0.24244 -0.04271,0.43514 -0.214223,0.62537 -0.138658,0.15379 -0.528625,0.36897 -0.670757,0.37011 -0.05558,4.5e-4 -0.06256,0.009 -0.02587,0.0325 0.03236,0.0205 -0.0218,0.0405 -0.152192,0.0561 -0.204779,0.0246 -0.23527,0.0244 -0.504626,-0.003 z"
         id="path832"
         inkscape:connector-curvature="0"
         sodipodi:nodetypes="ccccscsccssccscccsccccscscccccccsccccccccccccscccccccccccccscccccccscccccccccccccsssscscccscsccccssccccscsccscccccsccccsccsccccccccc" />
      <ellipse
         style="fill:none;fill-opacity:100%;stroke:none;stroke-width:0.13248219;stroke-linecap:round;stroke-linejoin:round;stroke-miterlimit:4;stroke-dasharray:none;stroke-opacity:100%"
         id="path992"
         cx="89.267235"
         cy="148.19626"
         rx="54.507545"
         ry="52.361588" />
    </g>
  </g>
</svg>
