<?xml version="1.0" encoding="UTF-8" standalone="no"?>
<!-- Created with Inkscape (http://www.inkscape.org/) -->

<svg
   xmlns:dc="http://purl.org/dc/elements/1.1/"
   xmlns:cc="http://creativecommons.org/ns#"
   xmlns:rdf="http://www.w3.org/1999/02/22-rdf-syntax-ns#"
   xmlns:svg="http://www.w3.org/2000/svg"
   xmlns="http://www.w3.org/2000/svg"
   xmlns:sodipodi="http://sodipodi.sourceforge.net/DTD/sodipodi-0.dtd"
   xmlns:inkscape="http://www.inkscape.org/namespaces/inkscape"
   width="164.80299mm"
   height="158.3226mm"
   viewBox="0 0 164.803 158.32261"
   version="1.1"
   id="svg8"
   sodipodi:docname="github-logo.svg"
   inkscape:version="0.92.3 (2405546, 2018-03-11)">
  <defs
     id="defs2" />
  <sodipodi:namedview
     id="base"
     pagecolor="#ffffff"
     bordercolor="#666666"
     borderopacity="1.0"
     inkscape:pageopacity="0.0"
     inkscape:pageshadow="2"
     inkscape:zoom="0.49497475"
     inkscape:cx="42.972846"
     inkscape:cy="155.16394"
     inkscape:document-units="mm"
     inkscape:current-layer="g1763"
     showgrid="false"
     inkscape:window-width="1366"
     inkscape:window-height="704"
     inkscape:window-x="0"
     inkscape:window-y="27"
     inkscape:window-maximized="1" />
  <metadata
     id="metadata5">
    <rdf:RDF>
      <cc:Work
         rdf:about="">
        <dc:format>image/svg+xml</dc:format>
        <dc:type
           rdf:resource="http://purl.org/dc/dcmitype/StillImage" />
        <dc:title></dc:title>
      </cc:Work>
    </rdf:RDF>
  </metadata>
  <g
     inkscape:label="Layer 1"
     inkscape:groupmode="layer"
     id="layer1"
     transform="translate(-20.764521,-25.90615)">
    <g
       id="g1763"
       transform="translate(2.6726953,-1.0690757)">
      <path
         style="fill:#fff;stroke:none;stroke-width:0.17029658;stroke-opacity:100%"
         d="m 116.64296,156.44862 c 0,0 -1.42755,0.78428 -1.43085,-10.94683 -0.002,-8.31635 -0.0546,-10.88877 -0.24476,-12.04871 -0.30553,-1.86358 -0.56126,-2.8149 -0.89266,-3.32067 -0.24008,-0.3664 -0.2367,-0.39856 0.0419,-0.39856 0.52308,0 5.53349,-1.32365 7.31435,-1.93231 4.55821,-1.55789 8.06613,-3.39609 11.24788,-5.89408 1.61626,-1.26892 3.91049,-3.59131 4.96999,-5.03101 0.4825,-0.65564 1.03193,-1.39211 1.22095,-1.6366 1.22636,-1.58624 3.14239,-6.377 3.67036,-9.17723 0.15011,-0.79614 0.35353,-1.869 0.45204,-2.38415 0.25591,-1.33831 0.10033,-7.367609 -0.24389,-9.451454 -0.37589,-2.275536 -0.57022,-3.084492 -1.24212,-5.170724 -1.0701,-3.322638 -2.61403,-6.158194 -4.92302,-9.041529 l -1.08497,-1.354849 0.42075,-1.035465 c 1.27111,-3.12823 1.54816,-8.105557 0.64939,-11.666666 -0.50084,-1.984415 -1.519,-4.179833 -2.35865,-5.085828 -0.52236,-0.563639 -1.07472,-0.576161 -3.88782,-0.08813 -2.27461,0.394609 -4.4,1.041064 -6.50674,1.979079 -1.95414,0.870071 -5.06575,2.966139 -6.59045,4.439511 l -1.31126,1.267119 -1.58378,-0.431276 c -3.50361,-0.954061 -4.91489,-1.191686 -9.32448,-1.57001 -3.72953,-0.319977 -4.74798,-0.318815 -8.300284,0.0095 -4.196632,0.387828 -8.240317,1.140176 -10.076094,1.874708 l -0.730967,0.292474 -0.880893,-0.844267 c -4.03063,-3.863046 -8.396753,-6.101363 -13.688605,-7.017541 -2.579869,-0.446652 -3.125349,-0.449643 -3.671402,-0.02012 -0.567717,0.446567 -1.384777,1.913668 -2.009743,3.608668 -1.505558,4.083291 -1.28861,9.833595 0.509144,13.495149 l 0.495902,1.010022 -1.225009,1.459279 c -4.374529,5.211101 -6.539193,11.177823 -6.86841,18.932216 -0.13542,3.189804 0.447698,7.000654 1.567454,10.243694 0.606065,1.75529 1.900911,4.47174 2.658435,5.57712 1.389128,2.02702 3.135403,4.08344 4.490991,5.28862 0.467772,0.41587 0.927573,0.85201 1.02178,0.96919 0.175301,0.21805 0.808074,0.66823 3.285448,2.33737 2.648318,1.78432 6.257123,3.39658 10.254117,4.5811 3.30394,0.97913 3.75257,1.09697 4.965103,1.30415 l 1.133431,0.19366 -0.332907,0.7526 c -0.45499,1.02858 -0.798478,2.93464 -0.93555,5.1915 -0.108769,1.79085 -0.135992,1.89683 -0.525302,2.04484 -1.067967,0.40605 -3.019287,0.66656 -4.993668,0.66668 -5.572969,3.4e-4 -9.831866,-2.06686 -12.383064,-6.01061 -0.904058,-1.39753 -2.679173,-3.3226 -3.890357,-4.21901 -2.925383,-2.1651 -7.474001,-2.86904 -8.620051,-1.33404 -0.59923,0.8026 -0.0271,1.61731 2.47292,3.52132 1.731995,1.3191 3.555982,3.847 4.905458,6.79859 1.30414,2.85243 1.866009,3.72165 3.578425,5.53586 2.313365,2.45089 6.038222,4.37685 9.857258,5.09676 2.061162,0.38854 7.487901,0.20939 9.257153,-0.30559 0.304057,-0.0885 1.634942,5.22559 -0.790286,8.96872 z"
         id="path1765"
         inkscape:connector-curvature="0"
         sodipodi:nodetypes="ccccscccccccssccccssscsscccsscsscscsssccscccscsscscscsccc" />
    </g>
  </g>
</svg>
