<?xml version="1.0" encoding="UTF-8" standalone="no"?>
<svg
   viewBox="0 0 1781.6691 1038.1692"
   height="1038.1692"
   width="1781.6691"
   id="svg2"
   version="1.1"
   sodipodi:docname="OEB-logo-grey.svg"
   inkscape:version="1.2.2 (b0a84865, 2022-12-01)"
   xmlns:inkscape="http://www.inkscape.org/namespaces/inkscape"
   xmlns:sodipodi="http://sodipodi.sourceforge.net/DTD/sodipodi-0.dtd"
   xmlns="http://www.w3.org/2000/svg"
   xmlns:svg="http://www.w3.org/2000/svg"
   xmlns:rdf="http://www.w3.org/1999/02/22-rdf-syntax-ns#"
   xmlns:cc="http://creativecommons.org/ns#"
   xmlns:dc="http://purl.org/dc/elements/1.1/">
  <sodipodi:namedview
     pagecolor="#ffffff"
     bordercolor="#666666"
     borderopacity="1"
     objecttolerance="10"
     gridtolerance="10"
     guidetolerance="10"
     inkscape:pageopacity="0"
     inkscape:pageshadow="2"
     inkscape:window-width="1376"
     inkscape:window-height="861"
     id="namedview6"
     showgrid="false"
     inkscape:zoom="0.1790456"
     inkscape:cx="834.98282"
     inkscape:cy="522.21334"
     inkscape:window-x="1037"
     inkscape:window-y="148"
     inkscape:window-maximized="0"
     inkscape:current-layer="svg2"
     inkscape:showpageshadow="2"
     inkscape:pagecheckerboard="0"
     inkscape:deskcolor="#d1d1d1" />
  <metadata
     id="metadata8">
    <rdf:RDF>
      <cc:Work
         rdf:about="">
        <dc:format>image/svg+xml</dc:format>
        <dc:type
           rdf:resource="http://purl.org/dc/dcmitype/StillImage" />
        <dc:title />
      </cc:Work>
    </rdf:RDF>
  </metadata>
  <defs
     id="defs6" />
  <path
     id="path823"
     d="m 261.81184,1036.3665 c -53.12147,-8.3048 -92.64873,-45.54185 -105.33944,-99.23615 -2.30771,-9.7639 -2.35288,-47.80128 -0.0673,-56.66668 3.71729,-14.4185 4.88687,-17.7529 10.2892,-29.3333 7.75067,-16.61429 17.50043,-29.17657 32.59452,-41.99704 1.83333,-1.55719 4.53333,-3.85292 6,-5.10164 2.50467,-2.13247 7.80182,-5.45195 17.49564,-10.96369 5.63002,-3.20114 25.98493,-9.85299 35.91796,-11.73775 10.04836,-1.90665 38.06536,-1.99888 47.52077,-0.15643 13.70649,2.6708 28.24047,7.47348 36.39896,12.02786 9.91409,5.5344 14.90564,8.74242 17.98636,11.55961 3.67528,3.36091 7.94771,3.92096 10.44398,1.36908 0.89669,-0.91667 13.76669,-7.67257 28.6,-15.01313 18.11121,-8.9627 26.89733,-13.99907 26.74947,-15.33334 -0.12106,-1.09277 -0.83036,-4.68686 -1.57617,-7.98686 -6.09853,-26.98438 -7.8277,-38.4183 -9.7137,-64.23054 -1.40147,-19.18057 -1.31454,-25.85748 0.63356,-48.66666 2.38817,-27.96167 3.23384,-34.0762 7.30329,-52.80587 l 2.54277,-11.70307 -16.81812,-8.49344 c -9.24992,-4.6714 -22.51808,-11.46693 -29.48474,-15.10117 -6.96667,-3.63424 -23.97927,-12.44157 -37.80579,-19.57187 -28.25376,-14.57036 -23.95055,-14.03728 -34.84724,-4.3168 -2.19251,1.95584 -4.34919,3.55608 -4.79262,3.55608 -0.44344,0 -2.54956,1.49927 -4.68029,3.33171 -2.13073,1.83244 -4.57405,3.33244 -5.42961,3.33333 -0.85555,9e-4 -1.75555,0.45163 -2,1.00163 -0.80675,1.8152 -14.74908,9.18032 -29.77778,15.73029 -6.12397,2.66902 -15.22506,5.49655 -23.33333,7.24922 -4.03333,0.87184 -9.60527,2.16376 -12.38208,2.87094 -13.44199,3.42336 -56.091,2.67427 -77.61793,-1.36329 -6.97048,-1.30737 -25.13174,-7.03499 -32,-10.092 -8.21017,-3.65431 -16.081645,-7.49329 -18.628675,-9.08537 -7.64666,-4.77974 -22.90296,-15.00235 -24.22242,-16.23046 -0.83479,-0.77696 -4.63631,-3.81266 -8.44783,-6.746 -5.88469,-4.52884 -14.0062,-13.14024 -24.36553,-25.83528 -1.28212,-1.5712 -5.12836,-7.20102 -8.54719,-12.51072 -3.41883,-5.3097 -7.21255,-11.154 -8.43048,-12.98733 -2.657,-3.99952 -11.10266,-23.61308 -13.7792905,-32 -2.16418,-6.7812 -3.93544,-14.05969 -6.48947,-26.66667 -2.30684,-11.3868 -2.2728,-57.92925 0.0497,-68 4.67517,-20.27202 7.46725,-30.52034 9.7171305,-35.66666 1.36255,-3.11667 3.67737,-8.36014 5.14403,-11.65214 1.46667,-3.29201 2.66667,-6.59201 2.66667,-7.33333 0,-0.74133 0.55957,-1.34787 1.24348,-1.34787 0.68392,0 1.63051,-1.21938 2.10353,-2.70974 1.00496,-3.16636 13.07403,-21.49079 17.95779,-27.26526 13.35069,-15.78562 41.70969,-40.69167 46.33311,-40.69167 0.81026,0 1.6732,-0.49798 1.91765,-1.1066 0.24444,-0.60863 4.34444,-3.06882 9.11111,-5.4671 4.766655,-2.39828 9.566655,-4.90413 10.666655,-5.56856 1.1,-0.66442 2.9,-1.55864 4,-1.98713 1.1,-0.42849 3.2,-1.28531 4.66667,-1.904 4.54916,-1.91904 18.37312,-6.26075 24.66667,-7.74708 3.3,-0.77936 9.3,-2.15907 13.33333,-3.06603 10.09152,-2.26922 55.28342,-2.2075 67.33334,0.092 19.88443,3.79452 30.21639,7.15816 48.66667,15.84378 30.40382,14.31284 56.84925,37.05098 75.66666,65.0593 3.11667,4.63892 5.66667,9.00324 5.66667,9.69849 0,0.69524 0.45844,1.46408 1.01876,1.70854 1.72332,0.75181 12.36702,23.85524 15.54978,33.75264 2.99182,9.30361 4.46588,15.39254 7.43014,30.6918 1.87756,9.69049 0.99578,57.78373 -1.25898,68.66666 -3.00895,14.52308 -3.92686,13.0731 13.92696,22 8.8,4.4 16.3,8.30144 16.66666,8.66987 0.654,0.65715 6.0179,3.4542 45.73643,23.84971 l 19.73644,10.13468 3.59689,-4.52871 c 7.02651,-8.84679 25.89431,-30.18461 30.04663,-33.98009 2.31932,-2.12 7.66356,-7.07 11.87609,-11 4.21252,-3.93 7.96772,-7.14546 8.34488,-7.14546 0.37715,0 2.53291,-1.65 4.79057,-3.66666 6.91363,-6.17562 24.32591,-18.93998 28.2054,-20.67643 2.01667,-0.90267 3.66667,-2.02195 3.66667,-2.48729 0,-0.46535 1.95,-1.63483 4.33333,-2.59883 2.38334,-0.964 4.63334,-2.11307 5,-2.55349 1.17115,-1.40671 25.62031,-12.97922 36.66667,-17.3554 5.86667,-2.32418 11.86667,-4.72958 13.33333,-5.34535 8.03083,-3.37165 36.47619,-10.53 50.33333,-12.66648 l 5,-0.77091 V 331.23176 292.1206 l -4.33333,-1.62966 c -8.3024,-3.12232 -9.70813,-3.70881 -16.33333,-6.81453 -12.34706,-5.78799 -26.58899,-16.33141 -39.36779,-29.14433 -12.06402,-12.09627 -21.29888,-23.58995 -21.29888,-26.50857 0,-0.73568 -0.45293,-1.53759 -1.00653,-1.78204 -1.24068,-0.54784 -10.54796,-20.38127 -12.47461,-26.58291 -14.9641,-48.16727 -8.35492,-97.2112 18.40661,-136.587919 5.98647,-8.80844 22.16544,-25.80826 30.40786,-31.95063 2.93334,-2.18596 5.66834,-4.42721 6.07778,-4.98056 1.86718,-2.52349 34.95765,-18.2032704 42.65462,-20.2117104 42.11246,-10.988843 80.38496,-6.73199999 117.2676,13.0430304 4.03334,2.16252 7.63334,4.34327 8,4.84612 0.36667,0.50285 2.06795,1.65264 3.78063,2.55511 1.71268,0.90245 4.71268,2.93846 6.66666,4.52446 4.49543,3.6488 22.87698,22.02002 25.61337,25.59899 4.99822,6.53719 10.60602,15.22473 10.60602,16.43071 0,0.72342 0.45,1.51532 1,1.75977 0.95693,0.42529 6.24196,10.8508 8.33622,16.44444 0.54912,1.46667 1.74411,4.46667 2.65554,6.66667 5.75237,13.885239 8.00593,28.397849 8.00714,51.564939 10e-4,24.05803 -1.93282,36.32438 -8.26768,52.43505 -4.1014,10.43062 -14.30922,30.73098 -16.8436,33.49697 -1.26138,1.37667 -3.7626,4.60303 -5.55824,7.16969 -3.62237,5.17779 -15.79226,17.39572 -22.79666,22.88667 -2.493,1.95433 -6.33272,5.14006 -8.53272,7.0794 -4.52481,3.98869 -27.75,15.68194 -36.33334,18.29285 l -5.66667,1.72371 v 37.5616 37.5616 l 10.33333,0.86594 c 23.6504,1.98196 61.06573,11.09476 82.33334,20.05296 10.48503,4.41644 20.07468,8.75212 24.66667,11.15232 6.81296,3.5611 20.05234,10.92638 24.66664,13.72248 2.2,1.33312 4.45,2.4261 5,2.42883 0.55,0.003 1,-8.09501 1,-17.99501 v -18 h 319.28561 c 209.2407,0 324.0122,0.47322 332.9999,1.37301 16.5295,1.65484 30.4981,3.69239 37.7144,5.50124 2.9333,0.73528 7.7333,1.84412 10.6667,2.46408 19.2165,4.06144 44.2362,13.80069 60.3629,23.49707 11.1789,6.72148 16.3003,10.85481 26.9704,21.76758 9.4841,9.69978 24,28.95579 24,31.83714 0,0.73572 0.45,1.53765 1,1.7821 1.6513,0.73394 10.9875,21.85955 13.7491,31.11111 0.8756,2.93333 2.1449,6.77677 2.8208,8.54097 2.9556,7.71494 5.0493,26.14139 5.0722,44.63863 0.032,25.86127 -1.6117,36.09669 -9.6313,59.97355 -2.8867,8.59428 -12.6915,27.91973 -14.5228,28.62462 -0.6351,0.24446 -1.1547,0.98988 -1.1547,1.65654 0,2.6185 -14.44,17.98153 -22.6198,24.06569 l -4.6199,3.43627 5.2865,2.42117 c 5.3107,2.4322 14.5839,8.56701 21.5468,14.25453 7.7867,6.36035 25.2324,24.03374 28.408,28.77876 1.8194,2.71843 3.6134,5.2426 3.9866,5.60927 2.7261,2.67832 13.4514,24.61305 16.6248,34 7.8488,23.21657 10.5094,55.56871 6.7522,82.10124 -2.4252,17.12529 -4.7584,26.62516 -9.9633,40.56546 -2.1095,5.6498 -15.3324,31.33328 -16.1317,31.33328 -0.4632,0 -1.5071,1.4593 -2.3198,3.243 -1.6006,3.5131 -4.0358,6.5518 -14.2837,17.8232 -11.2717,12.3974 -13.1748,14.2599 -18,17.6157 -2.5667,1.7851 -5.8299,4.3119 -7.2515,5.6152 -1.4216,1.3033 -3.3716,2.3696 -4.3333,2.3696 -0.9617,0 -1.7485,0.4584 -1.7485,1.0188 0,0.5603 -2.25,2.0421 -5,3.2929 -2.75,1.2508 -6.5,3.1414 -8.3334,4.2013 -4.1557,2.4026 -10.188,4.999 -21.3333,9.1822 -16.6297,6.2418 -26.7135,8.966 -42.6667,11.5268 -5.5,0.8828 -13.3,2.3109 -17.3333,3.1734 -5.4867,1.1734 -94.0424,1.6654 -351.6666,1.954 l -344.33331,0.3857 v -22.6408 -22.6409 l -10.3333,6.2914 c -9.1885,5.5944 -29.76475,16.1303 -37.00002,18.9456 -1.46666,0.5707 -4.76666,1.9528 -7.33333,3.0714 -27.53124,11.998 -61.45173,19.3283 -103.75985,22.4228 -33.21052,2.4291 -71.04217,-0.8037 -109.57349,-9.3633 -6.95892,-1.5459 -25.85177,-7.7488 -40.66666,-13.3518 -7.18184,-2.7162 -47.33334,-23.3696 -47.33334,-24.3477 0,-0.617 -0.64189,-1.1218 -1.42642,-1.1218 -1.40772,0 -12.55995,-7.225 -15.33774,-9.9366 -0.78694,-0.7682 -3.74445,-3.1968 -6.57224,-5.3968 -19.81386,-15.4151 -31.35276,-26.302 -47.99693,-45.28488 -4.4,-5.0183 -8.61975,-9.7821 -9.37721,-10.5863 -0.75747,-0.8042 -2.83772,-3.5621 -4.62279,-6.1288 -1.78507,-2.5666 -4.01532,-5.4595 -4.95612,-6.4285 -0.9408,-0.9691 -1.71055,-2.2273 -1.71055,-2.796 0,-0.56877 -1.16849,-2.38139 -2.59665,-4.02807 -1.42816,-1.64668 -2.82373,-3.67522 -3.10129,-4.50789 -0.3006,-0.90183 -11.10928,3.86497 -26.73359,11.78996 -20.00736,10.1481 -26.03344,13.7783 -25.40472,15.3039 1.69716,4.1181 3.19547,27.73928 2.45266,38.66658 -1.33547,19.6458 -4.43944,30.6546 -14.09999,50.0085 -9.75981,19.5527 -20.64201,32.37335 -38.22352,45.03215 -29.00112,20.881 -61.63344,28.5116 -97.76986,22.8622 z m 38.81031,-63.33105 c 19.29687,-7.2633 28.60452,-14.2291 38.17701,-28.5718 12.77618,-19.1427 14.59972,-42.3984 4.93947,-62.99298 -1.29176,-2.7538 -3.1214,-5.7998 -4.06589,-6.7689 -0.9445,-0.969 -1.71726,-2.3301 -1.71726,-3.0247 0,-1.1429 -14.59252,-15.98401 -18.89165,-19.21337 -2.48316,-1.86526 -11.19552,-5.8215 -18.38056,-8.3465 -7.59464,-2.66895 -28.21773,-2.95664 -34.72779,-0.48444 -5.72698,2.17481 -16.19045,7.12798 -18,8.52078 -18.46141,14.20973 -27.82938,28.69373 -31.3396,48.45471 -1.69836,9.5611 -0.97425,16.4967 2.90818,27.8554 9.40217,27.5077 35.33968,46.9169 63.09809,47.2168 7.75935,0.084 12.66545,-0.6371 18,-2.645 z M 745.37556,851.21776 c 2.51895,-5.45194 4.57991,-10.73194 4.57991,-11.73334 0,-1.0014 0.53012,-2.39072 1.17805,-3.08738 0.64792,-0.69667 2.5178,-5.16667 4.15528,-9.93334 1.63748,-4.76666 3.50736,-9.23666 4.15528,-9.93333 0.64793,-0.69667 1.17805,-2.34667 1.17805,-3.66667 0,-1.32 0.88222,-2.4 1.96048,-2.4 1.07828,0 5.42828,-1.6418 9.66667,-3.64845 9.30269,-4.40431 21.28341,-5.02077 25.38783,-1.30632 1.39058,1.25845 3.23762,2.28811 4.10454,2.28811 0.86692,0 4.11967,1.13101 7.22836,2.51336 3.10867,1.38236 9.25213,3.83509 13.65213,5.45052 4.4,1.61544 9.36744,3.4795 11.03876,4.14238 2.69571,1.06916 4.53967,-0.31681 16.33333,-12.27657 7.31202,-7.41499 13.29458,-13.99691 13.29458,-14.62649 0,-0.62959 -2.13246,-5.80787 -4.73879,-11.5073 -2.60633,-5.69941 -5.24769,-11.56257 -5.86969,-13.02924 -0.622,-1.46666 -2.98955,-6.67886 -5.26122,-11.58265 -4.63458,-10.00456 -4.93128,-12.33557 -2.27572,-17.87916 2.52323,-5.26732 5.69526,-12.70472 6.63191,-15.54972 0.4246,-1.28968 2.43884,-3.00424 4.47609,-3.81013 2.03724,-0.80591 4.74594,-2.00071 6.01932,-2.65514 1.27339,-0.65442 2.92992,-1.18986 3.6812,-1.18986 0.75128,0 4.05942,-1.2 7.35143,-2.66667 3.292,-1.46667 8.83547,-3.90792 12.3188,-5.42503 3.48333,-1.51709 9.17275,-4.06709 12.64315,-5.66666 l 6.3097,-2.90831 0.024,-17.41931 0.024,-17.41929 -5.4593,-2.91404 c -3.0027,-1.60271 -6.00926,-2.91403 -6.68128,-2.91403 -0.67203,0 -3.76532,-1.13101 -6.874,-2.51336 -3.10867,-1.38236 -9.25214,-3.8303 -13.65214,-5.43989 -4.4,-1.60959 -9.04185,-3.47856 -10.31524,-4.15329 -1.27418,-0.67474 -3.5211,-1.22679 -4.99397,-1.22679 -1.88888,0 -3.46567,-1.76789 -5.35143,-6 -1.47041,-3.3 -3.87349,-8.69347 -5.34016,-11.98547 -3.35585,-7.53237 -3.33836,-9.86085 0.13294,-17.69573 1.53974,-3.47533 3.27857,-7.5188 3.86405,-8.98547 1.19077,-2.98296 3.91488,-9.34225 7.42501,-17.33333 6.388,-14.54269 7.13051,-12.07076 -8.1538,-27.1454 l -13.6439,-13.45675 -10.47879,4.12458 c -13.36674,5.2613 -17.99653,7.27073 -27.61562,11.9858 -8.72208,4.27537 -13.52001,4.74842 -19.08845,1.88205 -2.0761,-1.06868 -6.85106,-3.24235 -10.61103,-4.83036 -7.49325,-3.16477 -6.02531,-0.78424 -18.63916,-30.22659 -1.17816,-2.75 -3.96793,-8.75 -6.19948,-13.33333 l -4.05736,-8.33333 h -18.50017 c -17.91215,0 -18.54142,0.0953 -19.79734,3 -0.71344,1.65 -1.82905,3.9 -2.47914,5 -0.65011,1.1 -1.79174,3.5 -2.53698,5.33333 -0.74524,1.83333 -2.61477,6.1768 -4.15452,9.65213 -1.53974,3.47535 -2.79954,6.93348 -2.79954,7.68476 0,0.75128 -0.6,2.55782 -1.33334,4.01454 -0.73333,1.45672 -1.93333,3.84042 -2.66666,5.29714 -0.73334,1.45672 -1.33334,3.53335 -1.33334,4.61474 0,2.44233 -5.17617,7.40336 -7.72444,7.40336 -1.03856,0 -4.87472,1.5 -8.5248,3.33333 -3.65009,1.83333 -8.31257,3.33333 -10.36106,3.33333 -3.32327,0 -15.5243,-4.50726 -21.70494,-8.01816 -1.27344,-0.72334 -2.92997,-1.31517 -3.68125,-1.31517 -0.75128,0 -3.90941,-1.12897 -7.01809,-2.50884 -5.12027,-2.27275 -9.48976,-3.9102 -15.92809,-5.96899 -1.6003,-0.51172 -6.25134,3.1569 -15.66667,12.35747 -7.36489,7.19689 -13.39071,13.44133 -13.39071,13.87652 0,1.06932 11.33516,27.54543 15.4033,35.97828 4.30452,8.92283 4.03012,15.36853 -1.17126,27.51367 -4.05773,9.47476 -4.52622,10.01154 -10.55644,12.0951 -3.47064,1.19919 -6.71745,2.58754 -7.21514,3.08523 -0.4977,0.49769 -1.71144,0.90489 -2.69722,0.90489 -1.83174,0 -7.02964,2.18048 -24.09657,10.10835 l -9.66667,4.49033 v 18.05126 18.05125 l 7.66667,3.45405 c 11.17945,5.03666 13.97848,6.16792 27.66667,11.1818 4.4,1.61168 9.5101,3.48503 11.35578,4.16298 1.84568,0.67794 4.18371,3.16778 5.19562,5.53297 1.0119,2.36519 2.9518,6.66304 4.31088,9.55079 3.52304,7.48568 3.12276,15.23456 -1.29399,25.0495 -2.07079,4.6017 -4.5418,10.46672 -5.49117,13.03339 -0.94936,2.56667 -2.76882,7.06667 -4.04322,10 -5.2377,12.0558 -5.41914,11.51988 8.60034,25.40329 12.50141,12.38007 15.3536,13.97784 20.38385,11.41894 1.27339,-0.64778 3.96524,-1.84778 5.98191,-2.66667 7.47074,-3.03359 9.92063,-4.11837 21.25387,-9.411 12.95478,-6.04988 17.62056,-6.57232 25.60008,-2.86653 3.01366,1.39957 7.7656,3.54492 10.55988,4.76742 2.7943,1.22251 5.40852,3.2274 5.80943,4.45531 0.71508,2.19023 1.82467,4.88004 6.42117,15.56591 1.26176,2.93333 2.78708,6.53333 3.38958,8 0.6025,1.46666 3.29792,7.31666 5.9898,13 l 4.89433,10.33333 h 18.62768 18.62769 z M 710.62213,743.1566 c -0.73333,-0.23644 -4.63333,-1.41372 -8.66666,-2.61615 -11.75424,-3.50424 -18.17131,-7.31632 -25.82727,-15.34279 -12.04036,-12.62305 -16.79628,-24.92414 -16.82357,-43.51374 -0.0393,-26.82478 15.35782,-48.4837 40.82036,-57.42115 8.96821,-3.14788 33.32668,-3.15964 42.26752,-0.0204 16.96869,5.95789 26.87562,14.81232 35.18004,31.44251 4.76321,9.53868 5.07545,10.93506 5.50558,24.62253 0.47626,15.15461 0.0281,17.19765 -6.8966,31.43873 -4.3215,8.88747 -15.76561,20.51984 -24.29162,24.69123 -8.89862,4.35369 -22.58046,7.39823 -32.60062,7.2544 -4.0336,-0.0579 -7.93382,-0.29872 -8.66716,-0.53517 z m 877.33327,114.68946 c 33.739,-6.01557 47.0457,-16.22834 52.1814,-40.04902 3.9266,-18.2115 1.2959,-33.57287 -7.5148,-43.8818 -9.1097,-10.65888 -13.7861,-13.64247 -30,-19.1402 -21.5706,-7.31412 -34.5896,-8.28763 -111,-8.30026 l -67,-0.0111 v 56.66669 56.66667 l 76.3334,-0.0245 c 60.1397,-0.0193 78.5961,-0.42802 87,-1.9264 z M 1287.2888,685.13037 V 511.79704 h -117.3333 -117.3334 v 54.66666 54.66667 h 82 82 v 63.33333 63.33334 h -82 -82 v 55.33333 55.33333 h 117.3334 117.3333 z m 267.3332,-67.34579 c 16.1444,-2.97154 19.7026,-3.98638 27.7059,-7.90205 13.5379,-6.62345 20.3243,-14.43939 24.848,-28.61779 2.8357,-8.88772 0.6899,-26.7914 -4.5707,-38.13437 -6.1426,-13.24528 -21.622,-22.09428 -46.6498,-26.66817 -8.3262,-1.52163 -23.9054,-1.95475 -71,-1.97392 l -60.3334,-0.0246 v 52.66669 52.66667 l 59.6667,-0.0245 c 46.7388,-0.0192 61.9777,-0.44994 70.3333,-1.98788 z M 199.98286,501.21353 c 24.24058,-2.78793 48.44241,-14.44111 64.28788,-30.95461 14.97916,-15.61067 18.87605,-21.4106 27.18569,-40.46188 5.6404,-12.93155 8.38229,-43.07564 5.07969,-55.84531 -5.4661,-21.13487 -11.78194,-35.26504 -20.58064,-46.04415 -8.6121,-10.55053 -27.84545,-28.0388 -30.88889,-28.08628 -0.85555,-0.0133 -1.75555,-0.47426 -2,-1.02426 -0.38729,-0.87142 -8.13519,-4.87668 -16.44444,-8.50095 -1.46667,-0.63972 -7.46667,-2.35451 -13.33333,-3.81063 -22.76533,-5.6504 -50.549,-2.43145 -72.00001,8.34174 -19.83305,9.96061 -39.55405,29.67341 -49.657115,49.6365 -11.25721,22.24358 -14.46148,50.83668 -8.29797,74.04626 3.0061,11.31989 11.5561,30.41189 15.29284,34.14862 1.09757,1.09758 1.995575,2.56896 1.995575,3.26974 0,1.66306 23.53899,25.20205 25.20206,25.20205 0.70077,0 2.067,0.78891 3.03604,1.75312 7.5454,7.50779 33.84617,17.01535 51.76191,18.71161 2.56667,0.24302 5.56667,0.53331 6.66667,0.6451 1.1,0.11173 6.81232,-0.3502 12.69404,-1.02667 z m 547.11825,-277.3112 c 8.92924,-3.30961 22.62585,-12.15856 30.17381,-19.49434 16.10399,-15.65127 26.5286,-43.87098 23.27405,-63.00345 -1.5602,-9.17196 -3.98846,-17.81182 -5.49201,-19.54084 -0.60583,-0.69666 -1.10149,-2.09252 -1.10149,-3.10189 0,-2.20803 -12.75112,-21.470829 -16.08427,-24.298109 -5.96645,-5.06094 -7.689,-6.37753 -13.27917,-10.14964 -13.25519,-8.94425 -25.50504,-12.734 -41.16131,-12.7341 -34.47337,-2.3e-4 -64.10399,21.7687 -75.612,55.550409 -2.68619,7.88528 -4.07675,31.13932 -2.17356,36.34804 0.73391,2.00857 2.13451,6.35196 3.11245,9.65196 2.16518,7.30617 3.17104,9.29244 9.48806,18.73586 11.99394,17.93 31.73422,30.99494 53.04313,35.10617 7.24423,1.39765 28.72729,-0.44401 35.81231,-3.07007 z"
     style="fill:#999;fill-opacity:100%;stroke-width:1.33333337" />
</svg>
