<?xml version="1.0" encoding="UTF-8" standalone="no"?>
<!-- Created with Inkscape (http://www.inkscape.org/) -->

<svg
   version="1.1"
   id="svg10264"
   width="170.07613"
   height="170.07613"
   viewBox="0 0 170.07613 170.07613"
   sodipodi:docname="OEB-minimal-logo-light-blue.svg"
   inkscape:version="1.2.2 (b0a84865, 2022-12-01)"
   xmlns:inkscape="http://www.inkscape.org/namespaces/inkscape"
   xmlns:sodipodi="http://sodipodi.sourceforge.net/DTD/sodipodi-0.dtd"
   xmlns="http://www.w3.org/2000/svg"
   xmlns:svg="http://www.w3.org/2000/svg">
  <defs
     id="defs10268" />
  <sodipodi:namedview
     id="namedview10266"
     pagecolor="#ffffff"
     bordercolor="#000000"
     borderopacity="0.25"
     inkscape:showpageshadow="2"
     inkscape:pageopacity="0.0"
     inkscape:pagecheckerboard="0"
     inkscape:deskcolor="#d1d1d1"
     showgrid="false"
     inkscape:zoom="3.8181832"
     inkscape:cx="72.023783"
     inkscape:cy="75.035687"
     inkscape:window-width="2560"
     inkscape:window-height="1387"
     inkscape:window-x="0"
     inkscape:window-y="25"
     inkscape:window-maximized="1"
     inkscape:current-layer="g10391" />
  <g
     inkscape:groupmode="layer"
     inkscape:label="Image"
     id="g10270">
    <g
       id="g10391"
       transform="translate(-0.22187519,-0.34364394)"
       style="fill:#214478;fill-opacity:65.6%">
      <path
         style="fill:#214478;fill-opacity:49.5%;stroke-width:0.33218"
         d="m 40.69656,166.70695 c -7.84923,-1.90173 -13.77681,-8.39682 -15.11038,-16.55703 -0.45276,-2.77048 -0.45165,-3.39651 0.0109,-6.13975 0.96037,-5.69569 3.99863,-10.45908 8.6596,-13.57653 3.37083,-2.25455 5.91712,-3.09491 10.02281,-3.30788 4.97873,-0.25824 8.53337,0.69802 12.58057,3.3844 l 1.93867,1.28681 5.3068,-2.63097 c 2.91874,-1.44704 5.36936,-2.72986 5.44584,-2.85073 0.0765,-0.12086 -0.22448,-1.57813 -0.66879,-3.23836 -1.87464,-7.00492 -2.02234,-16.17828 -0.37671,-23.397028 0.49334,-2.1641 0.84892,-3.97368 0.79018,-4.02129 -0.0587,-0.0476 -4.24624,-2.20722 -9.30556,-4.79915 l -9.19876,-4.71259 -2.08381,1.67915 c -2.62918,2.11862 -7.29884,4.44406 -10.74359,5.35019 -4.01544,1.05624 -9.48546,1.20587 -13.52041,0.36985 -11.2976,-2.34081 -20.1820003,-10.79426 -23.0832903,-21.96361 -0.99934999,-3.84728 -1.14976999,-9.758564 -0.34306,-13.481969 2.03745,-9.403928 8.17313,-17.025444 16.9765003,-21.08759 4.47359,-2.064252 6.62262,-2.492177 12.49622,-2.488303 4.37833,0.003 5.54645,0.11793 7.80623,0.76879 10.53838,3.035261 18.54691,11.318869 21.15538,21.882038 0.90753,3.67511 0.99532,10.094614 0.18308,13.387304 -0.29295,1.18754 -0.43056,2.25069 -0.30579,2.36256 0.12477,0.11187 4.05489,2.16601 8.73361,4.56476 l 8.50677,4.36136 1.57338,-2.00266 c 6.56718,-8.35898 16.961999,-14.99487 27.76551,-17.725085 l 3.14239,-0.794132 0.0895,-6.961127 0.0895,-6.961126 -1.82916,-0.69998 c -3.808,-1.457246 -7.487619,-4.363067 -10.021634,-7.91417 C 87.73043,25.271765 94.598421,6.5153859 110.68184,2.4634159 c 5.34622,-1.346897 10.91372,-0.702457 16.11577,1.865405 2.55265,1.260055 3.62619,2.043558 5.81315,4.24261 3.00017,3.0167681 4.4945,5.3280501 5.71635,8.8414861 4.11533,11.833609 -1.73291,24.67245 -13.39731,29.411608 l -1.92739,0.783085 -0.09,6.478485 -0.09,6.478485 1.25264,0.188127 c 7.89303,1.185391 12.63207,2.578725 18.19382,5.349195 4.89969,2.44067 9.25192,5.59386 13.27741,9.61948 15.12297,15.12342 18.92437,37.819448 9.49068,56.663548 -6.98701,13.95679 -19.44126,23.53733 -35.39092,27.22477 -4.70218,1.0871 -14.34264,1.26561 -19.62622,0.3634 -7.81545,-1.33454 -15.449448,-4.48082 -21.70725,-8.94644 -3.83389,-2.73591 -8.81713,-7.64619 -11.46872,-11.30082 -1.08826,-1.49993 -2.09925,-2.72714 -2.24664,-2.72714 -0.1474,0 -2.37392,1.05497 -4.94783,2.34438 -4.23456,2.12132 -4.65993,2.41367 -4.47065,3.07266 0.11505,0.40056 0.29455,1.99887 0.3989,3.55181 0.39149,5.82633 -1.60915,11.0565 -5.84625,15.28359 -2.88165,2.87482 -5.45914,4.3691 -9.17607,5.31973 -3.00195,0.76777 -7.02243,0.82326 -9.85871,0.13608 z m 9.57318,-9.24321 c 7.16842,-3.28182 8.83463,-12.79577 3.22363,-18.40677 -5.5906,-5.5906 -15.0982,-3.76431 -18.47136,3.54813 -1.00483,2.17828 -0.9871,6.84692 0.0345,9.08249 1.41356,3.09337 4.5937,5.71116 7.97222,6.56249 1.93771,0.48828 5.24026,0.12963 7.24102,-0.78634 z m 72.87813,-19.21937 c 0.51384,-1.14187 1.26636,-2.99518 1.67226,-4.11847 0.7156,-1.98036 0.79397,-2.06376 2.58226,-2.7481 l 1.84425,-0.70575 3.75496,1.50242 c 2.06523,0.82633 3.9232,1.50243 4.12884,1.50243 0.20563,0 1.48488,-0.99829 2.84276,-2.21841 2.82401,-2.53751 2.77618,-1.99016 0.60215,-6.89094 -0.80422,-1.81292 -1.46222,-3.4295 -1.46222,-3.5924 0,-0.16291 0.31053,-1.01806 0.69007,-1.90033 0.59647,-1.38651 0.90064,-1.68275 2.24222,-2.1837 0.85367,-0.31876 2.71061,-1.10285 4.12653,-1.74243 l 2.57439,-1.16286 v -3.41641 -3.41641 l -4.0692,-1.58182 c -2.23806,-0.86999 -4.17989,-1.74087 -4.31517,-1.93529 -0.13527,-0.1944 -0.48842,-0.97962 -0.78477,-1.74491 l -0.53881,-1.39145 1.5558,-3.844218 c 0.85569,-2.11431 1.5078,-4.03786 1.44913,-4.27454 -0.0587,-0.23669 -1.17523,-1.43461 -2.48126,-2.66206 l -2.3746,-2.23173 -1.77765,0.69899 c -0.97771,0.38445 -2.8008,1.14726 -4.05132,1.69516 l -2.27366,0.99616 -1.76631,-0.71689 c -1.36757,-0.55505 -1.85941,-0.95457 -2.17874,-1.76976 -0.22684,-0.57908 -1.00908,-2.36083 -1.73831,-3.95944 l -1.32588,-2.90658 h -3.56638 -3.56638 l -1.1636,2.74049 c -0.63998,1.50727 -1.35401,3.28332 -1.58672,3.94679 -0.35231,1.0044 -0.72072,1.32965 -2.20107,1.94322 l -1.77793,0.73691 -3.81831,-1.52799 c -2.10008,-0.8404 -3.98205,-1.528 -4.18218,-1.528 -0.48791,0 -5.279832,4.30667 -5.279832,4.74517 0,0.18997 0.758583,2.0554 1.68574,4.14539 l 1.685741,3.799998 -0.701365,1.72805 -0.701365,1.72806 -4.05704,1.65549 -4.057039,1.6555 -0.0939,3.52285 -0.0939,3.52285 2.419179,0.99782 c 1.33055,0.5488 3.200311,1.27124 4.155026,1.60543 1.607349,0.56262 1.788637,0.73768 2.449093,2.36494 l 0.71325,1.75734 -1.535598,3.68638 c -0.844577,2.02751 -1.535598,3.94379 -1.535598,4.2584 0,0.31461 1.043281,1.57922 2.318404,2.81025 2.648204,2.55663 2.035725,2.52929 7.216194,0.32207 l 3.38927,-1.44406 1.77884,0.68072 1.77884,0.68072 1.45745,3.48508 c 2.12116,5.07212 1.76864,4.776 5.68545,4.776 h 3.32379 z m -7.55144,-18.81608 c -2.33106,-0.80516 -3.92604,-2.14771 -5.18183,-4.36174 -0.90062,-1.58784 -1.03158,-2.13499 -1.03158,-4.31007 0,-2.17235 0.13195,-2.72528 1.03052,-4.31834 3.68539,-6.533815 12.98521,-6.500945 16.58205,0.0586 0.82572,1.50586 0.97049,2.13831 0.97522,4.26027 0.005,2.17487 -0.125,2.72426 -1.0206,4.31834 -1.23055,2.19029 -3.19883,3.78678 -5.51757,4.47537 -2.21105,0.65662 -3.66931,0.62602 -5.83621,-0.12244 z M 36.22494,81.353402 c 5.74038,-1.94662 10.20828,-6.84053 11.75424,-12.87501 0.70253,-2.74225 0.45677,-7.611926 -0.52347,-10.372441 -2.9935,-8.430199 -12.12387,-13.564014 -20.72144,-11.651235 -3.72845,0.8295 -6.33069,2.259375 -9.06971,4.983599 -5.72231,5.691412 -7.03378,13.404937 -3.53397,20.785287 3.81447,8.04389 13.49746,12.04508 22.09435,9.1298 z m 83.46563,-43.52698 c 8.25004,-2.148862 12.27225,-11.925557 7.94446,-19.310382 -2.03144,-3.466391 -5.42381,-5.747413 -9.52107,-6.401954 -5.422,-0.866167 -11.10714,2.119293 -13.57265,7.127449 -5.004035,10.164629 4.1871,21.440166 15.14926,18.584887 z"
         id="path10393" />
    </g>
  </g>
</svg>
