<?xml version="1.0" encoding="UTF-8" standalone="no"?>
<!-- Created with Inkscape (http://www.inkscape.org/) -->

<svg
   version="1.1"
   id="svg10264"
   width="170.07613"
   height="170.07613"
   viewBox="0 0 170.07613 170.07613"
   sodipodi:docname="OEB-small-logo-blue.svg"
   inkscape:version="1.2.2 (b0a84865, 2022-12-01)"
   xmlns:inkscape="http://www.inkscape.org/namespaces/inkscape"
   xmlns:sodipodi="http://sodipodi.sourceforge.net/DTD/sodipodi-0.dtd"
   xmlns="http://www.w3.org/2000/svg"
   xmlns:svg="http://www.w3.org/2000/svg">
  <defs
     id="defs10268" />
  <sodipodi:namedview
     id="namedview10266"
     pagecolor="#ffffff"
     bordercolor="#000000"
     borderopacity="0.25"
     inkscape:showpageshadow="2"
     inkscape:pageopacity="0.0"
     inkscape:pagecheckerboard="0"
     inkscape:deskcolor="#d1d1d1"
     showgrid="false"
     inkscape:zoom="3.8181832"
     inkscape:cx="72.023784"
     inkscape:cy="74.773783"
     inkscape:window-width="2560"
     inkscape:window-height="1387"
     inkscape:window-x="0"
     inkscape:window-y="25"
     inkscape:window-maximized="1"
     inkscape:current-layer="g10270" />
  <g
     inkscape:groupmode="layer"
     inkscape:label="Image"
     id="g10270">
    <g
       id="g10391"
       transform="translate(-0.22187519,-0.34364394)"
       style="fill:#2c5aa0">
      <path
         style="fill:#2c5aa0;fill-opacity:100%;stroke-width:0.33218"
         d="m 41.637656,167.74139 c -5.991669,-1.07801 -11.553655,-5.19018 -14.387504,-10.6372 -5.401827,-10.38299 -1.166073,-22.96441 9.395265,-27.90666 2.479152,-1.16013 5.9634,-1.96108 8.531055,-1.96108 3.910884,0 8.938899,1.64765 11.880808,3.89326 l 1.418282,1.0826 5.225888,-2.71327 c 2.874237,-1.49229 5.281727,-2.75749 5.349974,-2.81155 0.06825,-0.0541 -0.21229,-1.41269 -0.623412,-3.01918 -2.132971,-8.33472 -2.152855,-17.00793 -0.05709,-24.900607 l 0.632258,-2.381089 -9.073286,-4.677735 c -4.990309,-2.572753 -9.147554,-4.677734 -9.238326,-4.677734 -0.09077,0 -1.181949,0.772448 -2.42484,1.716549 -10.49178,7.969569 -25.456145,8.075275 -36.006005,0.254337 C -0.33143359,79.667081 -3.6925305,62.730222 4.3359275,49.068302 6.244845,45.819921 11.301115,40.849476 14.78568,38.795923 c 8.746714,-5.154692 19.470516,-5.562921 28.563802,-1.087354 8.242431,4.056787 14.466261,12.030355 16.254442,20.824141 0.678095,3.334688 0.673468,9.259383 -0.0096,12.262502 -0.291624,1.282158 -0.462943,2.398479 -0.380715,2.480707 0.08223,0.08223 3.938731,2.105728 8.570004,4.496666 l 8.420499,4.34716 1.001682,-1.281325 c 2.009818,-2.570903 6.408521,-6.899546 9.275101,-9.127374 6.023532,-4.681326 14.376245,-8.526671 21.228425,-9.77295 l 1.24568,-0.226564 v -6.783147 c 0,-6.167755 -0.0527,-6.800036 -0.58132,-6.969335 -3.72861,-1.194246 -8.550083,-4.658707 -10.993682,-7.899504 -3.355811,-4.450597 -4.821356,-8.795628 -4.828541,-14.315601 -0.0057,-4.374345 0.563162,-6.821679 2.509374,-10.795848 1.127286,-2.301919 1.94007,-3.377771 4.399687,-5.8236983 3.321952,-3.3034565 5.869712,-4.8533446 10.158832,-6.1799546 3.18388,-0.9847633 8.95919,-1.060523 12.29066,-0.1612271 8.44066,2.2784712 15.26566,9.320142 17.12244,17.666026 0.8373,3.763488 0.5504,9.04968 -0.69122,12.735932 -2.11542,6.280443 -7.57255,12.067785 -13.52465,14.342998 l -1.91003,0.730122 v 6.431405 6.431409 h 0.97968 c 0.53882,0 2.56421,0.305785 4.50086,0.679517 18.29635,3.530834 33.30454,16.415254 39.17347,33.63013 1.88566,5.531064 2.32155,8.475764 2.32155,15.683434 0,7.18705 -0.4214,10.05124 -2.30594,15.67317 -5.81179,17.33762 -21.15867,30.37911 -39.85301,33.86635 -4.94896,0.92318 -14.6899,0.84348 -19.35727,-0.15838 -10.532552,-2.26084 -18.748136,-6.55849 -26.082743,-13.64413 -2.00149,-1.93355 -4.610577,-4.8252 -5.797971,-6.42588 l -2.158894,-2.91032 -4.623506,2.40839 -4.623507,2.4084 0.263117,1.83064 c 0.393208,2.73575 0.233884,6.21409 -0.395766,8.64034 -1.744021,6.7203 -7.326979,12.42299 -14.123122,14.42602 -2.257216,0.66526 -6.897962,0.92423 -9.185875,0.5126 z m 8.234552,-9.92355 c 2.451235,-1.16882 4.140058,-2.83626 5.338756,-5.27116 0.961803,-1.9537 1.093536,-2.5431 1.093536,-4.8927 0,-2.34959 -0.131733,-2.93899 -1.093536,-4.89269 -1.889765,-3.83866 -5.048411,-5.92048 -9.346451,-6.16012 -2.036964,-0.11357 -2.892287,0.002 -4.499719,0.60844 -2.653806,1.00107 -5.122139,3.35075 -6.31708,6.01343 -0.820673,1.82871 -0.895869,2.30976 -0.764452,4.89048 0.113629,2.23139 0.335213,3.23128 1.005326,4.5365 0.855898,1.66708 3.094097,4.0101 4.60812,4.82393 2.784531,1.49675 7.235915,1.6502 9.9755,0.34389 z m 73.714912,-21.29188 1.52957,-3.82007 1.87502,-0.90579 1.87502,-0.90577 1.5874,0.68818 c 0.87307,0.3785 2.74672,1.11899 4.16368,1.64553 l 2.57629,0.95734 2.32337,-2.19175 c 1.27785,-1.20546 2.32199,-2.36049 2.32032,-2.56673 -0.002,-0.20625 -0.7404,-2.06603 -1.64161,-4.13286 l -1.63857,-3.75787 0.67515,-1.76426 0.67514,-1.76426 4.12218,-1.73109 4.12217,-1.73109 v -3.39494 -3.39492 l -4.12418,-1.60659 -4.12418,-1.60659 -0.67897,-1.77424 -0.67896,-1.77424 1.65474,-4.074828 1.65474,-4.074828 -2.36372,-2.242215 c -1.30005,-1.233218 -2.53655,-2.240966 -2.74779,-2.239434 -0.21123,0.0017 -2.0759,0.73446 -4.1437,1.628741 l -3.75964,1.625961 -1.8394,-0.748348 -1.8394,-0.748352 -1.23998,-2.956514 c -0.68199,-1.626084 -1.49221,-3.442331 -1.8005,-4.036103 l -0.56051,-1.079584 h -3.29367 c -2.22794,0 -3.37446,0.130729 -3.54337,0.40403 -0.13734,0.222218 -0.87332,1.97862 -1.63552,3.903114 l -1.38583,3.499084 -1.8629,0.92152 -1.86291,0.921521 -1.97161,-0.829836 c -1.08438,-0.456411 -2.97242,-1.206544 -4.19564,-1.666965 l -2.224032,-0.837123 -2.290926,2.211704 c -1.260012,1.216439 -2.290929,2.418084 -2.290929,2.670324 0,0.252241 0.738699,2.114083 1.641554,4.137425 l 1.641557,3.678806 -0.72021,1.76438 -0.720209,1.76438 -4.077057,1.71215 -4.077054,1.71213 v 3.42527 3.42526 l 3.072665,1.18206 c 1.689965,0.65013 3.491659,1.33755 4.003761,1.5276 0.671532,0.24921 1.153107,0.84753 1.727462,2.14626 l 0.796362,1.80071 -1.674855,4.058 -1.674854,4.058 2.263746,2.28122 c 1.245057,1.25467 2.491974,2.27998 2.770922,2.27845 0.278947,-0.002 2.176127,-0.72458 4.215947,-1.60679 l 3.70877,-1.60401 1.58606,0.60205 c 0.87232,0.33113 1.76428,0.7926 1.98211,1.02548 0.21784,0.23288 1.03605,1.91823 1.81824,3.74522 0.7822,1.82699 1.56969,3.51363 1.74998,3.74809 0.23751,0.30887 1.2494,0.40037 3.6735,0.33218 l 3.34569,-0.0941 z m -6.72586,-15.98554 c -3.20192,-0.47459 -6.15734,-2.78032 -7.46763,-5.826 -0.7876,-1.83074 -0.72936,-5.21694 0.12242,-7.11781 2.67881,-5.97813 10.78738,-7.56103 15.4948,-3.0248 6.70649,6.46261 1.1515,17.34725 -8.14959,15.96861 z M 34.180283,82.202099 C 43.450492,80.016919 49.600707,70.57694 47.698282,61.453289 45.772346,52.216883 38.104434,46.319978 28.802699,46.921898 c -6.985995,0.452071 -12.998092,4.932005 -15.586652,11.614446 -0.868484,2.242012 -1.183621,7.533878 -0.60581,10.172924 0.72111,3.293545 2.230686,5.985112 4.79856,8.55581 4.583245,4.588288 10.660983,6.377393 16.771486,4.937021 z M 121.64653,37.276898 c 2.606,-1.282933 4.94512,-3.670772 6.18294,-6.311727 0.78843,-1.682181 0.89026,-2.29835 0.89026,-5.387316 0,-3.183866 -0.0848,-3.660985 -0.97348,-5.473725 -3.96567,-8.089718 -14.58517,-9.924083 -20.89921,-3.610037 -5.73196,5.731954 -4.82162,15.404607 1.86376,19.803046 2.74422,1.805478 4.30099,2.233658 7.75207,2.132164 2.62801,-0.07729 3.30593,-0.227999 5.18366,-1.152405 z"
         id="path10405" />
      <path
         style="fill:#2c5aa0;fill-opacity:100%;stroke-width:0.33218"
         d="m 42.108255,167.76083 c -8.170483,-1.48409 -14.6723,-7.49961 -16.691496,-15.44307 -0.636386,-2.50353 -0.638024,-6.708 -0.0037,-9.39853 0.657793,-2.7899 2.475968,-6.3106 4.366177,-8.45465 6.968183,-7.90393 18.036395,-9.45622 26.579176,-3.72766 l 2.169706,1.45495 5.282638,-2.66818 c 2.90545,-1.4675 5.282636,-2.79976 5.282636,-2.96058 0,-0.16083 -0.377061,-1.83411 -0.837917,-3.71841 -1.844121,-7.54011 -1.857464,-16.06034 -0.03631,-23.190718 0.443294,-1.73564 0.709234,-3.246869 0.590974,-3.358286 -0.118256,-0.111416 -4.261357,-2.271041 -9.206888,-4.799169 l -8.991875,-4.596593 -2.028524,1.56091 C 42.40258,93.216481 34.50856,95.483653 27.032784,94.650054 14.20281,93.219428 4.2251442,84.552518 0.81825277,71.879301 0.52913478,70.803819 0.20855757,68.204846 0.10585902,66.103808 -0.30748249,57.647543 2.5373003,50.05772 8.4252197,43.907927 12.18224,39.983805 17.37168,36.940911 22.754326,35.505874 c 3.220393,-0.858569 10.145477,-1.030459 13.287198,-0.329805 9.120731,2.034067 16.975401,8.072281 21.002801,16.145732 1.200701,2.406963 2.258803,5.615774 2.73113,8.282462 0.498094,2.812149 0.421197,8.263946 -0.154922,10.983852 -0.270876,1.278823 -0.492503,2.425428 -0.492503,2.548012 0,0.122581 3.842548,2.199905 8.538997,4.616275 l 8.538995,4.393399 1.154189,-1.460443 c 2.318141,-2.933238 8.253432,-8.492967 11.231462,-10.520779 5.398137,-3.675721 11.959197,-6.579964 17.788957,-7.87425 l 2.57439,-0.571548 v -6.793625 -6.793624 l -1.0373,-0.361608 c -3.59066,-1.251707 -8.098013,-4.560642 -10.454192,-7.674616 -3.344803,-4.420561 -4.902637,-9.040591 -4.89516,-14.517453 0.0057,-4.185568 0.602651,-6.697423 2.526136,-10.629758 2.463921,-5.0371892 8.210926,-9.9987833 13.475016,-11.6334666 8.18655,-2.54220561 16.48726,-0.8969341 22.86596,4.5322308 5.01852,4.2714578 8.08846,11.0378988 8.07433,17.7965678 -0.008,3.887117 -0.73353,6.916982 -2.52482,10.545792 -1.27073,2.574242 -2.06199,3.655138 -4.4087,6.022472 -2.49342,2.515326 -3.29486,3.092516 -6.25231,4.502822 l -3.39229,1.617666 -0.0126,6.355765 -0.0125,6.355769 2.24221,0.237482 c 3.23953,0.343115 9.01183,1.868455 13.05207,3.449034 6.69816,2.620375 12.44911,6.543131 17.96953,12.257121 6.64693,6.879981 10.91582,14.919649 12.97237,24.431038 0.98689,4.56431 1.06809,14.1471 0.15805,18.65261 -3.18434,15.76523 -13.03496,28.6435 -27.4443,35.87944 -17.30562,8.69037 -39.19555,6.79902 -54.531888,-4.71171 -4.323561,-3.24506 -10.683946,-9.97681 -12.510873,-13.24134 -0.25723,-0.45965 -0.949739,-0.20666 -5.03126,1.83799 l -4.732973,2.371 0.255323,1.72726 c 1.38638,9.37893 -3.095887,18.07446 -11.325599,21.97149 -1.278892,0.60559 -3.033826,1.27041 -3.899849,1.47737 -2.220287,0.5306 -6.115123,0.71546 -7.971136,0.37833 z m 7.77709,-9.88715 c 2.172092,-0.96967 4.299717,-3.04384 5.44336,-5.3066 0.862004,-1.70552 0.971623,-2.26225 0.967381,-4.9131 -0.0058,-3.63285 -0.748578,-5.42854 -3.310857,-8.00427 -2.355086,-2.36745 -4.726931,-3.23732 -8.307027,-3.04657 -12.600579,0.67135 -14.564171,17.92227 -2.491349,21.88747 1.506153,0.49468 6.018426,0.13308 7.698492,-0.61693 z m 73.712325,-21.2748 c 0.83685,-2.06093 1.659,-3.88138 1.82699,-4.04545 0.168,-0.16406 1.05645,-0.59246 1.97433,-0.95198 1.41836,-0.55556 1.79235,-0.58995 2.49135,-0.22913 0.45236,0.2335 2.30252,0.97633 4.11148,1.65072 l 3.28902,1.22617 2.275,-2.25756 c 1.25125,-1.24166 2.27499,-2.45044 2.27499,-2.68616 0,-0.23573 -0.74083,-2.0835 -1.6463,-4.10615 l -1.6463,-3.67755 0.73281,-1.80189 c 0.44815,-1.10195 0.99087,-1.88243 1.39717,-2.00924 0.36539,-0.11405 2.19654,-0.87616 4.0692,-1.69358 l 3.40484,-1.48622 v -3.40716 -3.40717 l -3.40484,-1.33236 c -1.87266,-0.73279 -3.70381,-1.42444 -4.0692,-1.53699 -0.40745,-0.1255 -0.94741,-0.90061 -1.39628,-2.00434 l -0.73192,-1.7997 1.67585,-4.060412 1.67585,-4.060415 -2.27265,-2.300712 c -2.6436,-2.676244 -2.40598,-2.655602 -7.1264,-0.619107 -1.71522,0.739981 -3.36777,1.345774 -3.67235,1.346206 -0.30458,3.32e-4 -1.2463,-0.296069 -2.09273,-0.658889 -1.28864,-0.552379 -1.64882,-0.917072 -2.21443,-2.242215 -0.37151,-0.870397 -1.17882,-2.666278 -1.79401,-3.990846 l -1.11854,-2.408304 h -3.33142 -3.33142 l -0.62175,1.245674 c -0.34197,0.685121 -1.0439,2.366782 -1.55985,3.737025 -1.13037,3.002039 -1.22189,3.111323 -3.27463,3.910608 l -1.62265,0.631819 -4.14999,-1.638779 -4.149976,-1.638784 -2.282727,2.265235 c -1.255497,1.245878 -2.28084,2.493462 -2.278542,2.77241 0.0023,0.278949 0.733494,2.139525 1.624879,4.134611 l 1.620695,3.627435 -0.647372,1.51025 c -0.86394,2.01549 -1.028495,2.18066 -2.856232,2.8669 -0.865229,0.32486 -2.582138,1.03704 -3.815356,1.58262 l -2.242215,0.99196 v 3.41816 3.41816 l 4.029034,1.57568 4.029034,1.57567 0.771089,1.74358 0.771093,1.74357 -1.674855,4.058 -1.674854,4.058 2.272655,2.30071 c 2.647411,2.6801 2.415975,2.66058 7.23356,0.61011 1.72899,-0.73589 3.41284,-1.33183 3.74188,-1.3243 0.32904,0.008 1.25892,0.34386 2.0664,0.7474 1.39984,0.69959 1.54518,0.91578 3.12426,4.64755 l 1.65612,3.91382 3.51933,-0.0937 3.51934,-0.0938 z m -9.18867,-16.81 c -4.40099,-2.04929 -6.51133,-6.7856 -5.10128,-11.449 0.53034,-1.75399 2.8945,-4.46721 4.7587,-5.4613 1.95919,-1.04475 6.74729,-1.05115 8.67407,-0.0116 7.06462,3.81153 6.77405,13.73944 -0.49827,17.02451 -2.16671,0.97875 -5.60772,0.93368 -7.83322,-0.10261 z M 36.2941,81.596176 c 6.992092,-2.644289 11.897427,-9.657444 11.866225,-16.965141 -0.0187,-4.378729 -2.099225,-9.268896 -5.309113,-12.478784 -9.790913,-9.790914 -26.229249,-5.533434 -30.075671,7.78951 -0.800333,2.772131 -0.732604,7.352182 0.150424,10.172167 1.7998,5.747733 6.96993,10.595048 12.911537,12.105358 2.867996,0.729022 7.631899,0.445141 10.456598,-0.62311 z m 85.44985,-44.301989 c 2.55226,-1.320232 4.86583,-3.706334 6.04584,-6.235362 0.83318,-1.785703 0.92984,-2.35599 0.92897,-5.48097 -0.001,-3.937953 -0.53674,-5.573251 -2.68383,-8.193486 -6.02449,-7.352099 -17.73619,-5.848129 -21.83485,2.803945 -0.95847,2.023291 -1.05821,2.53126 -1.05821,5.389541 0,2.839607 0.10283,3.371991 1.02655,5.31488 1.23362,2.594684 2.37223,3.996566 4.35276,5.359208 2.60416,1.791709 4.51457,2.308415 8.07398,2.183751 2.75834,-0.09661 3.40668,-0.240346 5.14879,-1.141507 z"
         id="path10403" />
      <path
         style="fill:#2c5aa0;fill-opacity:100%;stroke-width:0.33218"
         d="m 42.170443,167.74613 c -4.303471,-0.66978 -8.688319,-3.04583 -11.83402,-6.41259 -5.840884,-6.25134 -7.061264,-15.63626 -3.022779,-23.24563 1.453015,-2.7378 4.85859,-6.29136 7.541904,-7.86963 6.890266,-4.05272 15.660212,-3.72177 21.996019,0.83005 l 1.616418,1.16128 5.063588,-2.52945 c 2.78497,-1.3912 5.233452,-2.66645 5.441068,-2.83388 0.277735,-0.22398 0.21494,-0.82667 -0.237649,-2.28083 -1.275358,-4.09774 -1.751963,-7.90985 -1.723266,-13.78344 0.02352,-4.81545 0.157114,-6.23408 0.907133,-9.63322 0.483751,-2.192385 0.908556,-4.181838 0.944013,-4.421004 0.09238,-0.623163 -18.007518,-9.891369 -18.549779,-9.498572 -7.803488,5.652593 -12.672877,7.442069 -20.250808,7.442069 -2.07715,0 -4.81266,-0.217933 -6.07891,-0.484298 C 14.880503,92.272137 7.2936876,86.362908 3.1621574,77.969731 0.78843766,73.147535 0.20921246,70.520878 0.2158735,64.608999 0.2208975,60.149782 0.31612701,59.314964 1.1222978,56.662896 3.2545774,49.648312 7.4668444,43.751829 13.128037,39.856826 c 2.426665,-1.669589 6.786299,-3.576103 9.999329,-4.372813 4.04112,-1.002044 10.403425,-0.990159 14.242877,0.02661 9.830597,2.603338 17.902247,10.014495 21.119496,19.391317 1.708637,4.979902 2.095199,10.362522 1.115208,15.528605 -0.285791,1.506569 -0.397902,2.849449 -0.249135,2.984175 0.14877,0.134725 3.995221,2.156857 8.547674,4.49363 l 8.277187,4.248678 1.350238,-1.632143 c 7.575072,-9.1566 17.398297,-15.425353 28.358019,-18.096854 l 3.07924,-0.750584 -0.0896,-6.77962 -0.0896,-6.779623 -1.6609,-0.700179 c -9.851154,-4.1529 -15.720827,-14.168324 -14.418645,-24.60248 0.69621,-5.578581 2.65345,-9.525352 6.778467,-13.6687531 2.944358,-2.9574824 5.283958,-4.4815322 8.691618,-5.6618609 14.93525,-5.1731927 30.44138,5.2264415 31.25316,20.960835 0.22309,4.324007 -0.45571,7.546647 -2.47405,11.745674 -1.27331,2.649029 -1.96173,3.592194 -4.40636,6.036819 -2.5127,2.512699 -3.34449,3.110104 -6.26636,4.500603 l -3.36908,1.603319 -0.005,6.344126 -0.005,6.344125 2.8382,0.397045 c 11.49723,1.608382 21.24744,6.491736 29.56143,14.805735 7.36767,7.367665 11.58794,15.092057 13.84358,25.337978 1.03631,4.70731 1.03001,14.39064 -0.0125,19.2488 -5.81961,27.11906 -32.04182,44.54663 -59.85007,39.77703 -3.69544,-0.63384 -9.378446,-2.39976 -12.934272,-4.01917 -8.361013,-3.80781 -16.503985,-10.89639 -21.80291,-18.97976 -0.03623,-0.0553 -2.229053,0.97807 -4.872943,2.29629 l -4.807069,2.39678 0.314418,1.35769 c 0.172926,0.74673 0.247829,3.00199 0.166449,5.01167 -0.166755,4.11788 -0.951257,6.68016 -3.049628,9.96044 -4.188244,6.54728 -12.506113,10.32185 -20.130802,9.13517 z m 7.129751,-9.64633 c 2.41043,-0.90186 4.90935,-3.19007 6.074083,-5.5619 0.809622,-1.64871 0.930223,-2.28189 0.930223,-4.88392 0,-2.59435 -0.121674,-3.23738 -0.920294,-4.86361 -1.021869,-2.08083 -3.078368,-4.15658 -5.275058,-5.32442 -1.230836,-0.65436 -1.936695,-0.76854 -4.766586,-0.771 -2.856385,-0.003 -3.553292,0.11101 -4.974036,0.81014 -1.969937,0.96938 -4.190951,3.10561 -5.117843,4.92246 -3.197647,6.26791 0.13344,13.97545 6.93402,16.04409 1.692613,0.51487 5.241169,0.32943 7.115491,-0.37184 z m 73.218096,-18.83336 c 0.34197,-0.68512 1.04557,-2.36678 1.56356,-3.73702 0.518,-1.37025 1.06081,-2.65305 1.20627,-2.85068 0.14546,-0.19763 1.06402,-0.63111 2.04124,-0.96328 l 1.77679,-0.60394 3.86034,1.54459 c 2.12319,0.84952 3.97574,1.54459 4.11679,1.54459 0.4456,0 4.75755,-4.44613 4.75755,-4.9056 0,-0.24144 -0.74154,-2.10082 -1.64788,-4.13196 l -1.64788,-3.69298 0.90048,-1.81655 0.90048,-1.81655 3.82006,-1.55192 3.82007,-1.55192 0.094,-3.52399 0.094,-3.524 -3.41578,-1.31308 c -1.87868,-0.7222 -3.68478,-1.40628 -4.01356,-1.52017 -0.32878,-0.1139 -0.95666,-1.01857 -1.39528,-2.01038 l -0.79751,-1.80329 1.67486,-4.057997 1.67485,-4.058 -2.26374,-2.281223 c -1.24506,-1.254673 -2.52266,-2.281226 -2.83912,-2.281226 -0.31645,0 -2.15023,0.672665 -4.07506,1.49481 -1.92483,0.822146 -3.76266,1.488648 -4.08406,1.481117 -0.3214,-0.0075 -1.24789,-0.343862 -2.05887,-0.747404 -1.38043,-0.686899 -1.56416,-0.945657 -2.87954,-4.055512 -2.05671,-4.862533 -1.5958,-4.484429 -5.46645,-4.484429 h -3.33737 l -0.78301,1.743944 c -0.43067,0.95917 -1.20767,2.7813 -1.72668,4.049174 -0.9129,2.23009 -1.00314,2.32914 -2.7685,3.038785 -1.5675,0.630106 -1.94211,0.673705 -2.65633,0.30915 -0.45732,-0.233426 -2.31155,-0.976502 -4.12051,-1.651279 l -3.289012,-1.226874 -2.294486,2.266474 c -2.686861,2.654058 -2.671355,2.424415 -0.491258,7.27581 l 1.463608,3.25698 -0.654547,1.5139 c -0.36,0.83265 -0.824677,1.67559 -1.032615,1.87321 -0.207938,0.19761 -1.798136,0.92668 -3.533776,1.62014 -4.922007,1.96653 -4.65052,1.65541 -4.65052,5.32942 v 3.1413 l 1.245675,0.6246 c 0.685121,0.34354 2.566429,1.11865 4.180687,1.72248 2.926795,1.09481 2.937205,1.10284 3.718745,2.87004 l 0.783732,1.77216 -0.851666,1.91003 c -0.46842,1.05052 -1.215842,2.86961 -1.66094,4.04241 l -0.80927,2.13238 2.251625,2.269 c 1.23839,1.24796 2.51054,2.26902 2.826998,2.26902 0.31645,0 2.18897,-0.69252 4.16115,-1.53892 l 3.58579,-1.53892 1.80017,0.6403 c 2.05281,0.73016 1.84929,0.45936 3.89165,5.17802 l 1.54559,3.57094 h 3.43337 3.43337 z m -6.92182,-18.99549 c -3.93015,-1.1955 -6.62686,-4.85413 -6.62686,-8.99067 0,-8.09114 9.64462,-12.292843 15.79343,-6.88044 2.1062,1.85395 3.11975,4.08928 3.11975,6.88044 0,3.89535 -2.58034,7.53888 -6.21644,8.77782 -1.59716,0.54421 -4.63084,0.65059 -6.06988,0.21285 z M 34.393878,82.208586 c 7.985659,-2.033775 13.738374,-9.400785 13.766447,-17.629497 0.0081,-2.372801 -1.118789,-6.505661 -2.378698,-8.723915 -1.42437,-2.507816 -4.62798,-5.634397 -7.10972,-6.938774 -7.082818,-3.722658 -15.683428,-2.479169 -21.232409,3.069811 -3.458525,3.458524 -5.258691,7.771579 -5.268451,12.622788 -0.01167,5.802413 2.165225,10.421637 6.662971,14.138359 4.144603,3.424901 10.313956,4.797249 15.55986,3.461228 z M 121.71484,37.369622 c 3.54252,-1.675881 6.48966,-5.637956 7.10299,-9.549118 1.32057,-8.421204 -5.25727,-15.668093 -13.72814,-15.124465 -9.84591,0.631872 -15.38213,11.787598 -9.95713,20.064051 3.54239,5.404323 10.69774,7.393363 16.58228,4.609532 z"
         id="path10401" />
      <path
         style="fill:#2c5aa0;fill-opacity:100%;stroke-width:0.33218"
         d="m 43.017302,167.75139 c -4.921956,-0.58939 -8.565771,-2.38025 -12.130587,-5.96192 -6.252161,-6.28174 -7.700646,-15.23333 -3.765461,-23.27043 1.415911,-2.89182 5.214176,-6.93535 7.92373,-8.4354 5.135787,-2.84324 11.109761,-3.46222 16.367356,-1.69588 1.511389,0.50777 3.719007,1.57445 4.905823,2.3704 l 2.157844,1.44719 5.391755,-2.69374 c 2.965467,-1.48156 5.411002,-2.71427 5.434527,-2.73936 0.02352,-0.0251 -0.37633,-1.70143 -0.888568,-3.72523 -1.940954,-7.66853 -1.9976,-15.68989 -0.164352,-23.273031 0.435208,-1.800219 0.717349,-3.348447 0.626979,-3.44051 -0.09037,-0.09206 -4.226594,-2.269251 -9.191608,-4.838195 l -9.027299,-4.670808 -2.32526,1.76822 c -2.835826,2.156479 -6.777965,4.12419 -10.31137,5.146906 -2.269038,0.656753 -3.396772,0.765179 -7.958526,0.765179 -4.567978,0 -5.68833,-0.108008 -7.972319,-0.768584 C 8.4963766,89.804658 -0.67500366,77.095669 0.11160112,63.280279 0.88024047,49.78042 10.106962,38.653966 23.152494,35.49539 c 4.082458,-0.988441 9.803259,-0.988847 13.844708,-9.97e-4 15.514242,3.79222 25.437945,18.87677 22.640319,34.414473 -0.32284,1.793001 -0.454818,3.353636 -0.296511,3.506196 0.156909,0.151212 4.009475,2.180659 8.56126,4.509878 l 8.275971,4.234945 1.354119,-1.633584 C 85.732547,70.633733 95.349528,64.7861 108.04153,61.975111 l 0.91349,-0.202318 v -6.770415 -6.770412 l -3.23875,-1.567819 c -2.79822,-1.354544 -3.6471,-1.980298 -6.240811,-4.600404 -4.805617,-4.854511 -6.797255,-9.695086 -6.797255,-16.520364 0,-4.239457 0.531292,-6.482921 2.472807,-10.441828 3.062822,-6.2453318 8.951339,-10.836709 15.978229,-12.4584996 2.66669,-0.6154651 7.92111,-0.4647254 10.88061,0.3121446 6.48577,1.7025139 11.93949,6.1529754 14.99096,12.233233 1.87075,3.727594 2.35267,5.953049 2.32177,10.721606 -0.023,3.55176 -0.1539,4.536563 -0.905,6.809689 -2.2029,6.666872 -7.18518,12.096462 -13.42698,14.632454 l -1.91793,0.779241 -0.0899,6.455621 -0.0899,6.455625 2.74737,0.394344 c 11.62685,1.668862 21.44631,6.560846 29.67192,14.78233 7.34693,7.343256 11.63745,15.247959 13.80167,25.427721 0.97714,4.5961 1.07187,13.58266 0.18997,18.0202 -2.01667,10.14744 -6.326,18.49791 -13.26253,25.69966 -14.07509,14.61326 -34.88616,19.68688 -54.30227,13.23857 -10.032097,-3.33177 -18.945119,-9.795 -25.180416,-18.25946 -1.076671,-1.4616 -1.983861,-2.70266 -2.015977,-2.75794 -0.03212,-0.0553 -2.245087,0.98979 -4.917714,2.32234 -3.716197,1.85288 -4.809461,2.54074 -4.647374,2.92402 0.523599,1.23815 0.518663,7.18752 -0.0078,9.42875 -1.816237,7.73168 -8.867779,14.34797 -16.311032,15.30425 -3.152543,0.40502 -3.65751,0.42149 -5.641295,0.18394 z m 7.343702,-10.0528 c 0.933153,-0.4801 2.382557,-1.63581 3.220899,-2.56825 3.929038,-4.37004 3.882599,-10.69463 -0.110606,-15.06384 -5.427122,-5.93814 -15.080587,-4.40402 -18.480943,2.93696 -1.302737,2.81247 -1.316343,6.46015 -0.03441,9.22462 1.135584,2.44885 3.701907,4.9657 5.982488,5.86716 2.562615,1.01293 7.049978,0.82404 9.42257,-0.39665 z m 72.368806,-18.93042 c 0.43066,-0.95917 1.20717,-2.7794 1.72557,-4.04494 0.9243,-2.25646 0.97811,-2.31379 2.77958,-2.9613 l 1.83702,-0.6603 3.31177,1.34602 c 5.17762,2.10436 4.56353,2.14249 7.17134,-0.44533 1.25716,-1.24753 2.28386,-2.49647 2.28156,-2.77541 -0.002,-0.27895 -0.73175,-2.13561 -1.621,-4.12592 l -1.61682,-3.61873 0.74829,-1.69554 0.74828,-1.69554 3.94538,-1.67195 3.94538,-1.67194 0.0938,-3.50994 0.0938,-3.50993 -2.41903,-1.00149 c -1.33047,-0.55081 -3.14214,-1.27153 -4.02595,-1.60159 -1.42935,-0.5338 -1.69343,-0.79577 -2.39002,-2.37087 l -0.78311,-1.77077 0.85166,-1.910032 c 0.46842,-1.05052 1.21584,-2.869603 1.66094,-4.042408 l 0.80927,-2.132376 -2.25162,-2.269008 c -1.23839,-1.247957 -2.52672,-2.269012 -2.86295,-2.269012 -0.33623,0 -2.20875,0.686763 -4.16116,1.526141 l -3.54983,1.526141 -1.74966,-0.585497 c -0.96232,-0.322025 -1.87147,-0.747195 -2.02035,-0.944826 -0.14887,-0.19763 -0.83374,-1.704658 -1.52192,-3.348948 -1.99191,-4.759308 -1.65526,-4.484429 -5.49198,-4.484429 -2.23228,0 -3.38118,0.131217 -3.56327,0.406966 -0.14781,0.22383 -0.95118,2.047455 -1.78527,4.052496 l -1.51654,3.645529 -1.81779,0.65364 -1.8178,0.653641 -3.87493,-1.550427 c -2.13121,-0.852736 -3.997826,-1.550427 -4.148035,-1.550427 -0.150205,0 -1.349288,1.083737 -2.664631,2.408305 l -2.391533,2.408305 1.178757,2.657439 c 2.313022,5.214587 2.301469,5.165717 1.634419,6.912357 -0.325321,0.85184 -0.758845,1.67707 -0.963389,1.83383 -0.204543,0.15676 -1.791964,0.84284 -3.527604,1.52462 -4.882979,1.9181 -4.65052,1.64967 -4.65052,5.37014 v 3.16889 l 2.076125,0.93425 c 1.141869,0.51384 3.012603,1.27272 4.157192,1.68638 1.893589,0.68436 2.140468,0.88641 2.740485,2.24284 0.362677,0.8199 0.659417,1.72227 0.659417,2.00526 0,0.28299 -0.696891,2.21671 -1.548646,4.29715 l -1.548647,3.78262 2.431425,2.44776 2.431427,2.44776 2.023798,-0.77528 c 1.11308,-0.4264 2.92068,-1.18017 4.01687,-1.67504 l 1.99308,-0.89975 1.79496,0.60625 c 1.67677,0.56634 1.84875,0.72733 2.61172,2.445 0.44921,1.0113 1.27053,2.84773 1.82515,4.08095 l 1.00839,2.24222 h 3.45709 3.45709 z m -7.68785,-18.73081 c -0.76291,-0.27033 -2.09242,-1.11235 -2.95447,-1.87115 -4.22826,-3.72187 -4.23112,-10.04747 -0.006,-13.76637 3.85441,-3.39279 9.38457,-3.24031 12.98286,0.35798 6.0065,6.00651 1.7499,15.91819 -6.78419,15.79727 -1.01798,-0.0144 -2.47506,-0.2474 -3.23797,-0.51773 z M 34.664857,82.186569 c 13.482015,-3.47606 18.002123,-20.44236 8.0459,-30.200408 -3.743642,-3.669124 -7.390718,-5.161419 -12.648472,-5.17544 -8.579153,-0.02289 -15.843509,5.860863 -17.627598,14.277429 -0.880331,4.153024 -0.444547,7.422162 1.540824,11.558846 2.260676,4.710301 6.74423,8.390397 11.677836,9.585155 2.461637,0.596127 6.603884,0.575173 9.01151,-0.04558 z M 120.41523,37.979023 c 3.12762,-1.084963 6.36839,-4.157428 7.66934,-7.271036 2.05911,-4.928147 0.73608,-10.897486 -3.2395,-14.616175 -2.294,-2.14577 -4.80968,-3.220575 -7.96565,-3.403272 -8.11312,-0.469661 -14.3076,5.724814 -13.83794,13.837938 0.49357,8.526003 9.22269,14.280127 17.37375,11.452545 z"
         id="path10399" />
      <path
         style="fill:#2c5aa0;fill-opacity:100%;stroke-width:0.33218"
         d="m 40.265849,167.26945 c -4.576841,-1.10821 -9.464506,-4.62949 -12.001316,-8.64624 -5.176796,-8.19688 -4.118131,-18.33251 2.622182,-25.10471 4.148244,-4.16786 8.490347,-5.98712 14.289757,-5.98712 4.601097,0 7.965864,1.06019 11.87921,3.74294 l 1.415545,0.97041 5.394144,-2.71878 c 2.966782,-1.49533 5.428853,-2.74669 5.471272,-2.7808 0.04242,-0.0341 -0.219341,-1.0986 -0.58169,-2.36552 -2.424771,-8.47806 -2.354604,-18.53275 0.190273,-27.26596 0.228141,-0.782912 0.211774,-0.792559 -12.48222,-7.358019 l -5.820729,-3.01054 -2.151589,1.686654 c -2.505145,1.963811 -7.857209,4.601738 -10.954355,5.399189 -2.979029,0.76704 -9.027861,1.029134 -12.145226,0.52625 C 13.494988,92.43815 3.8172571,83.552885 0.94944535,71.916957 -0.0784005,67.746551 -0.07922156,61.81014 0.94746887,57.63322 3.7071353,46.40598 12.684932,37.744255 24.044703,35.349144 c 2.79878,-0.590097 8.575583,-0.668106 11.410266,-0.154078 7.677114,1.392126 14.969168,6.098575 19.378478,12.507289 1.547699,2.249499 3.548227,6.66542 4.348458,9.598685 0.915478,3.355695 1.038268,10.77711 0.231563,13.995435 l -0.510584,2.036954 8.302515,4.274465 c 4.566382,2.350954 8.51731,4.325441 8.779835,4.387755 0.262525,0.06231 0.718864,-0.231563 1.014086,-0.653049 2.697968,-3.851889 7.66735,-8.452781 12.760878,-11.814628 5.459533,-3.603421 11.096852,-5.931398 18.281332,-7.54943 l 0.91349,-0.205729 v -6.969451 c 0,-5.714491 -0.0828,-6.96945 -0.4598,-6.96945 -1.22998,0 -5.94642,-2.819899 -8.19635,-4.900488 -4.873542,-4.506749 -7.263433,-9.652565 -7.544056,-16.243557 -0.300745,-7.06368 1.842124,-12.674393 6.69224,-17.5223949 4.626096,-4.6240816 10.007116,-6.8422125 16.598706,-6.8422125 7.2266,0 13.29133,2.8349963 18.10785,8.4646374 1.92343,2.248137 4.20661,7.059192 4.84369,10.20648 2.24625,11.096894 -4.01212,22.609395 -14.40333,26.495449 l -2.01957,0.755268 v 6.376316 6.376317 l 4.24144,0.698206 c 21.67488,3.568018 38.17258,19.329268 42.3291,40.439547 0.93544,4.75098 1.00065,12.75304 0.14217,17.4473 -1.86646,10.20601 -6.49793,18.96418 -13.97156,26.42039 -9.1237,9.10243 -19.7736,14.00548 -32.84821,15.12281 -11.77906,1.00661 -24.50221,-2.47261 -34.270705,-9.37154 -3.64916,-2.57719 -9.444939,-8.26536 -11.626285,-11.41041 -0.887014,-1.2789 -1.722124,-2.45305 -1.855796,-2.60924 -0.133676,-0.15618 -2.425406,0.81545 -5.092738,2.15917 -3.6833,1.85555 -4.799511,2.56298 -4.641052,2.94141 0.529851,1.26541 0.527921,7.18849 -0.003,9.30315 -1.845622,7.35066 -7.594743,13.2402 -14.729184,15.08892 -2.408916,0.62421 -7.485928,0.64456 -9.982702,0.04 z m 9.561142,-9.36411 c 2.2321,-0.99931 4.409789,-3.05118 5.591725,-5.26866 0.789093,-1.48045 0.885299,-2.02179 0.885528,-4.9827 2.2e-4,-2.84749 -0.110861,-3.53011 -0.777972,-4.78074 -4.696699,-8.80494 -16.423129,-8.65897 -20.602215,0.25645 -1.24235,2.65036 -1.247037,6.38848 -0.01129,9.02388 2.771493,5.9107 9.104165,8.35293 14.914245,5.75177 z m 72.334669,-17.80845 c 0.18314,-0.22837 0.96516,-2.0114 1.73782,-3.96229 l 1.40484,-3.54706 1.79892,-0.73013 1.79893,-0.73013 3.39667,1.32914 c 5.33106,2.08608 4.65374,2.12847 7.25625,-0.4541 1.25716,-1.24753 2.28574,-2.52156 2.28574,-2.83118 0,-0.30963 -0.67266,-2.05031 -1.4948,-3.86819 -0.82215,-1.81788 -1.49481,-3.53679 -1.49481,-3.8198 0,-0.28302 0.28174,-1.17185 0.62609,-1.97519 0.60237,-1.40528 0.75655,-1.51424 4.0692,-2.87578 5.2305,-2.14979 4.93792,-1.82279 4.93792,-5.5189 v -3.1413 l -1.24567,-0.6246 c -0.68512,-0.34354 -2.57012,-1.12004 -4.18888,-1.72558 -2.81913,-1.05455 -2.96968,-1.16271 -3.57094,-2.56539 -0.34525,-0.80543 -0.62772,-1.70257 -0.62772,-1.99364 0,-0.29107 0.69689,-2.231395 1.54864,-4.311838 l 1.54865,-3.782619 -2.4236,-2.439878 -2.42359,-2.439879 -1.20183,0.424028 c -0.661,0.233214 -2.50331,0.989288 -4.09402,1.680166 l -2.89219,1.256139 -1.74063,-0.661387 c -1.98909,-0.755796 -1.77884,-0.469742 -3.79868,-5.168122 l -1.53515,-3.570934 h -3.57231 -3.57232 l -0.99698,2.408304 c -0.54834,1.324568 -1.25762,3.106766 -1.57618,3.960442 -0.50722,1.359284 -0.78901,1.642401 -2.26786,2.278588 -1.90339,0.818817 -1.66324,0.860207 -6.97592,-1.202305 l -3.254237,-1.263377 -2.471053,2.47319 -2.471053,2.473186 1.653309,3.820069 c 0.909319,2.101038 1.654558,3.987917 1.656086,4.193067 0.0017,0.20515 -0.291444,1.03815 -0.651056,1.85111 -0.639336,1.44532 -0.746156,1.51687 -4.816609,3.22624 l -4.162773,1.74813 v 3.25282 c 0,2.29462 0.129607,3.36039 0.439979,3.61797 0.24199,0.20084 2.131367,1.00411 4.198612,1.78505 l 3.758633,1.4199 0.665246,1.75079 0.665247,1.75079 -1.609086,3.98664 -1.60909,3.98664 2.436789,2.45316 2.436786,2.45315 1.23461,-0.43559 c 0.67904,-0.23958 2.52708,-0.99083 4.10675,-1.66945 l 2.87213,-1.23386 1.80337,0.73193 c 1.54009,0.62508 1.88258,0.92994 2.34605,2.08825 0.29848,0.74597 1.07777,2.52688 1.73175,3.95757 l 1.18907,2.60127 h 3.40099 c 2.32175,0 3.50665,-0.13177 3.73396,-0.41523 z m -6.92541,-20.01159 c -1.86911,-0.60032 -4.39757,-2.76794 -5.37764,-4.61018 -0.96327,-1.81067 -1.04737,-6.438 -0.1471,-8.09347 0.98676,-1.81453 2.59117,-3.40987 4.3624,-4.33773 1.4218,-0.74483 2.11359,-0.88574 4.34824,-0.88574 2.2405,0 2.92521,0.14023 4.36413,0.89379 8.47974,4.44082 5.73583,16.90583 -3.83201,17.40802 -1.3335,0.07 -2.79072,-0.0769 -3.71802,-0.37469 z M 34.699002,82.204175 c 3.039845,-0.791781 5.781801,-2.411241 8.208747,-4.848273 6.884127,-6.912737 7.035319,-17.689239 0.349524,-24.912911 -3.598399,-3.887887 -7.813351,-5.706934 -13.194988,-5.694567 -3.503003,0.008 -5.004245,0.368916 -8.466575,2.035167 -2.270684,1.092769 -5.846725,4.57728 -7.257343,7.071583 -1.223414,2.163285 -2.379889,6.332555 -2.379889,8.579862 0,8.123497 5.440676,15.46105 13.08732,17.650175 2.559727,0.732812 7.082481,0.788552 9.653204,0.118964 z M 118.65493,38.491557 c 5.30701,-1.126031 9.30084,-5.344914 10.27039,-10.849137 0.96152,-5.458674 -2.07787,-11.2032 -7.28344,-13.765898 -2.07145,-1.019769 -2.42717,-1.087594 -5.70409,-1.087594 -3.10384,0 -3.70927,0.100464 -5.41098,0.897892 -2.44695,1.146653 -5.15999,3.860232 -6.4088,6.410066 -0.89154,1.82035 -0.97614,2.295358 -0.97614,5.480969 0,3.088966 0.10182,3.705135 0.89026,5.387316 1.68817,3.601809 5.22849,6.504042 9.07514,7.439481 2.15747,0.524658 3.39328,0.544017 5.54766,0.08691 z"
         id="path10397" />
      <path
         style="fill:#2c5aa0;fill-opacity:100%;stroke-width:0.33218"
         d="m 40.193773,167.21666 c -7.0439,-1.89107 -12.328083,-7.09308 -14.490499,-14.26516 -0.95374,-3.16327 -0.804502,-8.25587 0.339828,-11.59627 2.867035,-8.36912 10.318796,-13.80701 18.901382,-13.79322 4.854734,0.008 8.425957,1.1175 12.139486,3.77215 l 1.44383,1.03213 5.458159,-2.81982 c 4.715971,-2.43639 5.433643,-2.91016 5.277874,-3.48418 -1.850206,-6.81816 -2.148736,-8.88836 -2.155569,-14.9481 -0.0053,-4.68549 0.562098,-9.39249 1.535987,-12.742555 0.434661,-1.495178 0.445616,-1.847412 0.06825,-2.19452 -0.247235,-0.227414 -4.442807,-2.453139 -9.32349,-4.946063 l -8.873975,-4.532582 -1.091424,0.939401 c -2.957886,2.545887 -6.857011,4.623287 -11.124393,5.926928 -2.650856,0.809808 -3.415328,0.892653 -8.23693,0.892653 -4.821603,0 -5.586076,-0.08285 -8.236929,-0.892653 C 9.9499316,89.936982 1.7439073,80.187281 0.30631028,67.997699 -1.4706808,52.930342 9.0511832,38.446271 23.985997,35.400974 c 3.183837,-0.649205 8.716835,-0.673023 11.965204,-0.05151 6.935495,1.326982 13.660146,5.505068 17.926196,11.137717 2.136153,2.820451 4.408845,7.461024 5.296018,10.813856 0.91587,3.461272 1.025529,10.54477 0.213413,13.785467 -0.503967,2.011034 -0.502917,2.181811 0.01528,2.489174 0.306001,0.1815 4.218845,2.219271 8.695205,4.52838 l 8.138834,4.198376 2.579244,-3.099508 C 85.222744,71.503134 95.181718,65.277225 105.08152,62.782511 l 3.70741,-0.934253 0.0895,-6.939249 0.0895,-6.939249 -1.715,-0.616702 C 102.58457,45.67437 97.590155,41.015018 95.141424,36.05416 93.165631,32.051421 92.56598,29.092692 92.782535,24.415226 c 0.337554,-7.291027 3.782157,-13.690619 9.548825,-17.7403936 4.63828,-3.2573339 9.19812,-4.5515375 15.0544,-4.2728314 10.07345,0.4794061 18.76489,7.610775 21.3634,17.528795 0.76611,2.924065 0.75471,8.741201 -0.0227,11.583917 -2.04068,7.462135 -7.52048,13.53658 -14.57422,16.155753 l -1.57786,0.585885 v 6.412027 6.412023 l 1.57786,0.209429 c 12.62189,1.675283 22.8019,6.554425 31.1465,14.92809 6.7294,6.752843 11.09074,14.449628 13.25683,23.395311 5.44032,22.467929 -5.54049,45.567949 -26.70073,56.169569 -11.3272,5.6751 -24.80141,6.99511 -37.21818,3.6461 -11.49472,-3.10031 -21.827154,-10.27906 -28.582993,-19.85884 -0.794192,-1.12616 -1.574154,-2.04756 -1.733248,-2.04756 -0.159091,0 -2.384876,1.06333 -4.94619,2.36296 -4.175867,2.11887 -4.63478,2.43628 -4.442548,3.07266 0.117911,0.39034 0.299952,1.99717 0.404542,3.57073 0.636221,9.57212 -5.823204,18.30219 -15.329908,20.71876 -2.48242,0.63102 -7.404666,0.61549 -9.812562,-0.031 z m 7.819483,-8.61167 c 5.093105,-1.30991 8.491957,-5.68184 8.512619,-10.94975 0.02023,-5.1613 -3.338143,-9.52761 -8.426376,-10.95529 -7.334383,-2.05793 -14.815979,4.20495 -14.125091,11.82418 0.524774,5.78729 5.319705,10.29934 11.215318,10.55366 0.464039,0.02 1.734627,-0.19274 2.82353,-0.4728 z m 75.133834,-20.50118 c 0.54834,-1.32457 1.25792,-3.10755 1.57683,-3.96218 0.51988,-1.39314 0.76461,-1.62886 2.36589,-2.27877 l 1.78604,-0.7249 3.82673,1.53137 c 2.10471,0.84225 4.01658,1.53137 4.2486,1.53137 0.23202,0 1.4987,-1.08408 2.81484,-2.40907 l 2.39299,-2.40907 -1.6539,-3.80143 c -0.90964,-2.0908 -1.65389,-3.97733 -1.65389,-4.19231 0,-0.99079 1.39637,-3.44131 2.08268,-3.65493 0.40747,-0.12682 2.27805,-0.90159 4.15686,-1.7217 l 3.41602,-1.49111 -0.0942,-3.362 -0.0942,-3.36199 -1.16263,-0.56102 c -0.63944,-0.30857 -2.47191,-1.03846 -4.07214,-1.622 -2.79737,-1.02008 -2.93502,-1.11862 -3.57094,-2.55622 -0.36378,-0.82238 -0.66488,-1.66309 -0.66912,-1.86824 -0.004,-0.20515 0.69931,-2.134678 1.56344,-4.287845 l 1.57116,-3.914843 -2.51235,-2.51235 -2.51235,-2.512347 -4.04896,1.726054 -4.04897,1.726053 -1.78237,-0.723411 c -1.60739,-0.652392 -1.85331,-0.892007 -2.50495,-2.440729 -0.39742,-0.944524 -1.18021,-2.726314 -1.73953,-3.959532 l -1.01694,-2.242214 h -3.57158 -3.57158 l -1.14573,2.740484 c -0.63015,1.507267 -1.3456,3.294976 -1.58989,3.972686 -0.37302,1.034837 -0.73032,1.348342 -2.2307,1.957304 l -1.78654,0.725099 -3.38344,-1.350401 c -5.208454,-2.078802 -4.678654,-2.128201 -7.480379,0.697468 l -2.436042,2.456856 1.688637,3.784317 c 0.928752,2.081373 1.688637,3.906091 1.688637,4.054931 0,0.14884 -0.312937,0.99807 -0.695419,1.88717 -0.646499,1.50282 -0.850965,1.67835 -2.906574,2.49524 -1.216134,0.48328 -3.070672,1.2614 -4.121191,1.72915 l -1.910035,0.85046 v 3.41727 3.41727 l 4.069205,1.58182 c 2.238062,0.87 4.179886,1.74087 4.315167,1.93529 0.135277,0.1944 0.493911,0.99398 0.796959,1.77683 l 0.551004,1.42336 -1.544368,3.79689 c -0.849404,2.08829 -1.525839,3.98895 -1.503191,4.2237 0.02266,0.23474 1.132927,1.45164 2.46728,2.70422 l 2.426103,2.27742 4.026647,-1.72802 4.02665,-1.72801 1.78683,0.72522 c 1.68537,0.68404 1.83383,0.84147 2.61436,2.7724 0.45513,1.12594 1.21133,2.90669 1.68044,3.95721 l 0.85293,1.91004 h 3.61211 3.61212 z m -7.21629,-17.81323 c -6.71378,-2.21044 -9.18044,-9.80135 -4.83472,-14.87834 4.30872,-5.03378 12.33289,-4.23648 15.59659,1.5497 0.90212,1.59936 1.02947,2.1374 1.02215,4.31834 -0.0131,3.90301 -1.66748,6.53167 -5.26782,8.37015 -1.48202,0.75678 -5.08645,1.11088 -6.5162,0.64015 z M 35.733012,81.940261 c 2.886766,-1.034853 5.040455,-2.396867 7.125037,-4.505938 3.550362,-3.592071 5.308043,-7.804255 5.308043,-12.720439 0,-8.486177 -6.085052,-15.94279 -14.449828,-17.706795 -2.922268,-0.61626 -4.382936,-0.616516 -7.307959,-0.0013 -3.440646,0.723704 -6.272832,2.290032 -9.005287,4.980341 -9.4495483,9.303792 -6.012,25.049304 6.497718,29.762462 3.335101,1.256534 8.622815,1.342173 11.832276,0.191638 z M 121.8053,37.36552 c 9.83096,-4.830823 9.69622,-18.777289 -0.22744,-23.540272 -1.99478,-0.957419 -2.42473,-1.03632 -5.64706,-1.03632 -3.08896,0 -3.70514,0.101823 -5.38732,0.890261 -2.65149,1.242753 -5.02815,3.5758 -6.32492,6.208863 -1.00743,2.045558 -1.07669,2.411046 -1.07669,5.681938 0,3.102537 0.10074,3.710703 0.89552,5.406668 3.21059,6.850951 11.07371,9.678317 17.76791,6.388862 z"
         id="path10395" />
      <path
         style="fill:#2c5aa0;fill-opacity:100%;stroke-width:0.33218"
         d="m 40.434653,167.23075 c -7.849227,-1.90173 -13.776812,-8.39682 -15.110381,-16.55703 -0.452762,-2.77048 -0.451651,-3.39651 0.01089,-6.13975 0.960369,-5.69569 3.998633,-10.45908 8.659604,-13.57653 3.370826,-2.25455 5.917118,-3.09491 10.022809,-3.30788 4.978727,-0.25824 8.533367,0.69802 12.580575,3.3844 l 1.938665,1.28681 5.306797,-2.63097 c 2.918739,-1.44704 5.369367,-2.72986 5.445841,-2.85073 0.07648,-0.12086 -0.22448,-1.57813 -0.668788,-3.23836 -1.874641,-7.00492 -2.022338,-16.17828 -0.376712,-23.39702 0.493341,-2.164099 0.848923,-3.973676 0.79018,-4.021284 -0.05874,-0.04761 -4.24624,-2.207229 -9.305556,-4.799156 l -9.198757,-4.71259 -2.083811,1.679156 c -2.629184,2.11862 -7.298844,4.444056 -10.74359,5.350183 -4.015441,1.056243 -9.485462,1.205876 -13.520414,0.369853 C 12.884405,91.729039 4.0000082,83.275591 1.098711,72.106243 0.09936063,68.258965 -0.05105447,62.347677 0.75565678,58.624272 2.7931074,49.220344 8.9287859,41.598828 17.732153,37.536682 c 4.473588,-2.064252 6.62262,-2.492177 12.496222,-2.488303 4.378327,0.003 5.546448,0.11793 7.806228,0.76879 10.538386,3.035261 18.546912,11.318869 21.155385,21.882038 0.907532,3.67511 0.99532,10.094617 0.183074,13.3873 -0.292946,1.187544 -0.430552,2.250699 -0.305785,2.362564 0.124764,0.111868 4.054888,2.166009 8.733609,4.564757 l 8.506769,4.36136 1.573377,-2.00266 C 84.448213,72.013555 94.843034,65.37766 105.64654,62.647446 l 3.14239,-0.794132 0.0895,-6.961127 0.0895,-6.961126 -1.82916,-0.69998 c -3.808,-1.457246 -7.487614,-4.363067 -10.021629,-7.91417 C 87.468513,25.795574 94.336506,7.0391949 110.41992,2.9872256 c 5.34622,-1.3468977 10.91372,-0.7024576 16.11577,1.8654048 2.55265,1.2600552 3.62619,2.0435577 5.81315,4.2426102 3.00017,3.0167674 4.4945,5.3280494 5.71635,8.8414854 4.11533,11.833609 -1.73291,24.67245 -13.39731,29.411608 l -1.92739,0.783085 -0.09,6.478485 -0.09,6.478485 1.25264,0.188127 c 7.89303,1.185391 12.63207,2.578723 18.19382,5.349194 4.89969,2.440668 9.25192,5.593863 13.27741,9.619479 15.12297,15.123418 18.92437,37.819441 9.49068,56.663541 -6.98701,13.95679 -19.44126,23.53733 -35.39092,27.22477 -4.70218,1.0871 -14.34264,1.26561 -19.62622,0.3634 -7.81545,-1.33454 -15.449443,-4.48082 -21.707245,-8.94644 -3.833895,-2.73591 -8.817135,-7.64619 -11.468725,-11.30082 -1.088258,-1.49993 -2.099248,-2.72714 -2.246639,-2.72714 -0.147395,0 -2.373914,1.05497 -4.947824,2.34438 -4.23456,2.12132 -4.65993,2.41367 -4.470654,3.07266 0.115047,0.40056 0.294554,1.99887 0.398902,3.55181 0.391491,5.82633 -1.60915,11.0565 -5.846254,15.28359 -2.881641,2.87482 -5.459138,4.3691 -9.176062,5.31973 -3.00195,0.76777 -7.022437,0.82326 -9.858716,0.13608 z m 9.57318,-9.24321 c 7.168423,-3.28182 8.834635,-12.79577 3.223634,-18.40677 -5.590602,-5.5906 -15.098206,-3.76431 -18.471367,3.54813 -1.004825,2.17828 -0.987096,6.84692 0.03449,9.08249 1.413568,3.09337 4.593703,5.71116 7.972225,6.56249 1.937712,0.48828 5.240265,0.12963 7.241021,-0.78634 z m 72.878127,-19.21937 c 0.51384,-1.14187 1.26636,-2.99518 1.67226,-4.11847 0.7156,-1.98036 0.79397,-2.06376 2.58226,-2.7481 l 1.84425,-0.70575 3.75496,1.50242 c 2.06523,0.82633 3.9232,1.50243 4.12884,1.50243 0.20563,0 1.48488,-0.99829 2.84276,-2.21841 2.82401,-2.53751 2.77618,-1.99016 0.60215,-6.89094 -0.80422,-1.81292 -1.46222,-3.4295 -1.46222,-3.5924 0,-0.16291 0.31053,-1.01806 0.69007,-1.90033 0.59647,-1.38651 0.90064,-1.68275 2.24222,-2.1837 0.85367,-0.31876 2.71061,-1.10285 4.12653,-1.74243 l 2.57439,-1.16286 v -3.41641 -3.41641 l -4.0692,-1.58182 c -2.23806,-0.86999 -4.17989,-1.74087 -4.31517,-1.93529 -0.13527,-0.1944 -0.48842,-0.97962 -0.78477,-1.74491 l -0.53881,-1.39145 1.5558,-3.844208 c 0.85569,-2.114315 1.5078,-4.03786 1.44913,-4.274541 -0.0587,-0.236685 -1.17523,-1.434609 -2.48126,-2.66206 l -2.3746,-2.231725 -1.77765,0.69899 c -0.97771,0.384442 -2.8008,1.14726 -4.05132,1.695154 l -2.27366,0.996165 -1.76631,-0.716891 c -1.36757,-0.555056 -1.85941,-0.954569 -2.17874,-1.769759 -0.22684,-0.579079 -1.00908,-2.360829 -1.73831,-3.959445 l -1.32588,-2.906574 h -3.56638 -3.56638 l -1.1636,2.740484 c -0.63998,1.507267 -1.35401,3.283323 -1.58672,3.946793 -0.35231,1.004399 -0.72072,1.32965 -2.20107,1.943219 l -1.77793,0.736911 -3.81831,-1.527994 c -2.10008,-0.840395 -3.98205,-1.527995 -4.182179,-1.527995 -0.487906,0 -5.279828,4.30667 -5.279828,4.745171 0,0.189967 0.758583,2.055393 1.68574,4.145386 l 1.685741,3.799989 -0.701365,1.72805 -0.701365,1.72806 -4.05704,1.65549 -4.05704,1.6555 -0.09392,3.52285 -0.09392,3.52285 2.41918,0.99782 c 1.33055,0.5488 3.200311,1.27124 4.155026,1.60543 1.607349,0.56262 1.788637,0.73768 2.449093,2.36494 l 0.71325,1.75734 -1.535598,3.68638 c -0.844577,2.02751 -1.535598,3.94379 -1.535598,4.2584 0,0.31461 1.043281,1.57922 2.318404,2.81025 2.648208,2.55663 2.035725,2.52929 7.216189,0.32207 l 3.38927,-1.44406 1.77884,0.68072 1.77884,0.68072 1.45745,3.48508 c 2.12116,5.07212 1.76864,4.776 5.68545,4.776 h 3.32379 z m -7.55144,-18.81608 c -2.33106,-0.80516 -3.92604,-2.14771 -5.18183,-4.36174 -0.90062,-1.58784 -1.03158,-2.13499 -1.03158,-4.31007 0,-2.17235 0.13195,-2.72528 1.03052,-4.31834 3.68539,-6.53381 12.98521,-6.50094 16.58205,0.0586 0.82572,1.50586 0.97049,2.13831 0.97522,4.26027 0.005,2.17487 -0.125,2.72426 -1.0206,4.31834 -1.23055,2.19029 -3.19883,3.78678 -5.51757,4.47537 -2.21105,0.65662 -3.66931,0.62602 -5.83621,-0.12244 z M 35.963039,81.87721 C 41.703418,79.930596 46.171311,75.036685 47.717273,69.002198 48.419804,66.25995 48.174047,61.390275 47.193807,58.62976 44.200301,50.199561 35.069937,45.065746 26.472365,46.978525 c -3.72845,0.8295 -6.330692,2.259375 -9.069708,4.983599 -5.722309,5.691412 -7.033787,13.404942 -3.533977,20.785283 3.814474,8.043897 13.497461,12.045087 22.094359,9.129803 z M 119.42866,38.350231 c 8.25004,-2.148862 12.27225,-11.925557 7.94446,-19.310382 -2.03144,-3.466391 -5.42381,-5.747413 -9.52107,-6.401954 -5.422,-0.866167 -11.10714,2.119293 -13.57265,7.127449 -5.00403,10.164629 4.1871,21.440166 15.14926,18.584887 z"
         id="path10393" />
    </g>
  </g>
</svg>
