<?xml version="1.0" encoding="UTF-8"?>
<svg width="740px" height="578px" viewBox="0 0 740 578" version="1.1" xmlns="http://www.w3.org/2000/svg" xmlns:xlink="http://www.w3.org/1999/xlink">
    <title>404</title>
    <g id="404" stroke="none" stroke-width="1" fill="none" fill-rule="evenodd">
        <g id="Group" transform="translate(-0.100000, -102.000000)">
            <path d="M53.8112777,519.87459 C70.1175596,435.901252 235.117775,483.739664 343.290069,457.779141 C451.462363,431.818618 579.439199,310.915231 664.13652,370.139775 C748.833842,429.364318 658.716864,572.527201 464.457517,604.834305 C270.19817,637.141408 37.5049959,603.847928 53.8112777,519.87459 Z" id="Background-Shape" fill="#F2F2F2"></path>
            <path d="M687.985552,297.375543 C684.041234,294.700897 678.796053,294 674.075943,294 C655.640081,294 638.311227,300.840049 623.341136,311.031869 C615.13827,316.616354 607.800186,323.727973 601.321713,331.132413 C597.582329,335.406588 594.248011,340.030491 591.887402,345.173043 C590.294462,348.644032 589.201116,352.260531 588.460033,355.990844 C587.55685,360.53695 586.839399,365.17526 586.51483,369.797002 C586.387069,371.616957 585.32954,381.27428 588.355536,381.437799 C588.338181,381.675873 588.334119,381.902782 588.352582,382.10628 C581.782166,392.379859 577.722643,404.420088 573.958149,415.835416 C570.682911,425.768992 567.764367,435.786488 565.869751,446.062949 C563.375474,459.592494 561.737117,473.325536 560.958001,487.049575 C560.790732,489.999033 560.675895,492.949932 560.576936,495.903351 C560.493117,498.422403 560.40819,500.941454 560.325478,503.460505 C560.233166,506.283542 559.736156,509.533745 560.185163,512.340214 C560.575829,514.784349 562.691256,514.414451 562.784676,511.982202 C562.897666,509.04499 562.879204,506.102015 563.007702,503.162642 C563.178665,499.261606 563.354796,495.360571 563.545698,491.460615 C564.874625,464.36875 569.860224,437.675236 579.06117,412.084213 C582.784677,401.728154 587.051348,391.9246 592.535065,382.344715 C597.356348,373.921705 603.155772,365.767384 609.083695,358.172773 C614.845456,350.792465 620.835782,343.582879 627.895453,337.329912 C633.62435,332.255793 639.925953,327.835387 646.403688,323.72221 C654.631293,318.498258 662.843021,313.401088 671.755213,309.39092 C676.387811,307.306598 681.10792,305.44054 685.776704,303.440499 C686.616746,303.080686 687.517344,302.731678 688.325261,302.314958 C691.020409,300.925049 690.133103,298.831723 687.985552,297.375543" id="Fill-1" fill="#C1DEE2"></path>
            <path d="M628.1822,392 C620.704911,392 614.05129,392.971586 607.161789,395.943116 C601.214766,398.507723 595.795086,401.902835 590.533123,405.599146 C583.131565,410.797709 577.301613,416.848195 573.220786,424.86497 C570.782781,429.65423 568.994401,436.431196 570.631665,441.654916 C572.560392,447.807388 577.856053,452.93864 584.830664,451.85453 C589.14355,451.184822 593.097231,448.329896 596.375233,445.642906 C600.296606,442.428309 603.435651,438.563042 606.027551,434.270114 C610.255673,427.267419 612.740228,419.35093 616.331926,412.033439 C618.036237,408.560477 619.683227,405.062699 621.724509,401.762094 C622.735076,400.1276 623.810953,398.508743 625.343998,397.29409 C626.164194,396.64444 629.622492,395.519875 628.299967,394.060796 C647.690409,394.315421 664.868304,409.207408 668.590622,427.640687 C668.93732,429.358811 669.208287,431.090872 669.494539,432.819534 C669.675183,433.911123 669.60223,437.936508 670.578058,438.633752 C672.730158,440.17204 671.825546,435.499044 671.73314,434.826277 C671.494481,433.087417 671.239842,431.349916 670.972696,429.615475 C669.519203,420.181436 665.319221,411.411324 658.31508,404.683312 C650.305584,396.989832 639.498879,392 628.1822,392" id="Fill-20" fill="#89C5CC" transform="translate(621.000000, 422.000000) scale(-1, 1) translate(-621.000000, -422.000000) "></path>
            <g id="Plant" transform="translate(65.000000, 333.000000)">
                <path d="M9.93785602,35.7363701 C28.6043474,67.0518486 50.3448762,97.3738414 63.400835,131.612719 C62.8747124,127.576998 62.316848,123.545457 61.6924335,119.519653 C58.3796628,98.1788894 54.2624276,76.9938487 49.9359142,55.8347788 C47.7325965,45.061608 45.4023236,34.3274793 43.0122847,23.5942683 C41.7268475,17.8294571 40.457171,12.0611334 39.145247,6.30181171 C38.8274703,4.90590411 38.5544351,2.4694293 38.1565942,0 C50.8449133,41.636678 63.0807311,83.3047517 72.0307975,125.94239 C73.204927,131.538126 74.2047864,137.123918 75.0238081,142.699993 C75.3039851,141.427955 75.5795646,140.155702 75.8811982,138.88715 C79.5025613,123.679846 84.9347228,108.59358 91.4026624,94.3744557 C94.494721,87.5745292 98.0463864,80.9235176 102.228151,74.7261293 C104.835821,70.8630236 110.985519,66.2708832 113.364361,62.3144999 C100.354578,86.1759773 95.6569872,116.031633 88.1451337,141.973334 C86.3116359,148.30385 84.4667482,154.62409 82.659084,160.955464 C93.9872772,138.237255 111.563216,119.571486 136,111.482566 C106.420215,131.026943 88.6779699,165.254031 76.7221336,200.259757 C76.682738,200.674905 76.6358989,201.090058 76.5954089,201.505863 C80.1135643,194.828835 84.5452103,188.789483 90.5514934,184.559607 C103.406592,175.504479 117.667098,178.142392 130.137007,185.909854 C120.350227,179.688703 102.662664,185.353659 94.4280037,191.676694 C88.5328799,196.203004 83.4948291,202.275393 79.119821,208.199601 C78.071517,209.619676 76.6413193,211.276578 75.1303997,213.044484 C73.0120284,226.795282 69.5599117,240.451838 64.6724606,254 C65.4790179,250.11126 64.8958605,243.891877 65.11953,240.993318 C65.1438759,240.679499 65.1636243,240.365464 65.1877517,240.052521 C64.4448288,243.018848 63.7270637,245.951459 63.0359813,248.836783 C64.4097546,243.330925 65.1563919,237.583268 65.7392402,231.776207 C65.8893549,229.280566 66.0357479,226.784927 66.1904602,224.289502 C66.141426,219.553405 65.9463583,214.798592 65.6164284,210.036217 C64.4465561,205.407706 63.1367171,201.041891 62.0564998,197.41118 C58.158506,184.310429 52.4441742,171.759576 45.4108456,160.050843 C38.9937018,149.366014 31.3123836,139.687606 22.4447835,130.934599 C17.6643455,126.217405 12.6613846,121.724669 7.7288832,117.169517 C5.94526254,115.52278 2.75721952,111.473853 0,109.363232 C20.0804874,120.433766 40.7488532,132.410494 55.3976085,150.247606 C53.6802099,143.652644 51.8148695,137.151008 49.841671,130.779652 C39.8311473,98.4544622 27.1913357,64.9525261 9.93785602,35.7363701 Z" id="Fill-19" fill="#DDE3E9"></path>
                <path d="M30,213 C30,248.898509 32.8428117,278 71,278 C109.157188,278 112,248.898509 112,213" id="Base" fill="#C5CFD6"></path>
            </g>
            <g id="Diagrams" transform="translate(469.000000, 164.000000)">
                <g id="Chart" opacity="0.704706101" transform="translate(100.000000, 17.000000)">
                    <path d="M37.7664728,37.179 C35.8448939,39.219 33.1227826,40.5 30.095205,40.5 C24.2778019,40.5 19.5618833,35.799 19.5618833,30 C19.5618833,24.201 24.2778019,19.5 30.095205,19.5 L30.095205,0 C13.5458518,0 0,13.503 0,30 C0,46.497 13.5458518,60 30.095205,60 C38.788205,60 46.6445583,56.334 52,50.502 L37.7664728,37.179 Z" id="Value" fill="#F2F2F2"></path>
                    <path d="M30,0 L30,19.5 C35.799,19.5 40.5,24.201 40.5,30 L60,30 C60,13.503 46.497,0 30,0 Z" id="Value" fill="#AFB9C5"></path>
                    <path d="M40.0969635,30 C40.0969635,33.4069834 38.4924726,36.4354131 36,38.3907651 L48.2618015,54 C55.3993366,48.4117535 60,39.7492845 60,30 L40.0969635,30 Z" id="Value" fill="#C5CFD6"></path>
                </g>
                <g id="Graph" transform="translate(22.000000, 20.000000)">
                    <rect id="Value" fill="#DDE3E9" x="0" y="32" width="6" height="25" rx="3"></rect>
                    <rect id="Value" fill="#DDE3E9" x="14" y="16" width="6" height="41" rx="3"></rect>
                    <rect id="Value" fill="#DDE3E9" x="28" y="8" width="6" height="49" rx="3"></rect>
                    <rect id="Value" fill="#DDE3E9" x="42" y="16" width="6" height="41" rx="3"></rect>
                    <rect id="Value" fill="#C5CFD6" x="56" y="0" width="6" height="57" rx="3"></rect>
                </g>
                <path d="M3.24304318,9.79875353 C7.7530636,7.14127887 8.54989635,11.5835777 8.41939599,16.2378578 L8.4030365,16.7116369 C8.27733144,19.7924631 7.78769738,22.8638936 7.73876433,23.9365481 C7.3618268,32.2171265 7.87323361,40.1327311 8.69857856,48.3609414 C9.45457123,55.9024878 8.58528554,63.4098346 8.2951707,70.9519154 C8.14111337,74.9559406 8.05693772,78.9540878 7.75835237,82.9511661 C7.66469453,84.2096987 7.81123383,89.9235069 7.14195376,92.8922288 C7.6536227,92.8673779 8.15912015,92.857571 8.64073261,92.8549059 L9.19747748,92.8546492 C9.80136636,92.857098 10.3522466,92.8670654 10.8105836,92.8686008 L11.0741644,92.8683826 C11.2000858,92.8676399 11.3169668,92.8658513 11.4237398,92.862586 C17.6815971,92.6711601 23.9399894,92.5035272 30.1967768,92.2655966 C54.2662818,91.3506456 78.3491617,91.7643203 102.413852,90.6087349 C125.17529,89.5147952 148.020187,89.2828129 170.798745,89 C172.791608,89.1757441 173.682913,91.2906222 172.403735,92.9161204 C171.152378,94.5064697 165.350873,94.1576852 163.542584,94.3053103 C157.126902,94.8265944 150.723526,95.0612805 144.288585,95.1234669 C130.737116,95.2537879 117.237008,95.8410437 103.708009,96.6213478 C79.6700688,98.0067524 55.5968188,97.8921131 31.5460386,98.8811471 C25.7081538,99.1212407 19.869734,99.3007701 14.0291741,99.4554249 C10.9491977,99.5370784 2.88358626,101.412944 1.35777545,97.6920352 C0.284266316,95.0731334 1.76645248,93.8621459 3.94371006,93.308384 C3.50587643,91.4716386 3.68204904,88.6647054 3.69328189,87.6693636 L3.69342722,87.51553 L3.69342722,87.51553 L3.69198,87.453223 C3.57551054,84.140671 3.53474623,80.8265159 3.40821805,77.5150327 C3.10751508,69.6234747 2.90792878,61.6864954 2.30546402,53.8125716 C1.72999901,46.2859874 0.276248389,38.9875788 0.234425265,31.404886 C0.206366713,26.2765489 -1.20503138,13.2823035 3.24304318,9.79875353 Z M171,8.07570131 C171.004203,4.73083656 174.901635,4.05825385 176.630272,6.33293176 C178.283572,8.50887218 177.219557,15.0966791 177.259806,17.6999511 C177.372455,24.9586666 177.953939,32.1820352 178.583792,39.4060762 L178.929618,43.3467454 C179.672674,51.8158729 180.198489,60.2887163 180.771778,68.771115 C181.037523,72.6914175 183.964855,88.3381226 179.709827,90.6223557 C174.876084,93.2169183 175.156846,81.7516622 175.169572,77.2938325 L175.169609,76.8284255 C175.168355,76.4905362 175.16361,76.2108083 175.1519,76.0028389 C174.663754,67.3001389 174.050217,58.5857603 173.284972,49.904825 C172.048093,35.870832 170.989755,22.1664948 171,8.07570131 Z M137.176036,0.0165052127 C144.428702,-0.0488050222 151.641408,0.0745587549 158.883418,0.478860209 C162.095222,0.658204188 165.305427,0.831328144 168.519362,0.963503619 C170.376219,1.04021723 174.617953,0.447760097 176.246233,1.28590811 C180.284067,3.36470506 176.576265,4.27448241 172.897189,4.65615183 L172.529665,4.69258215 C170.756545,4.86038309 169.050676,4.90980295 168.289875,4.91320838 L168.146241,4.91328012 C168.10305,4.91310101 168.064642,4.91272677 168.031304,4.91218116 C161.387112,4.80333076 154.755706,4.30002729 148.112047,4.14141672 C123.676123,3.55725295 99.0579774,5.00444482 74.6438994,5.97891499 C62.8996096,6.44800835 51.1617135,6.51487359 39.4216861,7.15657256 C33.0050051,7.50748549 26.591521,7.90867693 20.1737743,8.23781979 C17.2150572,8.389692 14.2552746,8.53689919 11.292295,8.60946612 C9.46740644,8.65456128 5.75102763,9.39007893 4.06413797,8.71883485 C2.62767098,8.14711113 1.4661361,7.34783825 2.25576669,5.65391882 C3.1061381,3.83093393 6.80706531,4.60688172 8.37353896,4.57733662 C14.0288285,4.47055957 19.6718634,4.16163179 25.3170295,3.82523225 C38.1349399,3.0617245 50.9256768,2.16863295 63.7696951,1.95559719 C88.2455795,1.54922239 112.688962,0.237316007 137.176036,0.0165052127 Z" id="Image-Border" fill="#DDE3E9"></path>
            </g>
            <g id="Image" transform="translate(601.000000, 506.000000) scale(-1, 1) translate(-601.000000, -506.000000) translate(530.000000, 459.000000)">
                <path d="M71.007,76.9862978 C71.003,76.9962978 70.999,77.0062978 70.993,77.0182978 C70.999,77.0082978 71.007,76.9682978 71.007,76.9862978" id="Fill-35" fill="#C5CFD6"></path>
                <path d="M70.9976864,77.0014952 C70.9976864,77.0034952 70.9956864,77.0074952 70.9956864,77.0114952 C70.9956864,77.0014952 71.0136864,76.9714952 70.9976864,77.0014952" id="Fill-37" fill="#C5CFD6"></path>
                <path d="M71.0671431,76.8323017 C71.0531431,76.8723017 71.0351431,76.9103017 71.0191431,76.9503017 C71.0271431,76.9303017 71.0351431,76.9143017 71.0431431,76.8943017 C70.8351431,77.4143017 70.9671431,77.0763017 71.0671431,76.8323017" id="Fill-39" fill="#C5CFD6"></path>
                <path d="M71.0223751,76.95275 C71.0143751,76.97075 71.0063751,76.99075 70.9983751,77.00875 C70.9403751,77.12075 71.0223751,76.95275 71.0223751,76.95275" id="Fill-41" fill="#C5CFD6"></path>
                <polygon id="Fill-43" fill="#C5CFD6" points="71 77.001 71 77.001 71 76.999"></polygon>
                <path d="M70.999,77.002 C70.999,77 70.999,77 71.001,76.998 C70.999,77 70.999,77 70.999,77.002" id="Fill-45" fill="#C5CFD6"></path>
                <path d="M70.9895117,77.0163509 C70.9775117,77.0403509 71.0455117,76.9243509 70.9895117,77.0163509" id="Fill-47" fill="#C5CFD6"></path>
                <path d="M70.998,77.002 L71.002,76.998 C71,77 71,77.002 70.998,77.002" id="Fill-49" fill="#C5CFD6"></path>
                <rect id="Photo-Background" fill="#DDE3E9" x="0" y="0" width="142" height="94" rx="4"></rect>
                <g id="icons8-night_landscape" transform="translate(11.670794, 27.000000)">
                    <polygon id="Mountains" fill="#AFB9C5" points="41.055 0 0 67 82.11 67"></polygon>
                    <polygon id="Mountains" fill="#C5CFD6" points="83.385 17.9464286 47.09 67 119.68 67"></polygon>
                </g>
                <circle id="Sun" fill="#FFFFFF" cx="110.5" cy="31.5" r="13.5"></circle>
            </g>
        </g>
        <g id="Group" transform="translate(167.000000, 105.000000)">
            <g transform="translate(77.126667, 0.000000)" id="Head">
                <g transform="translate(60.660000, 34.847775)" fill="#B28B67" id="Head-[skin]">
                    <path d="M42.8476868,10.2676529 C49.3571909,22.4094292 48.5836926,53.2080515 40.1707386,55.3781256 C36.8157079,56.2435369 29.6685445,54.1236648 22.3943525,49.7361597 L26.96,82.0608899 L0,82.0608899 L9.28087007,38.7706122 C4.10488087,32.6906073 0.601712161,25.2395437 1.18711208,16.89044 C2.87385762,-7.16629948 36.3381828,-1.87412331 42.8476868,10.2676529 Z"></path>
                </g>
                <path d="M107.173434,43.7302494 C108.044218,42.8667173 108.519209,41.6341707 108.930096,40.4638163 C109.356803,39.2480481 109.771412,38.019752 110.054711,36.7543196 C110.620793,34.2259156 110.626169,31.3182062 108.823704,29.3549011 C107.378154,27.780521 105.209158,27.074371 103.207349,26.9209039 C101.873672,26.8185552 100.50391,27.0054674 99.2254444,27.4260478 C97.9570084,27.8432725 96.8636183,28.6748137 95.633955,29.1909195 C95.5870142,26.4662073 95.1206044,23.6152092 93.7392624,21.2887061 C92.4100308,19.0502341 90.2907667,17.7940857 87.8772437,17.4617601 C85.40003,17.1207096 82.9538345,17.7007974 80.7361394,18.9009056 C80.1809143,19.201464 79.630859,19.51634 79.1044808,19.8727148 C78.6637127,20.1711479 78.2054711,20.5305428 77.688295,20.6519071 C77.1117708,20.7873653 76.8259901,20.4541448 76.4512907,20.0332289 C76.0119702,19.539718 75.5170238,19.1050437 74.9932304,18.7196981 C72.6772078,17.0161238 69.638462,16.3156785 66.9552878,17.3368164 C65.7190073,17.8072848 64.5168468,18.6062757 63.6781157,19.7072791 C62.9304747,20.6887079 62.3971691,22.2455265 61.3652983,22.9293052 C60.9274253,23.2195728 60.6181742,22.8350102 60.2194875,22.5507828 C59.6206302,22.1237148 59.0494825,21.6524634 58.4433876,21.2370284 C57.5920425,20.6533612 56.6702862,20.2167854 55.6831849,19.9882626 C54.2381522,19.6536998 52.2412031,19.7321112 51.8280412,21.6260652 C51.6729504,22.3374725 51.7918533,23.0983203 51.8419994,23.8150967 C51.9107563,24.7993219 51.9825116,25.7832116 52.067915,26.7659827 C52.1327429,27.5121773 52.2147343,28.2328687 52.3554533,28.9656405 C52.4305173,29.3562434 52.6654281,30.0844291 52.4980334,30.4755912 C52.2888677,30.964516 51.3234791,30.6865526 50.911041,30.7035548 C50.0964007,30.7372236 49.2783484,30.8801762 48.5251241,31.2284973 C47.9413623,31.4985188 47.3276163,31.8956094 47.0812287,32.5651823 C46.9297567,32.9764786 46.9696667,33.3989605 47.0412153,33.8221136 C47.1270322,34.3299421 47.0289114,34.5992925 46.9648072,35.1117071 C45.8706933,34.5725588 42.0792402,33.3746877 41.6021809,35.3368742 C41.4433679,35.9902279 41.8050397,36.7284807 42.0809979,37.2794858 C42.5649846,38.2459259 43.1995128,39.1292565 43.8482059,39.9716477 C45.2013214,41.729025 46.8167472,43.2447923 48.5547981,44.5410971 C46.5184559,45.4470228 45.986908,48.1191624 47.7499803,49.7112158 C48.5284327,50.414122 49.5750888,50.5706092 50.5570204,50.5256429 C50.9164175,50.5092 51.4345241,50.3709454 51.7173064,50.433585 C51.8695021,50.4672538 52.0324509,50.5963362 52.243271,50.6107657 C53.629059,50.7057318 55.1934082,50.3716165 56.5480746,50.0638993 C58.9619079,49.5155788 61.2471191,48.3711751 63.113275,46.6282273 C63.5919887,46.1811369 63.9874702,45.9237551 64.6318208,45.9303547 C65.1964547,45.9360594 65.750439,46.0909806 66.314556,46.1052982 C67.8071498,46.1434413 69.1529244,45.4132421 70.5389192,44.9272257 C70.6238056,46.8009337 71.1570078,48.8645741 71.9229495,50.5502513 C72.5475519,51.9248557 73.8518655,52.1246314 75.1335359,52.2452127 C79.2320688,52.6311176 83.3450769,52.2004701 87.4487795,52.2061748 C83.4762837,53.1047179 79.3713404,53.4750748 75.4341019,54.5324541 C73.6543832,55.010305 75.0133922,56.210637 75.7743711,57.0427374 C77.0274014,58.4129794 77.9590835,60.1107372 78.6052952,61.8993224 C80.5485829,59.3644307 83.9834306,57.6941896 87.0265189,58.4729345 C90.3888875,59.3332227 92.7565037,63.8834328 90.6064282,67.1546757 C89.358154,69.0536633 87.1039609,69.7867707 85.2282928,70.602652 C86.6915228,72.1250188 87.04544,74.373446 87.926149,76.2674 C88.3605066,77.2014017 88.9702202,78.2574388 89.9416056,78.5829412 C90.3010027,78.7034106 90.7224361,78.7137014 91.0059421,79.0068773 C91.3571711,79.3698516 91.4408167,79.7756669 91.8893393,80.0876347 C93.6790871,81.3328211 96.4747539,81.2368482 98.061126,79.611909 C99.4957159,78.1423385 99.1224641,75.8168421 97.9243359,74.3269137 C99.8315392,73.5313904 103.306194,72.5082391 102.548213,69.5348699 C106.680866,69.2602623 116.714827,62.5531236 111.16816,57.6520197 C114.212179,55.9304365 117.008776,51.7230666 115.053495,48.014241 C113.547873,45.1583212 110.046336,43.8817031 107.173434,43.7302494" id="hair" fill="#191847" transform="translate(78.633333, 48.899297) scale(-1, 1) translate(-78.633333, -48.899297) "></path>
            </g>
            <g transform="translate(0.000000, 204.334895)" id="Bottom">
                <g id="Group" transform="translate(11.233333, 47.213115)">
                    <g id="Seat-Stuff" transform="translate(61.783333, 0.000000)">
                        <polygon fill="#C5CFD6" points="31.029434 0 117.812047 0 129.183333 139.391101 0 139.391101"></polygon>
                        <polygon fill-opacity="0.1" fill="#000000" points="31.029434 0 57.7200132 0 73.6949057 139.391101 0 139.391101"></polygon>
                    </g>
                </g>
                <path d="M289.76753,23.3324083 L290.091723,23.144208 C299.377938,17.938211 314.54387,25.0079936 314.533339,32.8675395 C314.501443,56.6590095 292.804339,168.788122 291.671505,175.876396 C290.53867,182.96467 278.403171,184.83695 277.696481,175.899626 C277.089271,168.220397 276.200769,150.332653 275.840971,131.912803 L275.80321,129.864455 C275.542858,114.834388 275.653441,99.6889839 276.573148,89.6629346 C277.436006,80.2566012 278.365263,71.2983497 279.280092,63.3064204 C267.896231,83.8800341 250.287843,113.339001 226.45628,151.681999 L213.51935,145.767316 C223.678319,112.272898 232.008521,88.6267299 238.509956,74.8288121 C249.641992,51.2034272 260.080094,30.9714346 264.473155,23.8448793 C271.38344,12.6348062 283.411895,16.5461628 289.76753,23.3324083 Z" id="Legs-[skin]" fill="#B28B67"></path>
                <path d="M234.58685,138.639705 L240.310315,24.540563 C244.449554,4.81192925 279.523041,13.9763369 279.511006,24.5494051 C279.483671,48.5535432 265.0909,131.471511 265.082757,138.623146 L234.58685,138.639705 Z" id="LegLower" fill="#002B6B" transform="translate(257.048928, 75.786019) rotate(20.000000) translate(-257.048928, -75.786019) "></path>
                <g id="Group" transform="translate(207.816667, 127.025761)" fill="#191847">
                    <g id="Left-[shoe]" transform="translate(34.261667, 22.482436) rotate(30.000000) translate(-34.261667, -22.482436) ">
                        <path d="M0,41.5925059 L1.11482147,23.6065574 C7.64194444,25.5169182 15.8173019,24.7675036 25.6408937,21.3583138 C36.2623765,28.8872984 49.6487279,34.0150177 65.799948,36.7414715 C66.8891052,36.925334 67.6229954,37.9573176 67.4391369,39.0464755 C67.4270515,39.1180681 67.4110766,39.1889494 67.391283,39.2588048 L65.7744665,44.9648712 L65.7744665,44.9648712 L25.6408937,44.9648712 L2.22964293,44.9648712 L0,41.5925059 Z" id="Shoe"></path>
                    </g>
                </g>
                <g id="Right-[shoe]" transform="translate(271.846667, 141.639344)" fill="#191847">
                    <path d="M0,41.5925059 L1.11482147,23.6065574 C7.64194444,25.5169182 15.8173019,24.7675036 25.6408937,21.3583138 C36.2623765,28.8872984 49.6487279,34.0150177 65.799948,36.7414715 C66.8891052,36.925334 67.6229954,37.9573176 67.4391369,39.0464755 C67.4270515,39.1180681 67.4110766,39.1889494 67.391283,39.2588048 L65.7744665,44.9648712 L65.7744665,44.9648712 L25.6408937,44.9648712 L2.22964293,44.9648712 L0,41.5925059 Z" id="Shoe"></path>
                </g>
                <path d="M317.645386,40.9551601 C317.645386,70.8196721 303.472544,140.481829 303.463575,147.057737 L272.97,147.081176 C277.433315,84.9223206 279.015973,53.5080762 277.717974,52.8384426 C275.770975,51.8339922 197.904191,60.6183013 174.550675,60.6183013 C140.87479,60.6183013 126.943751,39.3671912 125.813333,-4.9521667e-13 L192.524009,-4.9521667e-13 C206.106901,1.454464 276.956514,15.7548554 303.268655,20.6708154 C314.533333,22.775422 317.645386,32.7282558 317.645386,40.9551601 Z" id="Leg-and-Butt" fill="#0B579F"></path>
            </g>
            <g transform="translate(22.466667, 94.177986)">
                <path d="M53.6671405,77.5359191 L71.3789189,80.1081345 C54.4582175,116.820211 44.5234044,138.138311 41.5744798,144.062432 L41.3862592,144.438489 C41.1198034,144.967594 40.9247851,145.33928 40.8012044,145.553548 C37.7116869,150.910237 41.3451669,160.240318 42.7655846,165.17944 C35.5871864,167.252341 37.8797238,156.161524 28.8030963,158.927786 C26.7574852,159.551222 24.8001568,160.369686 22.8887109,161.146401 L22.3166112,161.377926 C16.7036658,163.637618 11.4531144,165.327935 5.47644547,160.370261 C4.4676573,159.533467 3.61787693,156.797168 6.82426992,155.202852 C14.8125642,151.230829 26.541227,143.962534 28.3644086,141.283781 C30.8506424,137.630823 39.2848864,116.381535 53.6671405,77.5359191 L53.6671405,77.5359191 Z M190.358872,88.6100216 L220.545493,114.201672 C229.013042,117.13396 236.02085,120.535571 241.568917,124.406506 C242.849565,125.748514 244.32618,128.3882 238.68408,127.555307 C238.250072,127.491239 237.814112,127.428416 237.37865,127.367882 L236.726136,127.278929 C231.731091,126.612116 226.963956,126.317018 226.151873,127.980187 C225.233867,129.860292 228.504819,132.414187 226.740072,134.914152 C225.563574,136.580795 220.885448,131.868337 212.705694,120.776779 L182.108696,105.506639 L190.358872,88.6100216 Z" id="Arms-[skin]" fill="#B28B67"></path>
                <path d="M122.979272,9.21054221 L133.596123,4.63843187 C151.668356,40.3896079 176.923065,74.3010145 216.52753,101.346035 L208.768287,117.911928 C174.615844,101.621394 142.570612,89.4491188 127.58307,61.8321985 C122.552864,52.5632462 123.64558,20.7613641 122.979272,9.21054221 Z" id="Coat-Back" fill="#C5CFD6" transform="translate(169.753401, 61.275180) rotate(5.000000) translate(-169.753401, -61.275180) "></path>
                <path d="M90,110 C121.438326,113.333333 146.183737,113.333333 164.236234,110 C166.472817,109.587022 166.825667,105.842388 165.788454,103.300966 C149.636353,63.7244027 138.560302,29.1916266 138.560302,1.70263734 C135.596594,3.1967882 130.409827,3.42070538 123,2.37438888 C103.086202,30.7026762 93.9325378,63.2061447 90,110 Z" id="Shirt" fill="#323337"></path>
                <path d="M118.078622,-0.518676213 L118.049621,-0.000676212716 L126.348425,5.5067062e-14 C128.261445,11.2512223 134.254034,162.198887 152.629948,214.064845 L153.190593,215.605966 L51.3853184,215.605966 C53.5924156,169.487497 71.0026785,114.088004 88.6395167,67.7290783 C73.044235,81.9998445 59.4517,106.181198 47.8618586,140.272687 L47.8618586,140.272687 L28.7926212,135.377648 C42.9709573,74.2822336 72.1213495,29.3765708 116.243798,0.660659727 L116.531583,5.5067062e-14 L117.269621,-0.000676212716 L118.078622,-0.518676213 Z" id="Coat-Front" fill="#DDE3E9"></path>
            </g>
        </g>
    </g>
</svg>