<svg viewBox="-10.262626262626327 128.5625 2052.525252525252 1928.4375" xmlns="http://www.w3.org/2000/svg" overflow="visible" xmlns:xlink="http://www.w3.org/1999/xlink" width="2052.525252525252px" height="1928.4375px"><g id="Master/Spot Ilustrations/UI Windows" stroke="none" stroke-width="1" fill="none" fill-rule="evenodd"><g id="Outdoor Plants" transform="translate(1183.000000, 1085.000000) scale(1 1)"><g id="Outdoor Plants/Plant 1" stroke="none" stroke-width="1" fill="none" fill-rule="evenodd"><g id="Group-6" transform="translate(3.000000, 208.000000)"><path d="M199.883326,757 C199.883326,757 154.639614,615.704437 63.7021884,486.352218 C-27.2352371,357 -13.9695544,268.907181 63.7021884,246.214912 C141.373931,223.522642 267.592553,290.509829 306.646043,382.031679 C331.898655,441.210897 374.804123,628.371706 268.960535,757 C238.721051,756.165996 199.883326,757 199.883326,757 Z" id="Stroke-8" fill="#017C7F"/><path d="M180.80074,266.460237 C125.13078,13.4204746 221.50036,-21.2992546 328.620701,9.33958092 C435.741041,39.9784164 507.960342,173.305169 491.620701,300.677192 C466.681525,495.084959 320.447913,757 320.447913,757 L236.4707,757 C236.4707,598.666667 217.914047,435.153412 180.80074,266.460237 Z" id="Stroke-10" fill="#009BA0"/><path d="M299.869545,92.3392506 C301.326008,91.6825172 303.029928,92.2842179 303.76044,93.6823222 L303.857175,93.8846724 L304.316098,94.9397143 L304.887232,96.295742 C305.10977,96.8312409 305.345953,97.4073406 305.595259,98.0239333 L305.978996,98.9791786 C307.658678,103.18678 309.527498,108.198532 311.537907,114.004614 C317.270818,130.561319 322.999418,150.177346 328.343248,172.774008 C340.981111,226.213867 349.496836,287.717379 351.998041,356.891597 C354.239813,418.890863 350.075029,478.447706 339.405709,544.65636 L339.021897,547.023799 C329.749389,603.877937 316.614263,662.450624 292.750418,757.276586 C292.346063,758.883341 290.715735,759.858079 289.10898,759.453724 C287.502225,759.049369 286.527487,757.419042 286.931842,755.812287 L289.047362,747.388625 C311.539988,657.63471 324.138912,601.00352 333.100137,546.058001 C343.991922,479.275307 348.255457,419.431969 346.001959,357.108403 C343.515192,288.333464 335.05336,227.219184 322.504303,174.154847 L321.81134,171.250364 C316.714465,150.074656 311.289348,131.624212 305.868175,115.96781 L305.247809,114.188627 C303.503926,109.222351 301.87886,104.891689 300.406603,101.203688 L299.855033,99.8349225 C299.678602,99.4014064 299.50967,98.9906447 299.348457,98.6026828 L298.799647,97.2995385 L298.367875,96.3072458 C297.686818,94.7968393 298.359139,93.0203074 299.869545,92.3392506 Z" id="Path-6" fill="#090E2B" fill-rule="nonzero"/><path d="M589.575739,282.556489 C750.420208,274.363901 760.643075,407.886816 739.778496,462.864438 C715.162837,527.72606 641.307604,570.960237 582.304218,596.642758 C443.495397,657.062349 408.155852,757 408.155852,757 L286.620701,757 C286.620701,757 309.812449,296.806189 589.575739,282.556489 Z" id="Stroke-12" fill="#F47C21"/><path d="M613.533995,384.77167 C615.068698,384.147289 616.818982,384.88525 617.443363,386.419953 C618.067745,387.954656 617.329784,389.70494 615.795081,390.329322 C475.369379,447.460406 387.980539,569.583887 353.571426,757.085934 C353.272365,758.715574 351.708844,759.794222 350.079203,759.495162 C348.449563,759.196101 347.370914,757.63258 347.669975,756.002939 C382.426899,566.605602 471.067283,442.733123 613.533995,384.77167 Z" id="Path-3" fill="#090E2B" fill-rule="nonzero"/></g></g></g><g id="Chair" transform="translate(76.125000, 1255.000000) scale(1 1)"><g id="Chair/Tall Chair 2" stroke="none" stroke-width="1" fill="none" fill-rule="evenodd"><g id="Group" transform="translate(150.000000, 169.000000)"><path d="M322.77787,249.880468 C322.347405,248.021078 320.683897,246.630108 318.692311,246.622411 L318.658182,246.622411 L156.340052,245.99972 L156.32574,245.99972 C154.122775,245.990152 152.127886,247.502075 151.614851,249.737523 L74.0695961,627.630966 C73.7349127,629.095607 74.638778,630.563547 76.1052196,630.917612 C77.5826705,631.273876 79.0700298,630.367822 79.4278327,628.892185 L160.163589,255.682956 L315.32566,255.088083 L395.570401,628.892185 C395.922699,630.356826 397.393544,631.269478 398.866592,630.928608 C400.348446,630.586639 401.271027,629.111001 400.928637,627.630966 L322.77787,249.880468 Z" id="Fill-4" fill="#090E2B"/><path d="M265.77787,249.880468 C265.347405,248.021078 263.683897,246.630108 261.692311,246.622411 L261.658182,246.622411 L99.3400519,245.99972 L99.3257398,245.99972 C97.1227746,245.990152 95.1278856,247.502075 94.6148512,249.737523 L17.0695961,627.630966 C16.7349127,629.095607 17.638778,630.563547 19.1052196,630.917612 C20.5826705,631.273876 22.0700298,630.367822 22.4278327,628.892185 L103.163589,255.682956 L258.32566,255.088083 L338.570401,628.892185 C338.922699,630.356826 340.393544,631.269478 341.866592,630.928608 C343.348446,630.586639 344.271027,629.111001 343.928637,627.630966 L265.77787,249.880468 Z" id="Fill-4-Copy" fill="#090E2B"/><path d="M58.1921488,41.2196463 C66.3085398,81.4190302 112.030062,206.924243 136.697616,221.042896 C161.365171,235.160391 305.423549,232.409824 322.322031,233.819837 C339.220514,235.231007 357.527877,245.104572 354.711271,263.44053 C351.894665,281.777645 344.853727,276.135278 295.566004,276.135278 C246.278282,276.135278 130.805511,276.954891 130.805511,276.954891 C130.805511,276.954891 71.0083919,280.665147 46.3951587,220.787056 C23.8530616,165.945883 3.90856718,64.7475273 1.09196081,46.4104117 C-1.72348979,28.0732961 0.311817478,5.58486122 14.2642476,1.0202623 C24.8279662,-2.43531157 50.0757579,1.0202623 58.1921488,41.2196463 Z" id="Fill-1" fill="#424242"/></g></g></g><g id="Floor" transform="translate(1016.500000, 2051.750000) scale(1, -1) translate(-1016.500000, -2051.750000) translate(0.000000, 2050.250000)" fill="#090E2B" fill-rule="nonzero"><path d="M0.625861326,-1.99999989 L1016.50086,-1.74999989 C1018.43386,-1.7495242 1020,-0.182135239 1020,1.75086133 C1020,3.61942467 1018.53489,5.14562732 1016.69118,5.24486829 L1016.49914,5.24999989 L0.624138674,5.00000011 C-1.30885789,4.9995242 -2.875,3.43213524 -2.875,1.49913867 C-2.875,-0.369424673 -1.40988682,-1.89562732 0.433824855,-1.99486829 L0.625861326,-1.99999989 Z" id="Path-4-Copy"/><path d="M2032.5,-2.75 C2034.433,-2.75 2036,-1.18299662 2036,0.75 C2036,2.6185634 2034.53572,4.14512645 2032.69204,4.24482114 L2032.5,4.25 L1339.5,4.25 C1337.567,4.25 1336,2.68299662 1336,0.75 C1336,-1.1185634 1337.46428,-2.64512645 1339.30796,-2.74482114 L1339.5,-2.75 L2032.5,-2.75 Z" id="Path-4-Copy-2"/></g><g id="UI Elements" transform="translate(282.000000, 117.000000) scale(1 1)"><g id="UI Elements/UI Card 1" stroke="none" stroke-width="1" fill="none" fill-rule="evenodd"><g id="userinterface" transform="translate(1.000000, 17.000000)"><path d="M1072.3832,793.4326 L68.6102,793.4326 C55.8452,793.4326 45.4982,783.0856 45.4982,770.3206 L45.4982,61.6156 C45.4982,48.8506 55.8452,38.5006 68.6102,38.5006 L1072.3832,38.5006 C1085.1482,38.5006 1095.4952,48.8506 1095.4952,61.6156 L1095.4952,770.3206 C1095.4952,783.0856 1085.1482,793.4326 1072.3832,793.4326 Z" id="Stroke-1-Copy" fill="#090E2B"/><path d="M1029.885,757.932 L26.112,757.932 C13.347,757.932 3,747.585 3,734.82 L3,26.115 C3,13.35 13.347,3 26.112,3 L1029.885,3 C1042.65,3 1052.997,13.35 1052.997,26.115 L1052.997,734.82 C1052.997,747.585 1042.65,757.932 1029.885,757.932 Z" id="Stroke-1" fill="#FFF"/><path d="M1029.885,4.54747351e-13 L26.112,4.54747351e-13 C11.6905975,4.54747351e-13 0,11.6926939 0,26.115 L0,734.82 C0,749.241854 11.6901458,760.932 26.112,760.932 L1029.885,760.932 C1044.30685,760.932 1055.997,749.241854 1055.997,734.82 L1055.997,26.115 C1055.997,11.6926939 1044.3064,4.54747351e-13 1029.885,4.54747351e-13 Z M26.112,6 L1029.885,6 C1040.99245,6 1049.997,15.0061616 1049.997,26.115 L1049.997,734.82 C1049.997,745.928146 1040.99315,754.932 1029.885,754.932 L26.112,754.932 C15.0038542,754.932 6,745.928146 6,734.82 L6,26.115 C6,15.0061616 15.0045468,6 26.112,6 Z" id="Stroke-1-Copy-2" fill="#090E2B" fill-rule="nonzero"/><path d="M617.1762,372.0626 L197.7822,372.0626 C160.6212,372.0626 130.4982,341.9396 130.4982,304.7786 C130.4982,267.6236 160.6212,237.5006 197.7822,237.5006 L617.1762,237.5006 C654.3342,237.5006 684.4572,267.6236 684.4572,304.7786 C684.4572,341.9396 654.3342,372.0626 617.1762,372.0626 Z" id="Stroke-5" fill="#FFB201"/><path d="M854.382,370.2114 L854.382,370.2114 C817.224,370.2114 787.098,340.0884 787.098,302.9274 C787.098,265.7724 817.224,235.6494 854.382,235.6494 C891.54,235.6494 921.663,265.7724 921.663,302.9274 C921.663,340.0884 891.54,370.2114 854.382,370.2114 Z" id="Stroke-7" fill="#C7D2F2"/><g id="cross" transform="translate(945.572500, 53.129500)" fill="#fff" fill-rule="nonzero"><path d="M43.8180195,1.81801948 C45.5753788,0.0606601718 48.4246212,0.0606601718 50.1819805,1.81801948 C51.8844223,3.52046132 51.9376237,6.24760984 50.3415844,8.01409585 L50.1819805,8.18198052 L8.18198052,50.1819805 C6.4246212,51.9393398 3.5753788,51.9393398 1.81801948,50.1819805 C0.11557765,48.4795387 0.062376343,45.7523902 1.65841556,43.9859042 L1.81801948,43.8180195 L43.8180195,1.81801948 Z" id="Stroke-9"/><path d="M1.81801948,1.81801948 C3.52046132,0.11557765 6.24760984,0.062376343 8.01409585,1.65841556 L8.18198052,1.81801948 L50.1819805,43.8180195 C51.9393398,45.5753788 51.9393398,48.4246212 50.1819805,50.1819805 C48.4795387,51.8844223 45.7523902,51.9376237 43.9859042,50.3415844 L43.8180195,50.1819805 L1.81801948,8.18198052 C0.0606601718,6.4246212 0.0606601718,3.5753788 1.81801948,1.81801948 Z" id="Stroke-11"/></g><path d="M727.2462,457.5006 C737.187325,457.5006 745.2462,465.559475 745.2462,475.5006 C745.2462,485.331269 737.365417,493.321282 727.576865,493.497624 L727.2462,493.5006 L148.4982,493.5006 C138.557075,493.5006 130.4982,485.441725 130.4982,475.5006 C130.4982,465.669931 138.378983,457.679918 148.167535,457.503576 L148.4982,457.5006 L727.2462,457.5006 Z" id="Stroke-13" fill="#C7D2F2" fill-rule="nonzero"/><path d="M479.0502,564.5006 C488.991325,564.5006 497.0502,572.559475 497.0502,582.5006 C497.0502,592.331269 489.169417,600.321282 479.380865,600.497624 L479.0502,600.5006 L148.4982,600.5006 C138.557075,600.5006 130.4982,592.441725 130.4982,582.5006 C130.4982,572.669931 138.378983,564.679918 148.167535,564.503576 L148.4982,564.5006 L479.0502,564.5006 Z" id="Stroke-15" fill="#C7D2F2" fill-rule="nonzero"/></g></g></g><g id="UI Elements" transform="translate(833.000000, 623.000000) scale(1 1)"><g id="UI Elements/Graph 1" stroke="none" stroke-width="1" fill="none" fill-rule="evenodd"><g id="Interfae-Box-2" transform="translate(74.000000, 54.000000)"><rect id="Rectangle-Copy-5" fill="#090E2B" x="48" y="36" width="903" height="664" rx="64"/><rect id="Rectangle-Copy" fill="#FFF" x="3" y="3" width="903" height="664" rx="64"/><path d="M842,0 L67,0 C29.9969218,0 0,29.9969218 0,67 L0,603 C0,640.003078 29.9969218,670 67,670 L842,670 C879.003078,670 909,640.003078 909,603 L909,67 C909,29.9969218 879.003078,0 842,0 Z M67,6 L842,6 C875.68937,6 903,33.3106303 903,67 L903,603 C903,636.68937 875.68937,664 842,664 L67,664 C33.3106303,664 6,636.68937 6,603 L6,67 C6,33.3106303 33.3106303,6 67,6 Z" id="Rectangle-Copy-2" fill="#090E2B" fill-rule="nonzero"/><path d="M673.652207,196.061892 C725.00645,183.450641 772.647582,240.93242 818.391391,365.938113 C819.53014,369.050011 817.930586,372.495842 814.818687,373.634591 C811.706789,374.77334 808.260958,373.173786 807.122209,370.061887 C763.365428,250.486217 719.224115,197.227172 676.514061,207.715638 C653.029605,213.482802 633.544648,228.317463 615.50167,252.517239 L614.256991,254.199974 C601.505445,271.579633 592.03819,288.909152 573.748724,326.316838 L567.518035,339.080312 C548.883429,377.093389 539.188692,394.511108 525.293009,412.958504 C505.414913,439.34793 483.31028,455.718327 456.236366,461.728764 C436.921829,466.016612 421.1782,458.232532 407.891528,440.305106 L407.489653,439.758748 C397.832146,426.529971 390.901407,411.491459 378.693953,380.142646 L374.912173,370.411723 C363.259876,340.542313 356.421447,325.666408 347.328808,312.632527 C335.853283,296.18289 323.479895,288.462539 308.325917,289.378699 C252.58721,292.748478 192.546484,355.571595 129.337009,478.620265 C127.822868,481.567814 124.205954,482.72982 121.258406,481.21568 C118.310857,479.701539 117.148851,476.084625 118.662991,473.137077 C183.658283,346.611991 246.260115,281.109083 307.601758,277.400569 C327.296605,276.209884 343.195562,285.995214 356.760264,305.18243 L357.170602,305.766737 C366.788118,319.553003 373.7892,334.631431 385.347233,364.145873 L390.576767,377.584411 C401.83789,406.3973 408.399469,420.546673 416.91497,432.316137 L417.181723,432.683171 C427.976656,447.469987 439.337483,453.188184 453.63567,450.013971 C477.606383,444.692448 497.417079,430.02091 515.708027,405.738522 L516.970246,404.049124 C529.761489,386.785973 539.264869,369.500642 557.378277,332.501458 L563.596726,319.761294 C582.202997,281.752737 591.841212,264.2714 605.445769,245.930132 L605.881319,245.344454 C625.460147,219.084752 647.152481,202.569527 673.652207,196.061892 Z" id="Path-9" fill="#F47C21" fill-rule="nonzero"/><path d="M781.460434,208.362654 C782.299015,205.156808 785.577671,203.237761 788.783517,204.076343 C791.989362,204.914924 793.908409,208.19358 793.069828,211.399425 C755.865734,353.628422 708.054876,420.407249 647.872525,408.893115 C621.818313,403.908403 603.61089,404.829982 590.082856,410.798636 C579.665716,415.394744 572.383618,422.267538 562.160355,435.880495 L560.977924,437.467452 L554.884658,445.787282 C552.262038,449.355987 550.157275,452.139191 548.000044,454.856711 C539.000894,466.193172 530.125211,474.884446 519.015099,482.393565 C505.576907,491.476191 489.491953,498.227654 469.678748,502.626207 C451.420806,506.679489 435.763656,504.612783 421.299351,497.082719 C410.531188,491.476854 401.982197,484.235402 388.562743,470.523341 L382.286237,464.054711 C368.761913,450.109913 360.925256,443.124612 351.081975,437.229012 C338.568307,429.733993 325.246953,426.295033 309.42584,427.251526 C252.303605,430.704948 191.765128,458.910248 127.837444,512.097337 C125.290099,514.216699 121.506985,513.86975 119.387623,511.322404 C117.268261,508.775059 117.61521,504.991945 120.162556,502.872583 C185.906203,448.174633 248.743567,418.898266 308.701682,415.273396 C326.993171,414.167553 342.704286,418.223439 357.247948,426.934316 L358.226563,427.527077 C368.434553,433.780557 376.591104,441.017491 389.642393,454.406395 L395.931778,460.892513 L397.090755,462.080669 C409.692154,474.959181 417.495061,481.573475 426.840579,486.438716 C438.803082,492.666351 451.577524,494.352547 467.078052,490.911413 C485.453067,486.832141 500.138365,480.668166 512.295405,472.451447 C522.283653,465.700574 530.308857,457.84211 538.601368,447.39582 L539.687047,446.016317 C541.139122,444.155487 542.625291,442.18832 544.33855,439.870419 L551.136781,430.593726 L551.570699,430.00654 C563.436279,414.012575 572.147381,405.595804 585.238899,399.819743 C601.276933,392.743662 621.872845,391.701188 650.127475,397.106885 C701.367982,406.910259 745.733878,344.943112 781.460434,208.362654 Z" id="Path-9-Copy" fill="#0B579F" fill-rule="nonzero"/><circle id="Oval" fill="#a19c98" cx="689.5" cy="200.5" r="25.5"/><rect id="Rectangle" fill="#C7D2F2" fill-rule="nonzero" x="93" y="546" width="709" height="2"/></g></g></g><g transform="translate(-67.000000, 557.000000) scale(1 1)" id="Master/Character/Sitting"><g id="Master/Character/Sitting" stroke="none" stroke-width="1" fill="none" fill-rule="evenodd"><g id="Sitting" transform="translate(179.000000, 940.000000) scale(1 1)"><g id="Sitting/On Chair 2" stroke="none" stroke-width="1" fill="none" fill-rule="evenodd"><path d="M410.615323,399.49997 C410.615323,399.49997 400.357969,471.949685 396.171539,502.905682 C391.949971,534.125643 467.0487,503.736716 467.0487,503.736716 C467.0487,503.736716 453.509565,484.44329 453.304761,479.157997 C453.100961,473.870697 476.218696,412 476.218696,412 L410.615323,399.49997 Z" id="Fill-3" fill="#ca8f67"/><path d="M561.035706,7.46069873e-14 C597.897949,16.8477074 635.153618,59.3884812 602.589029,139.128809 C570.024441,218.869137 493.394303,411.87247 481.349448,420.555326 C469.305594,429.239182 405.784608,412 405.784608,412 C405.784608,412 412.732597,330.944505 426.534884,251.242608 C436.641716,192.880271 457.952435,150.325862 457.952435,150.325862 C457.952435,150.325862 286.540837,174.784268 243.98254,146.076381 C188.124727,108.397247 229.480836,6.86053872 261.586066,-5.71064401 C302.858588,-21.8713886 490.854841,-32.0758202 561.035706,7.46069873e-14 Z" id="Fill-5" fill="#090E2B"/><path d="M559.105053,537.550495 C553.718837,520.869499 514.662001,509.852921 486.4598,501.514412 C476.966506,498.70607 463.702961,484.835405 457.545853,485.001479 C448.581857,485.24512 457.367415,503.898122 427.362791,502.274176 C419.4193,501.844571 418.851908,493.484184 401.591555,491.580796 C398.786673,491.272515 394.499152,490.727553 390.796066,497.394383 C388.732001,501.110663 380.282268,534.66359 388.577622,548.345309 C446.664152,549.845942 506.41276,548.363209 558.020392,547.881892 C563.059757,547.834159 560.482433,541.818697 559.105053,537.550495" id="Fill-17" fill="#F47C21"/><path d="M654.970564,412 C654.970564,412 665.530533,466.509706 672.596211,475.377601 C679.662889,484.243493 716.32892,494.221378 717.974942,499.698195 C719.618961,505.175012 639.820958,518 639.820958,518 L591,416.698422 L654.970564,412 Z" id="Fill-1" fill="#ca8f67"/><path d="M790.105053,534.5497 C784.718837,517.869641 745.662001,506.853025 717.4598,498.513492 C707.966506,495.706135 694.702961,481.834427 688.545853,482.001496 C679.581857,482.244144 688.367415,500.898205 658.362791,499.274253 C650.420302,498.844647 649.85291,490.483237 632.591555,488.580837 C629.786673,488.27156 625.499152,487.727591 621.796066,494.393449 C619.732001,498.109742 611.282268,531.662786 619.577622,545.345546 C677.664152,546.846185 737.41276,545.362452 789.020392,544.881134 C794.059757,544.8334 791.482433,538.817918 790.105053,534.5497" id="Fill-10" fill="#F47C21"/><path d="M722.704751,510.429527 C726.392384,503.004274 728.005104,501.713139 726.433049,500.543939 C722.673012,497.748284 703.571309,506.385021 702.069675,511.523009 C700.944937,515.373796 713.664197,504.228541 723.820563,502.565701 C719.658833,506.366337 715.778784,518.019983 719.874061,515.696334 C739.826756,504.381943 742.973841,507.006496 742.998637,506.585624 C743.116665,504.585496 735.565843,502.966906 722.704751,510.429527" id="Fill-15" fill="#F47C21"/><path d="M180.126096,77 C192.090433,138.955221 247.290014,161.21191 295.189049,159.361921 C368.355288,156.536045 442.938988,124.042498 468.151215,113.183029 C465.930109,129.164147 477.804596,220.024734 497.628146,262.074146 C517.451696,304.123559 582.008895,430.623213 582.008895,430.623213 C582.008895,430.623213 654.850327,431.050084 657.965073,413.369038 C660.014248,401.737852 591.630112,76.8494703 569.008895,20.5961921 C556.018259,-11.7082512 513.975789,-25.6487365 427.5,-33 C340.646127,-40.3834042 214.030282,-26.7715765 214.030282,-26.7715765 C214.030282,-26.7715765 168.16176,15.0447792 180.126096,77 Z" id="Fill-7" fill="#090E2B"/><path d="M491.704751,514.429893 C495.392384,507.004835 497.005104,505.713735 495.432058,504.543583 C491.67202,501.748984 472.571309,510.385493 471.069675,515.522362 C469.944937,519.373048 482.664197,508.228087 492.820563,506.566274 C488.658833,510.36681 484.777792,522.019165 488.874061,519.69656 C508.826756,508.381485 511.973841,511.005969 511.998637,510.585107 C512.116665,508.585032 504.565843,506.966486 491.704751,514.429893" id="Fill-22" fill="#FFB201"/><path d="M546.8316,554.3915 L407.0166,556.8575 C397.6626,557.2315 383.6706,554.0145 382.3176,546.2435 C381.3066,540.4375 383.5546,527.7955 384.0206,526.9545 C387.2776,521.0945 415.0326,526.0385 423.1176,545.8275 C474.1316,549.6495 561.0086,545.9125 561.0086,545.9125 C561.0086,545.9125 562.3126,553.5935 546.8316,554.3915" id="Fill-19" fill="#090E2B"/><path d="M777.7223,550.7851 L637.9073,553.2511 C628.5543,553.6251 614.5613,550.4091 613.2083,542.6381 C612.1983,536.8321 614.4453,524.1901 614.9123,523.3491 C618.1683,517.4891 645.9233,522.4331 654.0083,542.2221 C705.0223,546.0441 791.9003,542.3071 791.9003,542.3071 C791.9003,542.3071 793.2033,549.9881 777.7223,550.7851" id="Fill-12" fill="#090E2B"/></g></g><g id="Upper Body/Sitting" transform="translate(243.000000, 170.000000) scale(1 1.0010526315789474)"><g id="Upper Body/Sitting/With Laptop 2" stroke="none" stroke-width="1" fill="none" fill-rule="evenodd"><path d="M286,448 C299.897744,455.921341 321.104762,472.380594 333.718296,510.851246 C344.319799,543.182208 368.570426,589.863468 369.354386,594.556818 C381.885714,599.248165 432,624.250335 432,624.250335 C432,624.250335 397.462657,680 394.617544,680 C391.772431,680 374.926316,679.132196 358.611529,677.849007 C305.347368,673.659124 302.614536,637.159298 299.972932,622.270501 C291.423559,574.087849 289.988972,453.178799 286,448" id="Fill-1" fill="#0B579F"/><path d="M203.679151,373 C203.679151,373 215.229331,430.303881 207.463916,436.256492 C203.587205,439.227797 187,443.605246 187,443.605246 C187,443.605246 227.844881,476.129585 252.813137,476.96667 C277.781394,477.804756 294.465542,462.609197 291.701174,457.100632 C287.563617,448.857786 258.31289,441.49803 257.220535,434.162277 C255.97527,425.794418 256.520948,389.17366 256.520948,389.17366 L203.679151,373 Z" id="Fill-3" fill="#ca8f67"/><path d="M126.184505,468.342476 C125.002186,478.894299 113.435856,610.158935 129.05485,629.825107 C147.759064,653.375262 120.261982,728.82987 108.359845,748.03657 C87.6537852,781.449841 64.3166863,841.502534 140.313976,792.467721 C209.312108,747.948891 301.722567,743.108946 319.78994,737.774737 C325.932837,735.961109 321.713595,730.27781 321.315178,726.364029 C316.679522,680.826473 327.909685,585.790688 328,553.731805 C328.055934,533.118896 305.179977,458.994379 287.180983,448.377871 C283.594436,446.262385 265.900876,438.7287 265.900876,441.674123 C265.900876,456.143958 264.742502,476.667028 257.86395,476.667028 C240.342037,476.667028 195.013598,444.859031 187.990864,441.674123 C171.889149,444.931464 127.535726,456.296121 126.184505,468.342476 Z" id="Fill-8" fill="#0B579F"/><path d="M306.704585,490.534972 C316.374503,509.14719 326.773513,528.760225 327.723884,549.893504 C328.925103,576.556303 325.874129,607.021211 324.942113,633.743058 C324.666791,640.721764 324.410844,647.704473 324.396568,654.681177 C324.408804,655.087509 323.712342,655.122538 323.71744,654.687182 C323.051569,622.181606 327.107979,582.533189 325.629398,549.983577 C324.683106,529.178567 314.437052,509.034097 306.020359,490.084604 C305.874541,489.817386 306.554688,490.242733 306.704585,490.534972" id="Fill-13" fill="#090E2B"/><g id="macbook" transform="translate(272.000000, 506.000000)"><path d="M128.369769,133.885873 L8.73676899,144.014873 C6.69576899,144.183873 0.282768988,146.862873 0.061768988,148.897873 C0.061768988,148.897873 -0.885231012,154.143873 4.63676899,154.143873 L128.369769,154.143873 L128.369769,133.885873 Z" id="Fill-15" fill="#FFF"/><path d="M291.427369,154.143673 L104.125369,154.143673 L155.804369,16.8866731 C158.941369,9.13767308 165.583369,1.39167308 176.064369,1.39167308 L332.657369,1.50967308 C349.488369,1.38767308 351.600369,7.63367308 347.981369,17.4746731 C337.556369,45.8156731 310.743369,125.167673 301.525369,147.401673 C299.831369,151.484673 295.848369,154.143673 291.427369,154.143673" id="Fill-17" fill="#FFF"/><path d="M331.825869,0.472773078 C288.588869,0.368773078 228.596869,0.280773078 185.250869,0.171773078 C170.143869,-0.767226922 160.767869,1.79077308 154.508869,16.7147731 C140.546869,53.9127731 124.393869,97.3387731 110.856869,134.831773 L14.822869,143.498773 C23.939869,142.767773 111.379869,136.466773 111.634869,135.662773 C127.012869,97.3197731 143.173869,52.3277731 158.530869,14.1057731 C164.816869,2.51877308 173.500869,2.15277308 185.250869,2.62477308 L217.823869,2.60777308 C239.133869,2.71277308 294.971869,2.40477308 315.545869,2.55477308 C322.945869,3.41577308 346.266869,-0.690226922 348.296869,8.78777308 C348.671869,17.7947731 343.153869,26.7887731 340.525869,35.4077731 C338.150869,43.1977731 329.799869,66.1667731 329.799869,66.1667731 C321.256869,90.2607731 311.655869,119.224773 302.571869,142.877773 C299.154869,153.682773 294.621869,153.788773 284.461869,153.531773 C279.322869,153.570773 265.939869,154.131773 260.653869,154.177773 C260.017869,154.186773 259.380869,154.620773 260.031869,154.638773 C269.386869,154.517773 283.454869,155.017773 292.670869,154.716773 C298.834869,154.369773 302.237869,148.676773 303.891869,143.396773 C313.711869,118.074773 322.541869,92.3867731 331.558869,66.7807731 C335.051869,56.1947731 343.917869,30.7067731 347.853869,20.7337731 C354.162869,4.75377308 346.736869,-0.0142269223 331.825869,0.472773078" id="Fill-19" fill="#090E2B"/></g><path d="M258.796,651.4745 C258.431,651.5035 258.215,651.5225 258.204,651.5255 L258.796,651.4745 Z" id="Fill-21" fill="#000"/><path d="M471,659.77464 L504.34249,659.77464 C516.166804,659.993091 509.981102,635.808751 522.899595,638.161144 C533.929232,640.168668 533.431062,646.637243 532.285968,659.679573 C534.51925,656.887244 538.763185,655.96793 540.215766,656.916573 C542.293307,658.273801 539.968178,658.675306 536.461017,664.296372 C532.405769,670.794276 520.878959,676.87146 507.139833,678.026418 C503.004717,678.37331 479.248268,682 479.248268,682 L471,659.77464 Z" id="Fill-23" fill="#ca8f67"/><path d="M276.484788,647.782529 C276.484788,647.782529 285.751639,641.180324 293.699971,642.113704 C304.303446,643.356531 305.148265,638.574721 307.859729,642.742678 C308.45613,643.657915 306.585461,646.596148 301.674452,647.687779 C295.045646,649.160424 297.823489,653.249759 297.823489,653.249759 C297.823489,653.249759 320.845793,658.740173 324.083257,659.318748 C325.871455,659.638274 326.353203,664.726508 312.835105,668.738229 C305.78389,670.830776 295.70742,670.886214 283.829678,671.28537 C280.525835,671.398263 242.530133,683 242.530133,683 L240.187774,664.067295 L239,644.393733 L276.484788,647.782529 Z" id="Fill-25" fill="#ca8f67"/><path d="M395,680.024576 C395,680.024576 490.408936,683.88086 496.352355,682.813133 C502.294776,681.745407 490.25232,660 490.25232,660 L404.045808,660 L395,680.024576 Z" id="Fill-27" fill="#0B579F"/><g id="blush" transform="translate(471.000000, 571.000000)"><path d="M35.1719616,15.0154 L35.1569616,15.0154 C30.8929616,15.0154 29.0199616,13.2234 28.2829616,12.1544 C27.7349616,11.3584 27.9349616,10.2684 28.7309616,9.7204 C29.5259616,9.1714 30.6169616,9.3734 31.1639616,10.1674 C31.7549616,11.0244 33.2109616,11.5154 35.1579616,11.5154 L35.1709616,11.5154 C38.1609616,11.5154 40.2469616,10.3894 41.2259616,9.7184 C42.0239616,9.1694 43.1119616,9.3744 43.6579616,10.1704 C44.2049616,10.9674 44.0029616,12.0564 43.2059616,12.6034 C40.9419616,14.1594 38.0879616,15.0154 35.1719616,15.0154" id="Fill-29" fill="#090E2B"/><path d="M26.9229616,2.951 C26.2979616,4.582 24.4769616,5.903 22.8559616,5.903 C21.2339616,5.903 20.4259616,4.582 21.0509616,2.951 C21.6759616,1.321 23.4969616,1.27897692e-13 25.1179616,1.27897692e-13 C26.7389616,1.27897692e-13 27.5479616,1.321 26.9229616,2.951" id="Fill-35" fill="#090E2B"/><path d="M57.8731616,2.951 C57.2481616,4.582 55.4271616,5.903 53.8061616,5.903 C52.1841616,5.903 51.3761616,4.582 52.0011616,2.951 C52.6261616,1.321 54.4461616,1.27897692e-13 56.0681616,1.27897692e-13 C57.6891616,1.27897692e-13 58.4971616,1.321 57.8731616,2.951" id="Fill-37" fill="#090E2B"/></g><path d="M187.019737,561.172044 C178.530191,583.552303 131.3747,633.528851 131.3747,633.528851 C131.3747,633.528851 241.683867,644.975335 257.978722,644.973336 C258.357301,650.702075 253.558644,694.183321 253.558644,694.183321 C205.5531,700.984449 53.1528019,720.653251 41.0842405,680.373183 C15.9392402,596.451959 114.605373,481.936153 127.273267,466.450969 C145.017508,444.759318 198.374094,531.239085 187.019737,561.172044" id="Fill-39" fill="#0B579F"/><path d="M257.714312,644.434477 C215.358945,642.422509 176.7689,635.397047 134.316447,631.664801 C149.269639,615.654672 163.80246,599.172661 176.277466,581.150564 C180.554239,574.793103 184.437665,568.47845 186.982911,561.201119 C187.06098,560.96916 187.670517,559.083625 187.438313,559 C177.526568,579.201314 161.244203,598.575343 145.831606,615.385879 C140.65604,620.973794 135.381386,626.497 130.005644,631.864903 C129.11686,632.701149 127.893781,634.197432 130.974499,634.402511 C163.524215,636.572769 196.11797,640.632544 228.597624,643.661945 C239.483228,644.455383 245.18726,644.960117 256.13592,645 C257.896473,645.006907 258.378898,644.418548 257.714312,644.434477" id="Fill-42" fill="#090E2B"/><path d="M254.944007,679 C254.4264,679 250.564855,694.198599 249.376799,694.362446 C209.234389,699.898561 166.001241,705.665023 125.323956,704.408293 C124.561077,704.330685 125.277147,705.059999 126.113724,705.141586 C155.990477,708.395141 220.893909,701.486064 230.655965,699.595619 C248.854502,696.071433 250.413547,696.344934 251.194352,695.113161 C254.039194,684.371054 255.289079,679 254.944007,679 Z" id="Fill-44" fill="#090E2B"/></g></g><g id="Head" transform="translate(341.000000, 346.000000) scale(1 1)"><g id="Head/Short Gray" stroke="none" stroke-width="1" fill="none" fill-rule="evenodd"><path d="M240.4603,89.8187 C240.4603,89.8187 247.1233,114.1517 245.6803,124.1867 C243.8023,137.2407 233.4533,136.1067 234.8383,140.4027 C239.5723,155.0927 226.4003,160.2027 226.4003,160.2027 C226.4003,160.2027 223.6603,145.9857 223.9103,131.6937 C224.1613,117.4007 221.6543,107.1207 221.6543,107.1207 L240.4603,89.8187 Z" id="hair" fill="#E3E4E6"/><path d="M192.5908,267.0274 C224.2428,264.4884 238.020209,246.70182 239.5388,229.4834 C241.504327,207.197431 236.0058,190.5654 233.1908,174.2604 C223.4298,117.7414 239.1068,106.6534 187.1538,96.2284 C159.9338,90.7674 99.9898,97.9554 85.2798,132.7664 C79.5308,146.3714 88.6708,170.3194 90.2748,189.9154 C94.4538,240.9794 154.1008,270.1154 192.5908,267.0274 Z" id="face" fill="#ca8f67"/><path d="M123.8589,41.6834 C86.5719,47.4364 78.1609,71.7324 76.2619,82.4054 C75.4829,79.1624 74.9369,75.5634 76.4449,72.9134 C76.9879,71.8554 75.3329,71.0214 74.8099,72.0874 C72.6969,76.5784 72.7039,81.6154 73.8029,86.3604 C69.7519,85.7334 65.5239,86.3634 61.9699,88.4944 C61.1589,88.9754 61.9019,90.2394 62.7189,89.7804 C65.1059,88.7554 67.7359,88.4754 70.3069,88.7714 C65.6579,90.4604 58.9819,94.3084 54.3399,103.0204 C49.3439,112.3974 47.7859,126.1464 49.9529,136.9844 C54.0639,157.5394 70.9269,165.4554 68.4039,170.3494 C61.0699,184.5724 69.3379,208.4314 79.1349,218.4284 C92.9599,232.5354 107.8639,235.3934 108.1179,219.3434 C108.3729,203.2944 103.6129,173.2844 107.7139,170.4274 C115.8699,180.5164 119.6079,181.7564 120.5419,175.2714 C122.4569,161.9584 118.0209,155.6414 113.1789,148.5664 C106.7739,139.2044 131.5549,136.0114 131.8529,120.6364 C135.6089,124.7334 138.4359,132.6264 153.2019,136.6944 C165.6119,140.1134 180.8789,140.2074 193.0839,122.5414 C202.3029,138.2494 224.0969,132.0104 230.7859,130.2904 C266.4129,121.1334 253.4839,53.9264 211.3139,60.7074 C184.4609,65.0254 158.9859,36.2624 123.8589,41.6834 Z" id="hair" fill="#E3E4E6"/><path d="M113.767,179.4916 C109.26,169.7266 100.831,161.4866 86.463,164.4866 C71.599,167.5916 69.788,197.7756 96.185,208.6956 C104.335,212.0666 107.242,210.4316 109.479,208.2106 C114.731,202.9936 115.788,183.8716 113.767,179.4916" id="ear" fill="#ca8f67"/><path d="M89.6861,174.4214 C90.2851,174.4984 90.8771,174.6084 91.4611,174.7554 C92.6281,175.0464 93.7631,175.4654 94.8541,175.9824 C97.0271,177.0314 99.0231,178.5214 100.5801,180.3734 C101.0121,180.7984 101.3281,181.3184 101.6901,181.7984 C102.0461,182.2824 102.3891,182.7724 102.6541,183.3114 C102.9371,183.8354 103.2311,184.3534 103.4921,184.8844 L104.1211,186.5354 L104.4261,187.3594 L104.6281,188.2104 C104.7621,188.7754 104.8961,189.3394 105.0111,189.9034 C105.1831,191.0424 105.2721,192.1864 105.3561,193.3124 C105.3851,193.7104 105.0871,194.0564 104.6901,194.0854 C104.3601,194.1094 104.0661,193.9084 103.9581,193.6114 L103.9251,193.5194 C103.5551,192.4924 103.3001,191.4554 102.9281,190.4634 C102.7101,189.9784 102.5101,189.4924 102.3111,189.0094 L102.0121,188.2864 L101.6351,187.6054 L100.9011,186.2504 L100.0301,184.9974 C99.7641,184.5654 99.4291,184.1884 99.0891,183.8194 C98.7411,183.4584 98.4681,183.0324 98.0751,182.7194 C96.6741,181.3004 94.9981,180.2114 93.2291,179.3164 C92.7861,179.0924 92.3251,178.9044 91.8721,178.6934 C91.4061,178.5204 90.9431,178.3264 90.4701,178.1654 C89.5471,177.8334 88.5011,177.5664 87.6531,177.3764 L87.4811,177.3384 C86.6491,177.1514 86.1261,176.3264 86.3131,175.4954 C86.4731,174.7824 87.1041,174.2964 87.8041,174.2904 C88.5141,174.2844 89.0751,174.3324 89.6861,174.4214 Z" id="Fill-9" fill="#090E2B"/><path d="M99.0443,183.8384 C98.9553,183.8094 98.7863,183.7934 98.6423,183.7684 C98.3093,183.7504 97.9563,183.7384 97.5883,183.7934 C96.8583,183.8794 96.1273,184.1034 95.4523,184.4294 C94.7723,184.7454 94.1523,185.1914 93.5983,185.7054 C93.0253,186.1984 92.5623,186.8304 92.1123,187.4554 L92.0493,187.5424 C91.3583,188.5044 90.0173,188.7224 89.0563,188.0304 C88.0943,187.3384 87.8763,185.9984 88.5683,185.0364 C88.6163,184.9694 88.6773,184.8954 88.7323,184.8354 C89.4763,184.0294 90.2533,183.2454 91.1863,182.6214 C92.0953,181.9834 93.0963,181.4544 94.1663,181.1164 C95.2323,180.7694 96.3473,180.5834 97.4833,180.6024 C98.0483,180.6024 98.6303,180.6854 99.2183,180.8124 C99.5263,180.9034 99.8173,180.9764 100.1563,181.1384 C100.4673,181.2904 100.8843,181.4634 101.3493,182.0784 C101.7863,182.7264 101.6163,183.6054 100.9693,184.0434 C100.3223,184.4804 99.4423,184.3114 99.0043,183.6644 C99.1613,183.9274 99.1723,183.8464 99.0443,183.8384 Z" id="Fill-11" fill="#090E2B"/><path d="M145.0532,259.7084 C141.4982,257.8384 132.4912,252.7524 130.5242,250.3674 C129.4982,249.1244 130.9902,250.3784 132.7172,251.3724 C135.0152,252.6964 144.1192,257.8464 155.4622,261.5594 C156.4462,261.8814 162.7232,263.6464 162.9132,263.9644 C163.0902,264.2614 162.5602,264.8804 161.8432,264.8734 C157.0202,264.8304 149.4132,262.0014 145.0532,259.7084 Z" id="Fill-13" fill="#090E2B"/></g></g><g id="Expressions" transform="translate(462.000000, 479.000000) scale(1 1)"><g id="Expressions/Relaxed" stroke="none" stroke-width="1" fill="none" fill-rule="evenodd"><path d="M93.917,85.9779 C78.288,85.3499 67.34,84.9099 56.819,84.4879 C53.549,84.3559 50.673,90.0739 56.294,97.5689 C64.259,108.1889 84.891,111.8759 93.281,99.0539 C97.555,92.5239 97.31,86.1149 93.917,85.9779" id="Fill-1" fill="#FFF"/><path d="M82.7872,55.7084 C86.8282,59.4834 96.9612,74.6464 87.8282,76.8394 C85.9422,77.2914 77.3212,77.5114 78.5922,75.6374 C79.6052,74.1434 85.9772,75.0244 86.8982,72.1854 C88.1082,68.4554 83.7122,61.1524 80.9722,56.1434 C80.5012,55.2804 82.1522,54.9674 82.7872,55.7084" id="nose" fill="#090E2B"/><path d="M63.2787643,47.5005595 C63.8977643,55.1465595 54.2727643,60.0135595 46.1077643,56.1935595 C41.9017643,54.2275595 39.7587643,51.2665595 40.7837643,50.0295595 C41.4397643,49.2375595 43.3107643,50.3635595 43.9337643,50.7335595 C52.2097643,55.6545595 58.7657643,51.2125595 60.7667643,46.8055595 C61.5487643,45.0855595 63.0797643,45.0435595 63.2787643,47.5005595 Z M104.514164,42.1987595 C103.866164,45.3027595 102.660164,46.8727595 101.140164,47.9767595 C96.7091643,51.1937595 89.4801643,47.9737595 88.0981643,45.0087595 C87.0641643,42.7917595 88.5051643,42.7377595 90.1931643,43.7887595 C92.8701643,45.4587595 95.4171643,45.8007595 97.1021643,45.4817595 C100.340164,44.8707595 101.879164,41.6127595 103.045164,40.2707595 C103.679164,39.5417595 105.019164,39.7827595 104.514164,42.1987595 Z" id="eye" fill="#090E2B" transform="translate(72.577838, 48.716394) rotate(3.000000) translate(-72.577838, -48.716394)"/><path d="M62.79355,24.2519929 C66.09155,27.4989929 65.39755,33.0019929 61.13355,31.9079929 C49.32655,25.7259929 38.64055,24.0389929 28.38555,32.9259929 C24.70055,36.1199929 22.78655,33.4669929 23.96555,30.1789929 C24.80555,27.8369929 28.41655,23.5259929 31.44155,21.8919929 C41.35255,16.5349929 55.59955,17.1699929 62.79355,24.2519929 Z M106.56795,16.9292929 C108.41995,18.3412929 109.65195,21.1502929 106.65095,21.9192929 C105.57695,22.1952929 94.27495,18.5422929 86.72495,27.4442929 C85.02995,29.4432929 81.19395,28.9722929 81.57395,25.6042929 C82.55195,16.9622929 97.18895,9.78229286 106.56795,16.9292929 Z" id="eybrow" fill="#090E2B" transform="translate(66.040205, 24.189369) rotate(3.000000) translate(-66.040205, -24.189369)"/></g></g><g id="Facial Accesories" transform="translate(459.000000, 529.000000) scale(1 1)" fill="#000"><g id="Facial Accesories/None" stroke="none" stroke-width="1" fill="none" fill-rule="evenodd" fill-opacity="0"/></g><g id="Glass" transform="translate(462.000000, 484.000000) scale(1 1)" fill="#000"><g id="Glass/Round Black" stroke="none" stroke-width="1" fill="none" fill-rule="evenodd"><path d="M68.9960479,36.9883397 C68.7355414,53.0558262 55.6295719,66 39.5005002,66 C23.2076742,66 10,52.7931729 10,36.5005002 C10,20.2076592 23.2078425,7 39.5005002,7 C55.6294052,7 68.7355381,19.9449894 68.9960478,36.0126556 L69,36.5005002 L68.9960479,36.9883397 Z M64.9965837,36.0788026 C64.7713969,22.1897567 53.4423476,11 39.5005002,11 C25.4169691,11 14,22.4168106 14,36.5005002 C14,50.5839765 25.4167557,62 39.5005002,62 C53.4425588,62 64.7714011,50.8110148 64.9965838,36.9221913 L65,36.5005002 L64.9965837,36.0788026 Z" id="Fill-1" fill="#090E2B"/><path d="M128.99645,31.938229 C128.762436,46.3717513 116.989294,58 102.5,58 C87.8643493,58 76,46.1356507 76,31.5 C76,16.8643493 87.8643493,5 102.5,5 C116.989294,5 128.762436,16.6282487 128.99645,31.061771 L129,31.5 L128.99645,31.938229 Z M124.996986,31.1279183 C124.798295,18.8730259 114.802247,9 102.5,9 C90.0734883,9 80,19.0734883 80,31.5 C80,43.9265117 90.0734883,54 102.5,54 C114.802247,54 124.798295,44.1269741 124.996986,31.8720817 L125,31.5 L124.996986,31.1279183 Z" id="Fill-3" fill="#090E2B"/><path d="M78.6060845,19.8598214 C79.6998368,20.0253988 80.4617213,21.1134399 80.3078013,22.2900291 C80.1538812,23.4666183 79.1424429,24.2862053 78.0486906,24.1206279 C73.9467481,23.4996563 68.4447849,25.3615983 66.5704002,26.0153284 C64.6960154,26.6690585 63.8466864,26.1584184 63.4094411,25.0673002 C62.9721957,23.976182 63.4946246,22.543265 64.5089233,22.0729043 C65.5232221,21.6025435 73.910258,19.1489448 78.6060845,19.8598214 Z" id="Stroke-7" fill="#090E2B" transform="translate(71.790771, 23.018319) rotate(5.000000) translate(-71.790771, -23.018319)"/></g></g></g></g></g></svg>
