<?xml version="1.0" encoding="UTF-8"?>
<svg width="714px" height="622px" viewBox="0 0 714 622" version="1.1" xmlns="http://www.w3.org/2000/svg" xmlns:xlink="http://www.w3.org/1999/xlink">
    <title>Empty State</title>
    <g id="Empty-State" stroke="none" stroke-width="1" fill="none" fill-rule="evenodd">
        <g id="Web" transform="translate(120.000000, 19.000000)">
            <rect id="Container" fill="#F2F2F2" x="0" y="0" width="396" height="346" rx="8"></rect>
            <path d="M8,0 L388,0 C392.418278,-8.11624501e-16 396,3.581722 396,8 L396,27 L396,27 L0,27 L0,8 C-5.41083001e-16,3.581722 3.581722,8.11624501e-16 8,0 Z" id="Header" fill="#C5CFD6"></path>
            <g id="Buttons" transform="translate(9.000000, 10.000000)" fill="#F2F2F2">
                <circle id="buttons" cx="4" cy="4" r="4"></circle>
                <circle id="buttons" cx="16" cy="4" r="4"></circle>
                <circle id="buttons" cx="28" cy="4" r="4"></circle>
            </g>
            <g id="Content" transform="translate(16.000000, 36.000000)">
                <g id="Components" transform="translate(0.000000, 90.000000)">
                    <rect id="Background" fill="#FFFFFF" x="0" y="0" width="70" height="194" rx="8"></rect>
                    <g id="Rows" transform="translate(18.000000, 18.000000)">
                        <rect id="Data" fill="#DDE3E9" x="0" y="0" width="34" height="26" rx="4"></rect>
                        <rect id="Data" fill="#AFB9C5" x="0" y="34" width="34" height="25" rx="4"></rect>
                        <rect id="Data" fill="#DDE3E9" x="0" y="67" width="34" height="25" rx="4"></rect>
                        <rect id="Data" fill="#DDE3E9" x="0" y="133" width="34" height="25" rx="4"></rect>
                        <rect id="Data" fill="#C5CFD6" x="0" y="100" width="34" height="25" rx="4"></rect>
                    </g>
                </g>
                <g id="Row">
                    <rect id="Container" fill="#FFFFFF" x="0" y="0" width="367" height="60" rx="4"></rect>
                    <g id="Text-Stuff" transform="translate(9.000000, 18.000000)" fill="#DDE3E9">
                        <rect id="Label" x="0" y="0" width="309" height="9" rx="3"></rect>
                        <rect id="Label" x="0" y="15" width="207.410959" height="9" rx="3"></rect>
                    </g>
                    <g id="Check" transform="translate(320.778626, 23.000000)">
                        <circle id="Background" fill="#DDE3E9" cx="7" cy="7" r="7"></circle>
                        <circle id="Indicator" fill="#F2F2F2" cx="7" cy="7" r="3"></circle>
                    </g>
                </g>
            </g>
        </g>
        <g id="Diagrams" transform="translate(356.000000, 216.500000) rotate(-9.000000) translate(-356.000000, -216.500000) translate(235.000000, 150.000000)">
            <path d="M11.0618691,6.59013345 L229.985505,6.57075339 C232.194644,6.56985051 233.985664,8.36055297 233.985859,10.569692 C233.985859,10.5699278 233.985859,10.5701635 233.985152,10.5703993 L233.97558,118.954234 C233.974677,121.163097 232.184089,122.953685 229.975226,122.954588 L11.0515901,122.973968 C8.84245117,122.974871 7.05143164,121.184169 7.05123608,118.97503 C7.05123606,118.974794 7.05123606,118.974558 7.05194339,118.974323 L7.06151579,10.5904875 C7.06241831,8.38162485 8.85300636,6.59103643 11.0618691,6.59013345 Z" id="Container" fill="#FFFFFF" transform="translate(120.518548, 64.772361) rotate(-2.000000) translate(-120.518548, -64.772361) "></path>
            <g id="Chart" opacity="0.704706101" transform="translate(143.327536, 32.132053)">
                <path d="M37.7664728,37.179 C35.8448939,39.219 33.1227826,40.5 30.095205,40.5 C24.2778019,40.5 19.5618833,35.799 19.5618833,30 C19.5618833,24.201 24.2778019,19.5 30.095205,19.5 L30.095205,0 C13.5458518,0 0,13.503 0,30 C0,46.497 13.5458518,60 30.095205,60 C38.788205,60 46.6445583,56.334 52,50.502 L37.7664728,37.179 Z" id="Value" fill="#F2F2F2"></path>
                <path d="M30,0 L30,19.5 C35.799,19.5 40.5,24.201 40.5,30 L60,30 C60,13.503 46.497,0 30,0 Z" id="Value" fill="#AFB9C5"></path>
                <path d="M40.0969635,30 C40.0969635,33.4069834 38.4924726,36.4354131 36,38.3907651 L48.2618015,54 C55.3993366,48.4117535 60,39.7492845 60,30 L40.0969635,30 Z" id="Value" fill="#C5CFD6"></path>
            </g>
            <g id="Graph" transform="translate(39.676976, 36.104407)">
                <rect id="Value" fill="#DDE3E9" x="1.80036668e-16" y="32" width="6" height="25" rx="3"></rect>
                <rect id="Value" fill="#DDE3E9" x="14" y="16" width="6" height="41" rx="3"></rect>
                <rect id="Value" fill="#DDE3E9" x="28" y="8" width="6" height="49" rx="3"></rect>
                <rect id="Value" fill="#DDE3E9" x="42" y="16" width="6" height="41" rx="3"></rect>
                <rect id="Value" fill="#C5CFD6" x="56" y="-1.14829037e-14" width="6" height="57" rx="3"></rect>
            </g>
            <path d="M4.31217829,13.0323422 C14.4763145,7.04176371 10.4568382,28.1775822 10.2900053,31.8356089 C9.78880267,42.8487782 10.4688051,53.3765323 11.5662418,64.320052 C12.290001,71.5418369 11.8934539,78.7400421 11.4706618,85.9488876 L11.3302598,88.3522771 C11.2149494,90.3555084 11.1069938,92.359854 11.0298424,94.3660475 C11.0042367,95.0317167 10.9800829,95.6972638 10.9566426,96.3627011 L10.8186573,100.354109 C10.7009611,103.679353 10.5641885,107.00248 10.316051,110.325051 C10.1915247,111.998794 10.3863415,119.597312 9.49661118,123.545923 C11.3444793,123.458823 13.1305377,123.511401 14.387964,123.515282 L14.6770788,123.515193 C14.8628545,123.514394 15.0343849,123.511994 15.1898079,123.507239 L15.1898079,123.507239 L27.6713165,123.133436 C31.8317601,123.006317 35.9920259,122.871467 40.1517581,122.713244 C72.1562648,121.496359 104.178556,122.046546 136.17666,120.509617 C166.441869,119.054678 196.818051,118.746141 227.106023,118.37 C229.755874,118.60374 230.941016,121.416528 229.240132,123.57844 C227.576239,125.693605 219.862149,125.229721 217.457721,125.426063 C208.92698,126.119371 200.4126,126.431503 191.85625,126.514211 C173.837264,126.687538 155.88657,127.468588 137.897463,128.506393 C105.934927,130.348981 73.9254404,130.19651 41.9458316,131.511926 C34.1833693,131.83125 26.4201957,132.070024 18.6541766,132.275715 C14.5588233,132.384314 3.8342191,134.879216 1.80539373,129.930407 C0.378267289,126.447967 2.34800762,124.837301 5.24208932,124.100595 C4.61132549,121.445571 4.94263183,117.267355 4.90911627,116.312787 C4.75425028,111.907092 4.70004719,107.499266 4.53180641,103.094993 C4.1319706,92.5992213 3.86658661,82.0430388 3.06550711,71.5707202 C2.30032836,61.5603633 0.367319287,51.8534798 0.311708319,41.7684983 C0.274399696,34.94781 -1.60229447,17.6654637 4.31217829,13.0323422 Z M227.373626,10.7406827 C227.379215,6.29201263 232.561515,5.39747762 234.860032,8.42279924 C237.058376,11.3168 235.643587,20.0785832 235.697105,23.540935 C235.874125,34.9503159 236.921837,46.2940364 237.917404,57.6511714 C238.905424,68.915111 239.604585,80.1839927 240.366869,91.4655829 C240.720223,96.6795853 244.612609,117.489703 238.954825,120.527733 C232.456126,124.016843 232.909997,108.38854 232.918204,102.606657 L232.91801,102.236103 C232.916654,101.762329 232.910478,101.371439 232.894285,101.083776 C232.245211,89.5091847 231.429409,77.9190611 230.411886,66.3734172 C228.767245,47.7082066 227.360003,29.4814381 227.373626,10.7406827 Z M182.398905,0.0219519329 C192.04256,-0.0649106795 201.63308,0.099163144 211.262566,0.636884078 C215.533207,0.87541157 219.801721,1.10566643 224.075196,1.28145981 C226.544204,1.38348891 232.184311,0.595520929 234.349387,1.71025779 C242.42524,5.86897771 227.199104,6.50994451 223.851042,6.53409128 L223.493929,6.53407735 L223.493929,6.53407735 L223.42624,6.53320094 C214.591654,6.38842992 205.774071,5.71903629 196.940194,5.50808423 C164.448471,4.73114642 131.714453,6.65591161 99.2517784,7.95195694 C94.0464338,8.15992166 88.8420338,8.308446 83.6381586,8.44565931 L75.832687,8.64901217 C68.027504,8.85591409 60.2230294,9.09151169 52.4178464,9.51824151 C43.885776,9.9849557 35.3579564,10.5185403 26.8244692,10.9563003 C22.8903508,11.1582904 18.9548156,11.3540759 15.0150296,11.4505899 C12.5885294,11.5105665 7.6469708,12.488805 5.40396368,11.5960503 C3.49393614,10.8356578 1.94947767,9.77262487 2.99942604,7.51971204 C4.13013967,5.09514213 9.05115277,6.12715269 11.1340463,6.0878577 C18.6537171,5.94584422 26.1570931,5.53497028 33.6633029,5.08755889 C50.7068981,4.07209358 67.7143615,2.88428183 84.7926715,2.60094426 C117.337529,2.06046578 149.83917,0.315630289 182.398905,0.0219519329 Z" id="Image-Border" fill="#DDE3E9"></path>
        </g>
        <g id="ðŸ˜Human/Standing" transform="translate(568.422535, 277.500000) scale(-1, 1) translate(-568.422535, -277.500000) translate(423.000000, 71.000000)">
            <g id="Head/Front" transform="translate(79.497653, 0.000000)">
                <g id="Head" transform="translate(52.352113, 30.053991)" fill="#997659">
                    <path d="M36.9793427,8.85519788 C42.5973165,19.326708 41.9297552,45.8885617 34.6690246,47.7601126 C31.7733468,48.5065125 25.6045695,46.6780352 19.3263101,42.8937024 L23.2676056,70.7723005 L0,70.7723005 L8.00962861,33.4370123 C3.542616,28.1934268 0.519308364,21.7674213 1.02452729,14.5669306 C2.48025911,-6.18047769 31.3613689,-1.6163122 36.9793427,8.85519788 Z" id="Head-[skin]"></path>
                </g>
                <path d="M99.6393521,24.392631 C99.1575282,22.6990026 97.8615441,21.2489036 96.1149885,20.8187 C95.6914513,20.7143484 95.2540455,20.6722003 94.8182374,20.6897726 C94.6619115,20.696012 94.6180686,20.7410889 94.5450185,20.6317712 C94.4908221,20.550722 94.4896078,20.352715 94.4673029,20.2574679 C94.3978958,19.9612851 94.3111048,19.668795 94.2039902,19.3838813 C93.838548,18.412119 93.2244287,17.5520937 92.4840855,16.8276172 C91.0993291,15.472256 89.2282752,14.536848 87.2843629,14.3676189 C86.220439,14.2750458 85.1642484,14.447904 84.1584194,14.7940025 C83.6376739,14.9731638 83.1327143,15.1962559 82.6409203,15.4429052 C82.4928389,15.5171419 82.012421,15.880749 81.8638283,15.8571919 C81.6997053,15.8312154 81.3698614,15.4233591 81.2364155,15.3209812 C79.5869405,14.0554554 77.5500379,13.5578912 75.4954959,13.57277 C73.1764908,13.5902344 70.9434458,13.7061099 69.0093758,15.1197908 C68.5999629,15.4190934 68.2100428,15.7467918 67.8387847,16.0918079 C67.6432814,16.2734523 67.4539136,16.4619091 67.2733016,16.6581971 C67.1643336,16.7766193 67.0582416,16.8977155 66.956112,17.0220588 C66.7827858,17.2331177 66.810587,17.302452 66.5679815,17.1551883 C65.6371839,16.5896905 64.5585605,16.3252142 63.47214,16.4587257 C62.8270239,16.5380558 62.1993555,16.7317334 61.6033869,16.9866595 C61.4004699,17.0734388 60.9307891,17.4196009 60.7145148,17.4229753 C60.4999661,17.426286 60.0368681,17.1054 59.8158644,17.0238415 C58.6222015,16.5831963 57.3356123,16.474579 56.0809784,16.6781888 C54.7867838,16.8882927 53.5154692,17.4046389 52.4189508,18.1181645 C51.8915585,18.4613979 51.4314004,18.8416859 51.061804,19.3520474 C50.9022186,19.5724018 50.7579718,19.8054898 50.5771041,20.0098 C50.4712039,20.1294319 50.2615124,20.2521835 50.2046956,20.4035856 C50.2386962,20.3129226 48.789326,19.7541735 48.6525568,19.7184559 C47.9239092,19.5281527 47.1819682,19.5667354 46.4684675,19.8015424 C45.1267871,20.243079 43.9729407,21.2332413 43.0246316,22.2484252 C42.537567,22.7698649 42.1113456,23.3462499 41.7495462,23.9603263 C41.5761561,24.2544718 41.4175933,24.5570214 41.2725157,24.8660015 C41.2022138,25.0156846 41.1556227,25.2029317 41.0630159,25.3377802 C40.9436305,25.5115298 40.8634224,25.5148405 40.647212,25.5906052 C39.5491597,25.9752864 38.548188,26.6264175 37.7859234,27.5062435 C37.0149029,28.3963837 36.5146088,29.492553 36.3048534,30.6469148 C36.2925186,30.7149121 36.2851688,30.996706 36.2453524,31.033506 C36.1907725,31.0841856 35.9699606,31.0617745 35.8864291,31.0715793 C35.5971686,31.1055143 35.3099532,31.1560029 35.0265725,31.2231088 C34.5041653,31.3467518 33.9956906,31.5287145 33.5146976,31.7667049 C31.6396811,32.6944091 30.2988316,34.4336238 29.642595,36.3906461 C28.9540195,38.4444436 28.9662265,40.7974163 29.7892065,42.8128857 C29.922141,43.1384194 30.0803204,43.4544029 30.2661092,43.7533235 C30.3801901,43.9368142 30.4170027,43.9372599 30.3429301,44.1297915 C30.2603572,44.3439701 30.1095276,44.5521003 30.0114884,44.7613765 C29.6916146,45.4443415 29.4679906,46.1686907 29.3267476,46.9085111 C29.0950069,48.1220839 28.9801591,49.3974146 29.2087682,50.6202193 C29.3149241,51.1880092 29.4998821,51.7430655 29.7820485,52.2487792 C29.9259118,52.506634 30.0942529,52.7511822 30.2843238,52.9773941 C30.3830022,53.0948613 30.4878159,53.207044 30.597423,53.3145153 C30.6601196,53.3758911 30.7423089,53.4296268 30.7956106,53.4981971 C30.9257331,53.6653888 30.9530869,53.52793 30.8859805,53.7734332 C30.7921594,54.1166666 30.5794641,54.4553158 30.4492138,54.7893174 C30.315001,55.1335058 30.1936982,55.4824056 30.082749,55.8347435 C29.8580385,56.5482054 29.6680315,57.2745919 29.5492212,58.0134572 C29.3210595,59.4320406 29.3611316,60.943579 30.0321316,62.2455228 C30.3190274,62.8024255 30.7306132,63.2909489 31.2298209,63.6709823 C31.474152,63.8568924 31.7388069,64.0171444 32.0164356,64.1487458 C32.1590846,64.2164884 32.3412305,64.245521 32.4062917,64.3834892 C32.476338,64.5318353 32.3723551,64.8264264 32.3486442,64.9922812 C32.1423399,66.4351219 32.0388683,67.9500347 32.467774,69.3639703 C32.8628069,70.6662962 33.7325696,71.8161375 34.8618104,72.577414 C37.0524825,74.0541897 40.0054192,73.9709122 42.3072323,72.7886639 C42.9072273,72.4804479 43.4685563,72.0978041 43.9692978,71.6464627 C45.2443831,73.3629479 47.8682429,73.3086392 49.7318193,72.8195428 C52.0535725,72.2102415 53.9165737,70.5958159 54.9899564,68.4746578 C56.457669,70.2613687 59.5379161,69.6816729 60.5556964,67.7433689 C60.8048208,67.2689798 60.9525827,66.7461394 61.0253133,66.2170596 C61.0635959,65.9388311 61.0391819,65.6581832 61.0679418,65.3821831 C61.1046266,65.0304819 61.3395629,64.6887129 61.4746065,64.3484719 C61.7375997,63.6863262 61.9008919,63.0023425 61.9079221,62.2881166 C61.911565,61.915214 61.8643349,61.5517979 61.8288643,61.1818877 C61.7969728,60.8489049 61.889324,60.5386515 61.9417948,60.209998 C61.3463375,60.3080465 60.6208854,60.1474762 60.059876,59.974809 C59.509348,59.8053888 58.9937153,59.3591409 58.6051373,58.951603 C57.7029079,58.0052441 57.1517408,56.7646761 56.7747946,55.5299655 C55.9473409,52.8200072 56.2865157,49.5686811 59.0122494,48.0814002 C60.2820301,47.3885666 64.0861328,47.3908392 65.5984979,47.7332611 C67.1886836,48.0933028 68.9914169,51.6021049 69.0801251,51.9319043 C69.1350245,52.1360235 69.107415,52.3886575 69.2949295,52.524652 C69.7070266,52.8236999 70.3866545,52.3047433 70.6906145,52.0486075 C71.2151309,51.6065616 71.5892649,51.018398 71.9132929,50.4222123 C72.6193161,49.1233882 73.1885061,47.7305267 73.5905692,46.3086326 C73.9005368,45.2123996 74.0987243,44.0819769 74.5038552,43.0136941 C74.9070048,41.9506957 75.5425343,41.0005804 76.5306599,40.3984099 C77.6055764,39.7433314 78.8377136,39.3983153 80.0177635,38.986639 C81.1874598,38.5786554 82.3369603,38.0800088 83.2436635,37.2143171 C83.4430014,37.0239502 83.6366513,36.8216774 83.7971314,36.5975666 C83.9238027,36.4206337 84.0490041,36.0819207 84.2420148,35.969738 C84.5420763,35.7952244 84.9799934,36.2490488 85.2394714,36.4138212 C86.5196057,37.2268596 87.5876198,38.360784 88.4490102,39.5995057 C89.3056073,40.8314786 90.0084861,42.0169102 90.5796573,43.3925814 C91.0033223,44.4128587 91.2677342,45.719514 92.0128708,46.5556638 C92.3455267,46.9290121 94.8182374,47.1548776 95.6191681,46.8289262 C96.4200989,46.5029749 97.3177267,45.6566101 97.5865357,45.1261933 C97.8617358,44.5832976 97.9275001,43.9869208 97.8099041,43.3925814 C97.7407526,43.0429176 97.5995096,42.7163016 97.5222414,42.3728772 C97.4571802,42.0843982 97.3981265,41.8117088 97.2577144,41.5474235 C96.9915897,41.0466122 96.5369279,40.6866342 95.9886367,40.5361234 C96.5592328,40.010036 97.0320452,39.3806793 97.3592048,38.6771496 C97.6991466,37.9462427 97.9872567,37.0573758 98.0689987,36.2551609 C98.135466,35.6035842 98.0328891,34.928514 97.6762026,34.3685552 C97.3020046,33.7811557 96.6391213,33.3979389 96.0655854,33.0315304 C96.9416753,32.3460823 97.6914773,31.5124792 98.3078975,30.5895501 C99.5066732,28.7947534 100.248167,26.5323801 99.6393521,24.392631 Z" id="hair" fill="#191847"></path>
            </g>
            <g id="Bottom/Skinny-Jeans-1" transform="translate(0.000000, 181.293427)">
                <polygon id="leg-[skin]" fill="#997659" points="129.910798 0 177.494641 120.435947 209.409321 222.254389 222.011737 222.254389 173.221204 4.9350388e-13"></polygon>
                <path d="M120.329031,0 C119.822331,42.3220187 112.432786,99.3017476 111.252186,101.939887 C110.465119,103.698646 83.2943028,126.064338 29.7397369,169.036962 L38.4197335,178.325582 C101.60916,141.481949 134.665921,120.603115 137.590017,115.689083 C141.97616,108.318034 156.255933,40.4886751 167.720657,0 L120.329031,0 Z" id="leg-[skin]" fill="#997659"></path>
                <g id="Group" transform="translate(20.359155, 163.842723)" fill="#E4E4E4">
                    <g id="Left-[Shoe]" transform="translate(29.569249, 19.389671) rotate(50.000000) translate(-29.569249, -19.389671) ">
                        <path d="M2.5726214,24.6903533 C1.50386285,27.5538449 0.969483568,29.6990339 0.969483568,31.1259203 C0.969483568,32.8741767 1.2607302,35.4253175 1.84322347,38.7793427 C3.87132353,38.7793427 22.0982002,38.7793427 56.5238536,38.7793427 C57.9448093,34.0817171 57.1245513,31.5456202 54.0630794,31.171052 C51.0016076,30.7964838 48.4583909,30.4582787 46.4334294,30.1564367 L21.0470702,18.8390713 C20.5426411,18.6141942 19.9514216,18.840816 19.7265446,19.3452451 C19.7226975,19.3538745 19.718973,19.362558 19.7153721,19.3712929 L18.0936784,23.3051198 L18.0936784,23.3051198 C15.2595562,24.6274539 12.9565377,25.2886209 11.1846228,25.2886209 C9.75572865,25.2886209 7.78647697,24.7158435 5.27686777,23.5702887 L5.27686813,23.5702879 C4.27203344,23.1116137 3.08562502,23.5543642 2.62695076,24.5591989 C2.60729461,24.6022603 2.58917342,24.646006 2.5726214,24.6903533 Z" id="shoe"></path>
                    </g>
                </g>
                <g id="Right-{Shoe]" transform="translate(201.652582, 192.927230)" fill="#E4E4E4">
                    <path d="M2.5726214,24.6903533 C1.50386285,27.5538449 0.969483568,29.6990339 0.969483568,31.1259203 C0.969483568,32.8741767 1.2607302,35.4253175 1.84322347,38.7793427 C3.87132353,38.7793427 22.0982002,38.7793427 56.5238536,38.7793427 C57.9448093,34.0817171 57.1245513,31.5456202 54.0630794,31.171052 C51.0016076,30.7964838 48.4583909,30.4582787 46.4334294,30.1564367 L21.0470702,18.8390713 C20.5426411,18.6141942 19.9514216,18.840816 19.7265446,19.3452451 C19.7226975,19.3538745 19.718973,19.362558 19.7153721,19.3712929 L18.0936784,23.3051198 L18.0936784,23.3051198 C15.2595562,24.6274539 12.9565377,25.2886209 11.1846228,25.2886209 C9.75572865,25.2886209 7.78647697,24.7158435 5.27686777,23.5702887 L5.27686813,23.5702879 C4.27203344,23.1116137 3.08562502,23.5543642 2.62695076,24.5591989 C2.60729461,24.6022603 2.58917342,24.646006 2.5726214,24.6903533 Z" id="shoe"></path>
                </g>
                <polygon id="Pant" fill="#69A1AC" points="161.903756 211.767097 221.822169 205.264226 177.415493 2.75543803e-14 123.748831 2.75543803e-14"></polygon>
                <path d="M42.1337152,154.051404 L81.4366197,200.572539 C122.833522,155.359704 146.968025,125.858321 153.840127,112.06839 C160.712228,98.278459 166.889898,60.922329 172.373136,0 L111.954165,0 C108.958942,53.5968076 106.939953,81.6422723 105.897199,84.136394 C104.854444,86.6305157 83.5999499,109.935519 42.1337152,154.051404 Z" id="Pant" fill="#89C5CC"></path>
            </g>
            <g id="Body/Long-Sleeve-1" transform="translate(98.819148, 58.921324)">
                <path d="M104.875996,87.6336898 L135.800845,110.342484 C144.188301,112.605722 151.19575,115.421573 156.82319,118.790036 C158.152489,120.001313 159.759073,122.454352 154.246147,122.030405 C154.029954,122.01378 153.813292,121.997502 153.596484,121.981683 L152.945948,121.935717 C147.851729,121.588186 142.855724,121.555948 142.154708,123.288841 C141.394032,125.169215 144.730156,127.417935 143.192497,129.955052 C142.167391,131.646463 137.32438,127.405312 128.663463,117.231601 L98.0397493,104.532721 L104.875996,87.6336898 Z M165.305309,4.11742222 C165.161923,4.28007636 165.018533,4.44331412 164.875421,4.60694447 L164.447208,5.09882223 C164.304939,5.26304672 164.163233,5.42747277 164.022373,5.59190934 L163.602619,6.08505961 C160.616657,9.61679144 158.153341,13.065086 159.033531,14.5314201 C160.077478,16.2705604 163.881115,14.9595274 164.98196,17.7144309 C165.715857,19.5510332 159.414127,20.8664463 146.07677,21.66067 L117.505182,38.475478 L108.123172,22.8457181 L144.87026,11.8145285 C151.72546,6.47805909 158.191486,2.57628321 164.268338,0.109200807 C166.0357,-0.223459534 168.961649,-0.0302584527 165.305309,4.11742222 Z" id="Arms-[skin]" fill="#997659"></path>
                <path d="M45.6192993,35.7486721 C70.0133094,61.7211649 99.7658036,78.6693614 140.343497,93.7023042 L131.332429,111.720989 C89.4655776,107.773544 67.0828057,104.620871 49.5359486,78.6083181 C45.1320432,72.0796946 37.2575992,49.6159266 32.540228,37.9504577 L45.6192993,35.7486721 Z" id="Coat-Back" fill="#5C63AB" transform="translate(86.441863, 73.734831) rotate(15.000000) translate(-86.441863, -73.734831) "></path>
                <path d="M9.76301171,131.097456 L84.4132465,131.097456 C67.5037184,79.5261468 58.8656895,44.1308063 58.4991597,24.9114343 C58.4804737,23.9316122 56.6708716,22.2050271 55.8702641,22.4311388 C50.0155074,24.0846692 43.7504557,23.4663992 37.075109,20.576329 C19.3778504,49.038822 13.2578316,84.0819137 9.76301171,131.097456 Z" id="Shirt" fill="#AFB9C5"></path>
                <path d="M139.598845,11.8509768 L143.551744,31.6027313 C113.290678,51.0651463 82.6488081,66.1415791 55.7990072,64.0001377 C67.4593582,114.01162 66.9220306,154.952536 41.1815236,154.952536 L41.1815236,154.952536 L1.3780713,154.952536 C-4.94363574,112.467808 11.6710474,53.5616648 27.0740668,23.8498816 C27.6622617,22.7152781 28.9145877,20.576329 31.8643292,20.576329 L31.8643292,20.576329 L43.4300381,20.576329 C43.4351316,20.5916653 43.4402244,20.6070017 43.4453165,20.622338 C64.8422192,20.7973554 99.5597301,24.70526 139.598845,11.8509768 Z" id="Coat-Front" fill="#8991DC"></path>
            </g>
        </g>
        <g id="humaaan-5" transform="translate(37.000000, 169.501352)">
            <g id="Group" transform="translate(53.764822, 15.827838)">
                <g id="Head/Front" transform="translate(68.000000, 52.000000) rotate(-15.000000) translate(-68.000000, -52.000000) ">
                    <g id="Head" transform="translate(54.000000, 31.000000)" fill="#B28B67">
                        <path d="M38.1433414,9.13393292 C43.9381521,19.9350547 43.249578,47.3329958 35.7603014,49.2634576 C32.773664,50.0333035 26.4113241,48.1475566 19.935865,44.2446031 L24,73 L0,73 L8.26160177,34.4893378 C3.65406109,29.0807313 0.535660132,22.452516 1.05677633,15.0254539 C2.55833022,-6.37502057 32.3485306,-1.66718886 38.1433414,9.13393292 Z" id="Head-[skin]"></path>
                    </g>
                    <path d="M78.46395,27.6852568 C75.3008195,27.1665378 66.7839511,26.8099042 65.2132884,26.8101344 C64.2095609,26.8101344 63.1218259,27.0394482 62.5273474,26.1178184 C62.0405177,25.3631089 62.2188613,24.0866873 62.0735698,23.2108742 C61.9048664,22.1934668 61.6652388,21.1891827 61.4228569,20.1874312 C60.7331241,17.3368945 59.6901472,14.6249591 58.2308058,12.0787928 C55.4925323,7.30188179 51.4810649,3.56010629 46.4167508,1.38277606 C40.824292,-1.02133542 34.4959652,-1.57182675 28.4804855,-1.08418951 C22.0431327,-0.562477519 16.2158664,1.56258942 10.137955,3.56240864 C4.34603603,5.46806184 -1.7203989,6.21816672 -7.77811175,5.28755777 C-13.8815008,4.35004179 -18.4931849,1.0420286 -23.6412768,-2.09768297 C-28.9114778,-5.31199061 -34.9343023,-7.4142643 -41.1646205,-6.93100152 C-46.9804104,-6.47974137 -52.3405866,-4.0783927 -57.1496651,-0.870531642 C-61.6491098,2.13080883 -65.3617312,5.74181098 -67.4577843,10.8240133 C-69.7126711,16.2909379 -69.7106053,22.291777 -66.0025745,27.1232537 C-60.627938,34.1265349 -50.6501101,35.9375616 -42.3489869,35.7575181 C-37.5474828,35.6536822 -32.8318224,34.7771784 -28.298637,33.1828026 C-22.2530892,31.0563543 -17.0287938,27.4522592 -11.3729852,24.5280473 C-8.71871903,23.1558481 -5.97516638,22.0288489 -3.09940537,21.2170411 C-0.308799399,20.4289475 2.43980288,20.0674789 4.96645123,21.7532579 C7.63930914,23.5366564 10.0344377,25.2885128 13.0922147,26.4049212 C16.0255874,27.4759733 19.132713,28.0750442 22.2579713,28.0508696 C28.338637,28.0039017 34.3327705,26.1092997 40.2385356,24.8402457 C45.0544999,23.8055706 50.2074119,22.7743491 55.1172534,23.7689633 C57.1660236,24.1840766 60.1586146,25.0410104 60.8986141,27.1702216 C48.4441749,29.4274433 43.5527072,44.8301494 47.0638027,56.1372093 C48.958789,62.2400423 60.3498117,69.3741897 64.7787912,66.1658382 C67.5846772,64.1332552 65.881216,61.4648419 64.7787912,59.7033156 C62.6675892,56.3299158 61.9452634,51.9966672 65.8518364,49.6480423 C69.2215424,47.6224367 72.7645562,52.4327123 72.8315785,52.4274169 C73.7577255,52.3544325 81.7604403,47.8285457 87.2741651,41.224129 C92.7134751,41.5465656 93.5386971,37.9600245 92.2398964,35.026908 C90.9410957,32.0937915 82.8343998,28.4024381 78.46395,27.6852568 Z" id="hair" fill="#191847"></path>
                </g>
            </g>
            <g id="Bottom/Skinny-Jeans-1" transform="translate(0.000000, 195.498648)">
                <path d="M207.469522,-9.65840194 C188.34471,5.93412613 195.620321,142.644251 194.343793,144.365431 C193.776447,145.1304 163.468239,151.639612 103.419169,163.893066 L106.01112,174.474064 C176.253239,170.987921 213.421261,166.637951 217.515185,161.424153 C223.376511,153.959489 230.620797,112.212202 239.248044,36.1822931 L207.469522,-9.65840194 Z" id="leg-[skin]" fill="#B28B67" transform="translate(171.333606, 82.407831) rotate(-55.000000) translate(-171.333606, -82.407831) "></path>
                <path d="M207.469522,-9.65840194 C188.34471,5.93412613 195.620321,142.644251 194.343793,144.365431 C193.776447,145.1304 163.468239,151.639612 103.419169,163.893066 L106.01112,174.474064 C176.253239,170.987921 213.421261,166.637951 217.515185,161.424153 C223.376511,153.959489 230.620797,112.212202 239.248044,36.1822931 L207.469522,-9.65840194 Z" id="shadow" fill-opacity="0.1" fill="#000000" transform="translate(171.333606, 82.407831) rotate(-55.000000) translate(-171.333606, -82.407831) "></path>
                <path d="M113.540088,152.75781 L118.105527,169.799273 C170.465638,175.811529 204.983252,168.36956 217.132934,156.81223 C225.232723,149.107343 232.495664,107.473517 238.921759,31.9107522 L204.926407,-16.6396419 C159.401042,17.7063231 186.537309,130.140454 185.373895,132.713083 C184.210481,135.285712 156.597106,137.319958 113.540088,152.75781 Z" id="Pant" fill="#2F3676" transform="translate(176.230924, 77.646617) rotate(-55.000000) translate(-176.230924, -77.646617) "></path>
                <g id="Group" transform="translate(192.883915, 167.279121)" fill="#E4E4E4">
                    <g id="Right-[shoe]" transform="translate(30.500000, 20.000000) rotate(20.000000) translate(-30.500000, -20.000000) ">
                        <path d="M2.61338006,25.5756215 C1.53779335,28.4751964 1,30.6518795 1,32.1056708 C1,33.908957 1.3004142,36.5404001 1.90124261,40 C3.99318117,40 22.7937852,40 58.3030548,40 C59.768738,35.1545073 58.9226607,32.5385816 55.7648228,32.1522232 C52.606985,31.7658647 49.9837155,31.4170139 47.8950143,31.1056708 L21.7581908,19.4537446 C21.2117811,19.2101524 20.571358,19.4556345 20.3277658,20.0020442 C20.3235986,20.0113918 20.3195641,20.0207979 20.3156635,20.0302598 L18.6632131,24.038695 L18.6632131,24.038695 C15.7398812,25.4026522 13.3643706,26.0846307 11.5366811,26.0846307 C10.0810654,26.0846307 8.0818051,25.5083691 5.53890027,24.3558459 L5.5388939,24.35586 C4.44911276,23.8619374 3.16526724,24.3449762 2.67134469,25.4347574 C2.65037789,25.4810181 2.63104441,25.5280019 2.61338006,25.5756215 Z" id="shoe"></path>
                    </g>
                </g>
                <polygon id="leg-[skin]" fill="#B28B67" points="130 0 78.2540376 124.226909 27.3958106 229.25029 39.3949124 229.25029 170.673688 0"></polygon>
                <g id="Left-[shoe]" transform="translate(24.000000, 199.000000)" fill="#E4E4E4">
                    <path d="M2.61338006,25.5756215 C1.53779335,28.4751964 1,30.6518795 1,32.1056708 C1,33.908957 1.3004142,36.5404001 1.90124261,40 C3.99318117,40 22.7937852,40 58.3030548,40 C59.768738,35.1545073 58.9226607,32.5385816 55.7648228,32.1522232 C52.606985,31.7658647 49.9837155,31.4170139 47.8950143,31.1056708 L21.7581908,19.4537446 C21.2117811,19.2101524 20.571358,19.4556345 20.3277658,20.0020442 C20.3235986,20.0113918 20.3195641,20.0207979 20.3156635,20.0302598 L18.6632131,24.038695 L18.6632131,24.038695 C15.7398812,25.4026522 13.3643706,26.0846307 11.5366811,26.0846307 C10.0810654,26.0846307 8.0818051,25.5083691 5.53890027,24.3558459 L5.5388939,24.35586 C4.44911276,23.8619374 3.16526724,24.3449762 2.67134469,25.4347574 C2.65037789,25.4810181 2.63104441,25.5280019 2.61338006,25.5756215 Z" id="shoe"></path>
                </g>
                <path d="M31.9885488,207.432889 L58.6506859,212.432889 C79.2657755,182.124875 165.540767,57.851839 175,2.84217094e-14 L115.644073,2.84217094e-14 C84.0548806,41.821022 51.6389867,176.623522 31.9885488,207.432889 Z" id="Pant" fill="#5C63AB"></path>
            </g>
            <g id="Group" transform="translate(20.842389, 95.090815)">
                <g id="Body/Long-Sleeve-1" transform="translate(123.943277, 90.379126) rotate(-10.000000) translate(-123.943277, -90.379126) ">
                    <path d="M230.995778,44.8587681 C232.56908,44.5354324 234.992388,43.2642364 237.499995,41.8829457 L238.12821,41.5358142 C242.112415,39.3289294 246.14799,37.0210624 247.195599,37.93758 C249.805908,40.2212494 247.478397,47.2334379 244.736035,50.7216262 C239.610565,57.2410457 235.366897,59.4704905 224.878012,62.3899618 C219.393881,63.9164122 213.464566,66.9760504 207.090066,71.5688766 L206.249359,56.7792017 L221.012671,48.6831332 C223.084173,40.8145469 225.560401,36.855595 228.441355,36.8062777 C230.654527,35.7783031 226.800304,45.7209968 230.995778,44.8587681 Z M205.585877,11.1562707 L205.267547,11.7227971 C202.674594,16.359394 200.294277,21.1910756 201.621162,22.6127542 C203.002205,24.0924605 206.44596,22.025376 208.093523,24.4839206 C209.191899,26.1229503 203.308516,28.7121558 190.443375,32.2515372 L166.021818,54.5731801 L153.6103,41.27497 L187.22002,22.899095 C192.80911,16.2735805 198.315921,11.1279402 203.740452,7.46217415 C203.821972,7.42820034 203.906493,7.39488606 203.993201,7.36281995 L204.169292,7.30052634 C205.835516,6.73790768 208.074475,6.74694151 205.585877,11.1562707 Z" id="Arms-[skin]" fill="#997659"></path>
                    <path d="M138.329239,33.5839582 C149.976011,35.30293 165.869404,35.3072039 184.073851,27.4442696 L188.280182,42.9372915 C175.077885,52.4353105 157.560782,59.1827014 143.592828,56.5671966 C132.585311,54.5060347 129.04899,40.2603707 138.329239,33.5839582 Z" id="Sleeve" fill="#004084" transform="translate(160.640999, 42.289471) rotate(-9.000000) translate(-160.640999, -42.289471) "></path>
                    <path d="M138.026089,-4.05796666e-13 C139.208343,15.1626704 144.193412,31.5598124 149.269811,48.0786033 L150.116087,50.8326707 C151.122595,54.1107301 152.124586,57.3911427 153.093107,60.6652277 C165.589841,63.7780329 186.548165,60.1088965 215.967222,49.6586616 C223.264131,64.7283881 226.637309,75.4719474 226.086756,81.8893394 C200.847119,95.0506046 179.215033,100.917608 161.393677,101.30358 C161.967265,111.855211 160.68056,121.900811 156.356315,131.079665 C147.467982,149.946475 95.4218545,132.473705 77.9223514,135.912773 C66.9636481,100.384936 88.1526326,85.9465667 88.1696816,63.2137856 C88.188352,38.318968 108.212561,-4.05796666e-13 111.158722,-4.05796666e-13 L111.158722,-4.05796666e-13 Z" id="Clothes" fill="#0B579F"></path>
                </g>
            </g>
        </g>
    </g>
</svg>