<?xml version="1.0" encoding="utf-8"?>
<!-- Generator: Adobe Illustrator 23.0.2, SVG Export Plug-In . SVG Version: 6.00 Build 0)  -->
<svg version="1.2" baseProfile="tiny" id="Ebene_1" xmlns="http://www.w3.org/2000/svg" xmlns:xlink="http://www.w3.org/1999/xlink"
	 x="0px" y="0px" viewBox="0 0 500 500" xml:space="preserve">
<g>
	<g>
		<path fill="#FFFFFF" d="M98.09,351.57l2.66-34.05h7.54l-2.66,34.05H98.09z"/>
		<path fill="#FFFFFF" d="M133.73,329.47c1.35,1.47,2.03,3.62,2.03,6.45c0,0.68-0.02,1.19-0.05,1.55l-1.11,14.1h-7.29l1.11-13.81
			c0.13-1.58-0.12-2.77-0.75-3.57c-0.63-0.8-1.6-1.21-2.92-1.21c-1.51,0-2.7,0.48-3.57,1.42c-0.87,0.95-1.37,2.25-1.5,3.89
			l-1.06,13.28h-7.29l1.88-23.71h7.1l-0.24,2.8c0.84-1.06,1.91-1.89,3.24-2.49c1.32-0.6,2.8-0.89,4.44-0.89
			C130.38,327.27,132.38,328.01,133.73,329.47z"/>
		<path fill="#FFFFFF" d="M166.24,317.52l-2.7,34.05h-7.2l0.24-2.95c-0.77,1.03-1.79,1.84-3.04,2.44s-2.62,0.89-4.11,0.89
			c-2,0-3.76-0.46-5.29-1.38c-1.53-0.92-2.71-2.24-3.55-3.96c-0.84-1.72-1.26-3.74-1.26-6.06c0-2.58,0.48-4.87,1.43-6.88
			s2.28-3.58,3.98-4.71c1.71-1.13,3.67-1.69,5.89-1.69c3.22,0,5.64,1.19,7.25,3.57l1.06-13.33H166.24z M155.88,344.47
			c0.98-1.32,1.47-3.07,1.47-5.26c0-2.09-0.45-3.69-1.35-4.78c-0.9-1.1-2.19-1.64-3.86-1.64c-1.74,0-3.1,0.65-4.08,1.96
			c-0.98,1.3-1.47,3.1-1.47,5.39c0,2.03,0.46,3.59,1.38,4.68c0.92,1.09,2.23,1.64,3.94,1.64
			C153.57,346.45,154.9,345.79,155.88,344.47z"/>
		<path fill="#FFFFFF" d="M168.7,351.57l1.88-23.71h7.29l-1.88,23.71H168.7z M171.21,316.45h7.82l-0.53,6.81h-7.82L171.21,316.45z"
			/>
		<path fill="#FFFFFF" d="M199.27,327.9h7.29l-12.31,23.67h-6.18l-8.45-23.67h7.39l4.97,15.02L199.27,327.9z"/>
		<path fill="#FFFFFF" d="M206.42,351.57l1.88-23.71h7.29l-1.88,23.71H206.42z M208.93,316.45h7.82l-0.53,6.81h-7.82L208.93,316.45z
			"/>
		<path fill="#FFFFFF" d="M245.5,317.52l-2.7,34.05h-7.2l0.24-2.95c-0.77,1.03-1.79,1.84-3.04,2.44c-1.26,0.6-2.62,0.89-4.1,0.89
			c-2,0-3.76-0.46-5.29-1.38c-1.53-0.92-2.71-2.24-3.55-3.96c-0.84-1.72-1.26-3.74-1.26-6.06c0-2.58,0.48-4.87,1.43-6.88
			c0.95-2.01,2.28-3.58,3.98-4.71c1.71-1.13,3.67-1.69,5.89-1.69c3.22,0,5.63,1.19,7.24,3.57l1.06-13.33H245.5z M235.14,344.47
			c0.98-1.32,1.47-3.07,1.47-5.26c0-2.09-0.45-3.69-1.35-4.78c-0.9-1.1-2.19-1.64-3.86-1.64c-1.74,0-3.1,0.65-4.08,1.96
			c-0.98,1.3-1.47,3.1-1.47,5.39c0,2.03,0.46,3.59,1.38,4.68s2.23,1.64,3.94,1.64C232.82,346.45,234.15,345.79,235.14,344.47z"/>
		<path fill="#FFFFFF" d="M272.64,327.85l-1.88,23.71h-7.1l0.24-3.04c-0.84,1.09-1.9,1.94-3.19,2.54c-1.29,0.6-2.72,0.89-4.3,0.89
			c-2.58,0-4.54-0.72-5.89-2.17c-1.35-1.45-2.03-3.56-2.03-6.33c0-0.68,0.01-1.19,0.05-1.55l1.11-14.05h7.29l-1.11,13.62
			c-0.13,1.58,0.11,2.77,0.72,3.57s1.56,1.21,2.85,1.21c1.42,0,2.55-0.47,3.41-1.42c0.85-0.95,1.34-2.23,1.47-3.84l1.06-13.14
			H272.64z"/>
		<path fill="#FFFFFF" d="M295.56,329.52c1.59,1.5,2.39,3.76,2.39,6.79c0,0.71-0.02,1.24-0.05,1.59l-1.06,13.67h-6.91l0.24-3.24
			c-0.61,1.16-1.47,2.05-2.56,2.68c-1.1,0.63-2.37,0.94-3.82,0.94c-1.58,0-2.99-0.31-4.25-0.92s-2.24-1.45-2.95-2.51
			c-0.71-1.06-1.06-2.25-1.06-3.57c0-1.8,0.46-3.25,1.38-4.35c0.92-1.09,2.38-1.89,4.37-2.39s4.65-0.75,7.97-0.75h1.74l0.05-0.63
			c0.1-1.42-0.19-2.45-0.85-3.11c-0.66-0.66-1.75-0.99-3.26-0.99c-1.19,0-2.47,0.21-3.84,0.63c-1.37,0.42-2.66,1-3.89,1.74
			l-1.59-4.88c1.32-0.87,2.96-1.58,4.93-2.13c1.96-0.55,3.88-0.82,5.75-0.82C291.54,327.27,293.96,328.02,295.56,329.52z
			 M289.13,345.5c0.88-0.95,1.39-2.18,1.52-3.69l0.05-0.82h-1.3c-2.51,0-4.27,0.24-5.26,0.72c-1,0.48-1.5,1.3-1.5,2.46
			c0,0.84,0.29,1.51,0.87,2c0.58,0.5,1.35,0.75,2.32,0.75C287.14,346.93,288.25,346.45,289.13,345.5z"/>
		<path fill="#FFFFFF" d="M301.81,351.57l2.7-34.05h7.29l-2.7,34.05H301.81z"/>
		<path fill="#FFFFFF" d="M314.22,351.57l1.88-23.71h7.29l-1.88,23.71H314.22z M316.73,316.45h7.82l-0.53,6.81h-7.82L316.73,316.45z
			"/>
		<path fill="#FFFFFF" d="M348.42,327.85l-0.39,4.88l-12.8,13.38h12.22l-0.39,5.46h-21.01l0.44-5.07l12.61-13.18h-11.45l0.43-5.46
			H348.42z"/>
		<path fill="#FFFFFF" d="M370.44,330.19c1.9,1.95,2.85,4.76,2.85,8.43c0,0.77-0.05,1.59-0.14,2.46h-15.41
			c0.29,3.61,2.27,5.41,5.94,5.41c2.42,0,4.72-0.77,6.91-2.32l1.55,4.88c-1.03,0.9-2.35,1.61-3.96,2.12
			c-1.61,0.52-3.29,0.77-5.02,0.77c-2.48,0-4.65-0.48-6.52-1.45c-1.87-0.97-3.32-2.33-4.35-4.08c-1.03-1.75-1.55-3.79-1.55-6.11
			c0-2.54,0.52-4.81,1.57-6.79c1.05-1.98,2.48-3.52,4.3-4.61c1.82-1.09,3.87-1.64,6.16-1.64
			C365.98,327.27,368.54,328.25,370.44,330.19z M357.88,337.46h9.37c0-1.74-0.38-3.03-1.14-3.89c-0.76-0.85-1.79-1.28-3.11-1.28
			C360.14,332.3,358.43,334.02,357.88,337.46z"/>
		<path fill="#FFFFFF" d="M402.9,317.52l-2.7,34.05H393l0.24-2.95c-0.77,1.03-1.79,1.84-3.04,2.44s-2.62,0.89-4.11,0.89
			c-2,0-3.76-0.46-5.29-1.38c-1.53-0.92-2.71-2.24-3.55-3.96c-0.84-1.72-1.26-3.74-1.26-6.06c0-2.58,0.48-4.87,1.43-6.88
			s2.28-3.58,3.98-4.71c1.71-1.13,3.67-1.69,5.89-1.69c3.22,0,5.64,1.19,7.25,3.57l1.06-13.33H402.9z M392.54,344.47
			c0.98-1.32,1.47-3.07,1.47-5.26c0-2.09-0.45-3.69-1.35-4.78c-0.9-1.1-2.19-1.64-3.86-1.64c-1.74,0-3.1,0.65-4.08,1.96
			c-0.98,1.3-1.47,3.1-1.47,5.39c0,2.03,0.46,3.59,1.38,4.68c0.92,1.09,2.23,1.64,3.94,1.64
			C390.23,346.45,391.56,345.79,392.54,344.47z"/>
	</g>
	<g>
		<g>
			<path fill="#FFFFFF" d="M122.76,361.51c1.88,1.68,2.82,3.96,2.82,6.84c0,3.42-1.01,6.05-3.02,7.88c-2.01,1.83-4.9,2.75-8.65,2.75
				h-7.77l-0.95,12.04h-7.09l2.54-32.03h14.22C118.24,358.99,120.88,359.83,122.76,361.51z M118.94,368.76
				c0-1.48-0.41-2.58-1.23-3.29c-0.82-0.71-2.07-1.07-3.77-1.07h-6.68l-0.73,9.22h6.72C117.05,373.62,118.94,372,118.94,368.76z"/>
		</g>
		<g>
			<path fill="#FFFFFF" d="M145.9,370.28c1.5,1.41,2.25,3.54,2.25,6.38c0,0.67-0.02,1.17-0.05,1.5l-1,12.86h-6.5l0.23-3.04
				c-0.58,1.09-1.38,1.93-2.41,2.52c-1.03,0.59-2.23,0.89-3.59,0.89c-1.48,0-2.82-0.29-4-0.86c-1.18-0.57-2.1-1.36-2.77-2.36
				c-0.67-1-1-2.12-1-3.36c0-1.7,0.43-3.06,1.29-4.09c0.86-1.03,2.23-1.78,4.11-2.25s4.38-0.7,7.5-0.7h1.64l0.05-0.59
				c0.09-1.33-0.18-2.31-0.8-2.93c-0.62-0.62-1.64-0.93-3.07-0.93c-1.12,0-2.32,0.2-3.61,0.59c-1.29,0.39-2.51,0.94-3.66,1.64
				l-1.5-4.59c1.24-0.82,2.79-1.48,4.63-2c1.85-0.51,3.65-0.77,5.41-0.77C142.12,368.17,144.4,368.87,145.9,370.28z M139.86,385.31
				c0.83-0.89,1.31-2.05,1.43-3.48l0.05-0.77h-1.23c-2.36,0-4.01,0.23-4.95,0.68c-0.94,0.45-1.41,1.23-1.41,2.32
				c0,0.79,0.27,1.42,0.82,1.89c0.54,0.47,1.27,0.7,2.18,0.7C137.99,386.66,139.03,386.21,139.86,385.31z"/>
		</g>
		<g>
			<path fill="#FFFFFF" d="M170.09,370.91c1.79,1.83,2.68,4.48,2.68,7.93c0,0.73-0.05,1.5-0.14,2.32h-14.49
				c0.27,3.39,2.13,5.09,5.59,5.09c2.27,0,4.44-0.73,6.5-2.18l1.45,4.59c-0.97,0.85-2.21,1.51-3.72,2
				c-1.51,0.48-3.09,0.73-4.73,0.73c-2.33,0-4.38-0.45-6.13-1.36c-1.76-0.91-3.12-2.19-4.09-3.84c-0.97-1.65-1.45-3.57-1.45-5.75
				c0-2.39,0.49-4.52,1.48-6.38c0.98-1.86,2.33-3.31,4.04-4.34c1.71-1.03,3.64-1.54,5.79-1.54
				C165.9,368.17,168.3,369.08,170.09,370.91z M158.28,377.75h8.81c0-1.64-0.36-2.85-1.07-3.66c-0.71-0.8-1.69-1.2-2.93-1.2
				C160.4,372.89,158.79,374.51,158.28,377.75z"/>
		</g>
		<g>
			<path fill="#FFFFFF" d="M200.62,358.99l-2.54,32.03h-6.77l0.23-2.77c-0.73,0.97-1.68,1.73-2.86,2.29
				c-1.18,0.56-2.47,0.84-3.86,0.84c-1.88,0-3.54-0.43-4.97-1.3s-2.55-2.1-3.34-3.72c-0.79-1.62-1.18-3.52-1.18-5.7
				c0-2.42,0.45-4.58,1.34-6.47c0.89-1.89,2.14-3.37,3.75-4.43c1.61-1.06,3.45-1.59,5.54-1.59c3.03,0,5.3,1.12,6.81,3.36l1-12.54
				H200.62z M190.87,384.34c0.92-1.24,1.39-2.89,1.39-4.95c0-1.97-0.42-3.47-1.27-4.5c-0.85-1.03-2.06-1.54-3.63-1.54
				c-1.64,0-2.92,0.61-3.84,1.84c-0.92,1.23-1.39,2.92-1.39,5.07c0,1.91,0.43,3.38,1.3,4.41c0.86,1.03,2.1,1.54,3.7,1.54
				C188.7,386.2,189.95,385.58,190.87,384.34z"/>
		</g>
		<g>
			<path fill="#FFFFFF" d="M202.93,391.02l1.77-22.3h6.86l-1.77,22.3H202.93z M205.3,357.99h7.36l-0.5,6.4h-7.36L205.3,357.99z"/>
		</g>
		<g>
			<path fill="#FFFFFF" d="M233.07,370.28c1.5,1.41,2.25,3.54,2.25,6.38c0,0.67-0.02,1.17-0.05,1.5l-1,12.86h-6.5l0.23-3.04
				c-0.58,1.09-1.38,1.93-2.41,2.52c-1.03,0.59-2.23,0.89-3.59,0.89c-1.48,0-2.82-0.29-4-0.86c-1.18-0.57-2.11-1.36-2.77-2.36
				c-0.67-1-1-2.12-1-3.36c0-1.7,0.43-3.06,1.3-4.09c0.86-1.03,2.23-1.78,4.11-2.25c1.88-0.47,4.38-0.7,7.5-0.7h1.64l0.05-0.59
				c0.09-1.33-0.17-2.31-0.79-2.93c-0.62-0.62-1.64-0.93-3.07-0.93c-1.12,0-2.32,0.2-3.61,0.59c-1.29,0.39-2.51,0.94-3.66,1.64
				l-1.5-4.59c1.24-0.82,2.79-1.48,4.63-2c1.85-0.51,3.65-0.77,5.41-0.77C229.3,368.17,231.57,368.87,233.07,370.28z M227.03,385.31
				c0.83-0.89,1.31-2.05,1.43-3.48l0.05-0.77h-1.23c-2.36,0-4.01,0.23-4.95,0.68c-0.94,0.45-1.41,1.23-1.41,2.32
				c0,0.79,0.27,1.42,0.82,1.89c0.54,0.47,1.27,0.7,2.18,0.7C225.16,386.66,226.2,386.21,227.03,385.31z"/>
		</g>
		<g>
			<path fill="#FFFFFF" d="M248.27,382.25c-0.21,2.73,0.97,4.09,3.54,4.09c0.57,0,1.27-0.05,2.09-0.14l-0.77,4.95
				c-0.88,0.15-1.73,0.23-2.54,0.23c-3.06,0-5.36-0.67-6.9-2c-1.54-1.33-2.32-3.3-2.32-5.9c0-0.55,0.02-0.96,0.05-1.23l0.68-8.4
				h-4.22l0.41-5.13h4.23l0.5-6.54h6.86l-0.5,6.54h5.59l-0.36,5.13h-5.63L248.27,382.25z"/>
		</g>
		<g>
			<path fill="#FFFFFF" d="M273.44,368.12l-0.05,5.68l-4.22,0.45c-1.82,0.18-3.12,0.67-3.91,1.45c-0.79,0.79-1.26,2.01-1.41,3.68
				l-0.91,11.63h-6.86l1.77-22.26h6.54l-0.23,3.04c1.57-2.12,4.13-3.32,7.68-3.59L273.44,368.12z"/>
		</g>
		<g>
			<path fill="#FFFFFF" d="M273.84,391.02l1.77-22.3h6.86l-1.77,22.3H273.84z M276.2,357.99h7.36l-0.5,6.4h-7.36L276.2,357.99z"/>
		</g>
		<g>
			<path fill="#FFFFFF" d="M290.81,390.02c-1.77-0.91-3.14-2.18-4.09-3.82c-0.95-1.64-1.43-3.54-1.43-5.72
				c0-2.51,0.51-4.7,1.52-6.57c1.02-1.86,2.46-3.29,4.34-4.27c1.88-0.98,4.07-1.48,6.59-1.48c3.54,0,6.45,0.92,8.72,2.77l-2.23,4.68
				c-1.97-1.45-4.01-2.18-6.13-2.18c-1.82,0-3.23,0.61-4.25,1.82c-1.02,1.21-1.52,2.92-1.52,5.13c0,1.85,0.45,3.26,1.36,4.25
				c0.91,0.98,2.16,1.48,3.77,1.48c2.03,0,4.09-0.73,6.18-2.18l1.41,4.73c-1.03,0.85-2.25,1.51-3.66,2
				c-1.41,0.48-2.87,0.73-4.38,0.73C294.65,391.38,292.58,390.93,290.81,390.02z"/>
		</g>
		<g>
			<path fill="#FFFFFF" d="M315.45,389.56c-2.27-1.24-4.02-3.02-5.25-5.34c-1.23-2.32-1.84-5.04-1.84-8.15
				c0-3.51,0.69-6.59,2.07-9.22s3.32-4.67,5.84-6.11c2.51-1.44,5.45-2.16,8.81-2.16c2.18,0,4.22,0.31,6.13,0.93
				c1.91,0.62,3.57,1.54,5,2.75l-2.63,5.04c-1.36-1.06-2.7-1.83-4-2.32c-1.3-0.48-2.71-0.73-4.22-0.73c-3.09,0-5.49,1.05-7.2,3.16
				c-1.71,2.11-2.57,4.99-2.57,8.65c0,3.15,0.7,5.55,2.09,7.2c1.39,1.65,3.42,2.47,6.09,2.47c2.67,0,5.53-1.01,8.59-3.04l1.86,5.04
				c-1.18,1.12-2.73,2.01-4.66,2.68c-1.92,0.67-3.94,1-6.06,1C320.4,391.43,317.72,390.8,315.45,389.56z"/>
		</g>
		<g>
			<path fill="#FFFFFF" d="M361.06,368.71l-1.77,22.3h-6.68l0.23-2.86c-0.79,1.03-1.79,1.82-3,2.38c-1.21,0.56-2.56,0.84-4.04,0.84
				c-2.42,0-4.27-0.68-5.54-2.04c-1.27-1.36-1.91-3.35-1.91-5.95c0-0.64,0.02-1.12,0.05-1.45l1.05-13.22h6.86l-1.04,12.81
				c-0.12,1.48,0.11,2.61,0.68,3.36c0.57,0.76,1.47,1.13,2.68,1.13c1.33,0,2.4-0.45,3.2-1.34c0.8-0.89,1.26-2.1,1.39-3.61l1-12.36
				H361.06z"/>
		</g>
		<g>
			<path fill="#FFFFFF" d="M381.5,368.12l-0.05,5.68l-4.22,0.45c-1.82,0.18-3.12,0.67-3.91,1.45c-0.79,0.79-1.26,2.01-1.41,3.68
				l-0.91,11.63h-6.86l1.77-22.26h6.54l-0.23,3.04c1.57-2.12,4.13-3.32,7.68-3.59L381.5,368.12z"/>
		</g>
		<g>
			<path fill="#FFFFFF" d="M400.22,370.91c1.79,1.83,2.68,4.48,2.68,7.93c0,0.73-0.05,1.5-0.14,2.32h-14.49
				c0.27,3.39,2.13,5.09,5.59,5.09c2.27,0,4.44-0.73,6.5-2.18l1.45,4.59c-0.97,0.85-2.21,1.51-3.72,2
				c-1.51,0.48-3.09,0.73-4.72,0.73c-2.33,0-4.38-0.45-6.13-1.36c-1.76-0.91-3.12-2.19-4.09-3.84c-0.97-1.65-1.45-3.57-1.45-5.75
				c0-2.39,0.49-4.52,1.48-6.38c0.98-1.86,2.33-3.31,4.04-4.34c1.71-1.03,3.64-1.54,5.79-1.54
				C396.02,368.17,398.43,369.08,400.22,370.91z M388.41,377.75h8.81c0-1.64-0.36-2.85-1.07-3.66c-0.71-0.8-1.69-1.2-2.93-1.2
				C390.53,372.89,388.92,374.51,388.41,377.75z"/>
		</g>
	</g>
	<g>
		<path fill="#FFFFFF" d="M99.24,177.7c-0.49,3.33,0.21,7.63,3.16,8.06c-0.1,4.04,2.64,5.23,3.74,8.06
			c0.12,1.66-2.04,1.03-2.01,2.59c0.85,1.26,1.98,2.25,1.44,4.9c0.98,0.23,1.92,0.49,1.15,1.72c2.78,0.36,2.6,4.51,5.18,5.18
			c1.73,0.45,3.44-1.29,5.18,0c-1.88,0.61-5.73,2.47-5.18,5.47c-10.46,5.31-12.58,23.77-13.81,38.85c1.28,0.24,2.35,0.71,3.74,0.86
			c0.21,10.24,2.99,17.92,3.16,28.2c0.85,0.09,2.45,0.64,3.74,0c0.29,1.23,1.33,2.7,3.74,2.59c-1.19,4.08-4.63,5.91-9.21,6.61
			c-1.4,1.92-2.27,6.92-0.3,8.91c2.13,0.87,4.73,0.59,6.94,0.37c2.63-0.26,5.23-0.79,7.87-1.06c3.49-0.36,7.01-0.18,10.51-0.62
			c1.6-0.21,3.21-0.21,4.61-1.09c0.41-0.26,0.78-0.6,1.12-0.98c-1.62-4.05-4.93-6.41-5.15-11.85c-0.13-1.09,1.5-0.41,1.73-1.15
			c-2.13-7.81,4.07-15.33,3.45-22.73c-0.23-2.74-2.71-5.43,0-7.48c3.98-0.38,8.04,1.1,10.07-1.15c1.11-4.09-2.15-7.64-2.59-10.94
			c-0.16-1.19,0.33-2.58,0.29-3.74c-0.29-9.6-5.62-16.36-8.34-24.17c1.15-2.02-0.09-4.28-1.15-5.75c-0.71-0.25-2.23-0.56-2.88,0
			c0.89-2.55,2.56-4.35,3.45-6.9c6.04-2.11,10.3-6,12.08-12.37c1.06-1.79,1.36-7.98,0.58-12.37c-0.59-5.36-9.35-11.59-10.07-11.8
			C122.65,156.68,101.11,164.87,99.24,177.7z"/>
	</g>
	<g>
		<path fill="#FFFFFF" d="M311.78,175.17c3.95-1.35,8.17-2.1,12.57-2.04c19.41,0.27,35.19,15.4,36.67,34.38l40.79,0.57
			c-1.23-41.51-34.97-75.07-76.9-75.66c-10.39-0.14-20.32,1.77-29.44,5.33C303.85,148.4,309.61,161.18,311.78,175.17z"/>
		<path fill="#FFFFFF" d="M353.73,248.08l0-0.01l-0.22,0c-0.19-0.01-0.38-0.03-0.58-0.04l0,0.03l-0.01,0
			c0.01-0.01,0.01-0.02,0.01-0.03c0,0-9.02-0.03-24.72-0.21l-5.07-0.07c-10.42-0.2-19.77-4.68-26.42-11.72
			c-7.97,10.68-18.51,19.31-30.71,25c-0.27,0.3-0.53,0.61-0.8,0.9c14.06,16,34.57,26.22,57.54,26.53c0.85,0.01,1.69-0.04,2.53-0.05
			l26.76,0.37v0.01l40.74,0.57C393.1,267.17,375.84,248.82,353.73,248.08z"/>
	</g>
	<path fill="#FFFFFF" d="M231.49,110c-0.56,0-118.58,0-118.58,0l0.01,0.01h-0.01c0,22.43,18.19,40.62,40.62,40.62
		c0,0,78.35,0.09,78.39,0.09h0.1v0.01c20.33,0.29,36.79,16.91,36.79,37.31c0,20.58-16.74,37.32-37.32,37.32
		c-19.35,0-35.28-14.82-37.11-33.69v-0.46h-40.9c1.41,27.97,17.64,52.86,40.9,65.47v2.15c-19.8-9.69-34.88-27.52-40.9-49.13v85.03
		h40.9v-38.05c11.04,5.98,23.67,9.39,37.11,9.39c43.1,0,78.03-34.94,78.03-78.03S274.59,110,231.49,110z"/>
</g>
</svg>
